<svg width="402" height="858" viewBox="0 0 402 858" fill="none" xmlns="http://www.w3.org/2000/svg">
<g clip-path="url(#clip0_3010_6369)">
<path d="M0 30C0 13.4315 13.4315 0 30 0H372C388.569 0 402 13.4315 402 30V828C402 844.569 388.569 858 372 858H30C13.4315 858 0 844.569 0 828V30Z" fill="#F5F5F5"/>
<path d="M341.542 121.076H344.29V121.892H341.542V121.076ZM343.726 118.088H344.722V126.044H343.726V118.088ZM337.798 127.88H345.022V128.696H337.798V127.88ZM337.798 125.336H338.782V128.288H337.798V125.336ZM338.554 119.432H339.37V120.308C339.37 120.964 339.242 121.584 338.986 122.168C338.738 122.744 338.386 123.248 337.93 123.68C337.474 124.104 336.946 124.432 336.346 124.664L335.83 123.86C336.23 123.716 336.594 123.524 336.922 123.284C337.258 123.044 337.55 122.768 337.798 122.456C338.046 122.144 338.234 121.804 338.362 121.436C338.49 121.068 338.554 120.692 338.554 120.308V119.432ZM338.746 119.432H339.562V120.308C339.562 120.772 339.67 121.224 339.886 121.664C340.102 122.104 340.41 122.496 340.81 122.84C341.21 123.176 341.67 123.436 342.19 123.62L341.686 124.412C341.094 124.196 340.578 123.884 340.138 123.476C339.698 123.06 339.354 122.58 339.106 122.036C338.866 121.492 338.746 120.916 338.746 120.308V119.432ZM336.142 118.964H341.938V119.78H336.142V118.964ZM350.781 122.36H352.821V123.188H350.781V122.36ZM348.573 120.86H349.341V121.424C349.341 121.96 349.285 122.492 349.173 123.02C349.061 123.548 348.897 124.048 348.681 124.52C348.473 124.992 348.213 125.416 347.901 125.792C347.597 126.168 347.245 126.476 346.845 126.716L346.257 125.96C346.625 125.744 346.953 125.472 347.241 125.144C347.529 124.808 347.769 124.44 347.961 124.04C348.161 123.632 348.313 123.204 348.417 122.756C348.521 122.308 348.573 121.864 348.573 121.424V120.86ZM348.753 120.86H349.521V121.424C349.521 121.848 349.573 122.276 349.677 122.708C349.781 123.132 349.933 123.536 350.133 123.92C350.333 124.304 350.573 124.652 350.853 124.964C351.141 125.268 351.469 125.524 351.837 125.732L351.273 126.476C350.745 126.18 350.293 125.772 349.917 125.252C349.541 124.724 349.253 124.128 349.053 123.464C348.853 122.8 348.753 122.12 348.753 121.424V120.86ZM346.557 120.08H351.513V120.896H346.557V120.08ZM348.573 118.472H349.521V120.704H348.573V118.472ZM354.609 118.076H355.557V128.936H354.609V118.076ZM352.437 118.328H353.373V128.372H352.437V118.328ZM362.471 118.628H363.287V119.744C363.287 120.432 363.163 121.072 362.915 121.664C362.675 122.248 362.327 122.756 361.871 123.188C361.423 123.62 360.895 123.952 360.287 124.184L359.783 123.38C360.327 123.188 360.799 122.912 361.199 122.552C361.607 122.184 361.919 121.76 362.135 121.28C362.359 120.8 362.471 120.288 362.471 119.744V118.628ZM362.651 118.628H363.455V119.816C363.455 120.184 363.519 120.54 363.647 120.884C363.783 121.228 363.967 121.548 364.199 121.844C364.431 122.14 364.707 122.404 365.027 122.636C365.355 122.868 365.715 123.052 366.107 123.188L365.603 123.968C365.011 123.76 364.491 123.452 364.043 123.044C363.603 122.628 363.259 122.144 363.011 121.592C362.771 121.032 362.651 120.44 362.651 119.816V118.628ZM367.235 118.076H368.231V124.652H367.235V118.076ZM367.955 120.944H369.827V121.784H367.955V120.944ZM361.175 125.192H368.231V128.936H367.235V126.008H361.175V125.192ZM378.623 118.076H379.571V128.936H378.623V118.076ZM374.663 121.976H376.751V122.792H374.663V121.976ZM376.451 118.328H377.387V128.372H376.451V118.328ZM372.587 119.768H373.355V121.148C373.355 121.74 373.299 122.32 373.187 122.888C373.075 123.448 372.911 123.976 372.695 124.472C372.479 124.96 372.215 125.404 371.903 125.804C371.591 126.196 371.239 126.516 370.847 126.764L370.235 126.02C370.739 125.716 371.163 125.308 371.507 124.796C371.859 124.284 372.127 123.712 372.311 123.08C372.495 122.448 372.587 121.804 372.587 121.148V119.768ZM372.791 119.768H373.547V121.148C373.547 121.772 373.635 122.384 373.811 122.984C373.995 123.584 374.255 124.128 374.591 124.616C374.935 125.096 375.355 125.48 375.851 125.768L375.251 126.512C374.723 126.184 374.275 125.748 373.907 125.204C373.547 124.652 373.271 124.028 373.079 123.332C372.887 122.628 372.791 121.9 372.791 121.148V119.768ZM370.535 119.348H375.491V120.164H370.535V119.348Z" fill="#BFBFBF"/>
<mask id="path-3-inside-1_3010_6369" fill="white">
<path d="M0 539H402V619H0V539Z"/>
</mask>
<path d="M0 539H402V619H0V539Z" fill="white"/>
<path d="M0 539V539.5H402V539V538.5H0V539Z" fill="#BFBFBF" mask="url(#path-3-inside-1_3010_6369)"/>
<g clip-path="url(#clip1_3010_6369)">
<path d="M28.0032 582.333V578.334M28 585C29.5913 585 31.1174 584.368 32.2426 583.243C33.3679 582.117 34 580.591 34 579C34 577.409 33.3679 575.883 32.2426 574.757C31.1174 573.632 29.5913 573 28 573C26.4087 573 24.8826 573.632 23.7574 574.757C22.6321 575.883 22 577.409 22 579C22 580.591 22.6321 582.117 23.7574 583.243C24.8826 584.368 26.4087 585 28 585Z" stroke="#1A1A1A" stroke-linecap="round" stroke-linejoin="round"/>
<path d="M27.9722 576.122H27.9772" stroke="#1A1A1A" stroke-linecap="round" stroke-linejoin="round"/>
</g>
<path d="M42.9019 580.476H44.5219V584.556H42.9019V580.476ZM46.7419 580.476H48.3619V584.556H46.7419V580.476ZM40.6339 579.636H50.6899V580.92H40.6339V579.636ZM45.6379 573.828C46.4299 573.828 47.1259 573.928 47.7259 574.128C48.3339 574.328 48.8059 574.616 49.1419 574.992C49.4779 575.368 49.6459 575.808 49.6459 576.312C49.6459 576.816 49.4779 577.256 49.1419 577.632C48.8059 578 48.3339 578.288 47.7259 578.496C47.1259 578.696 46.4299 578.796 45.6379 578.796C44.8459 578.796 44.1459 578.696 43.5379 578.496C42.9379 578.288 42.4659 578 42.1219 577.632C41.7859 577.256 41.6179 576.816 41.6179 576.312C41.6179 575.808 41.7859 575.368 42.1219 574.992C42.4659 574.616 42.9379 574.328 43.5379 574.128C44.1459 573.928 44.8459 573.828 45.6379 573.828ZM45.6379 575.088C45.1499 575.088 44.7259 575.136 44.3659 575.232C44.0139 575.328 43.7419 575.468 43.5499 575.652C43.3579 575.828 43.2619 576.048 43.2619 576.312C43.2619 576.576 43.3579 576.8 43.5499 576.984C43.7419 577.16 44.0139 577.296 44.3659 577.392C44.7259 577.48 45.1499 577.524 45.6379 577.524C46.1259 577.524 46.5459 577.48 46.8979 577.392C47.2499 577.296 47.5219 577.16 47.7139 576.984C47.9139 576.8 48.0139 576.576 48.0139 576.312C48.0139 576.048 47.9139 575.828 47.7139 575.652C47.5219 575.468 47.2499 575.328 46.8979 575.232C46.5459 575.136 46.1259 575.088 45.6379 575.088ZM54.7689 574.188C55.3449 574.188 55.8649 574.304 56.3289 574.536C56.7929 574.768 57.1569 575.092 57.4209 575.508C57.6849 575.916 57.8169 576.388 57.8169 576.924C57.8169 577.452 57.6849 577.924 57.4209 578.34C57.1569 578.756 56.7929 579.08 56.3289 579.312C55.8649 579.544 55.3449 579.66 54.7689 579.66C54.1849 579.66 53.6609 579.544 53.1969 579.312C52.7329 579.08 52.3649 578.756 52.0929 578.34C51.8289 577.924 51.6969 577.452 51.6969 576.924C51.6969 576.388 51.8289 575.916 52.0929 575.508C52.3649 575.092 52.7329 574.768 53.1969 574.536C53.6609 574.304 54.1849 574.188 54.7689 574.188ZM54.7689 575.556C54.4809 575.556 54.2209 575.612 53.9889 575.724C53.7649 575.828 53.5849 575.984 53.4489 576.192C53.3209 576.392 53.2569 576.636 53.2569 576.924C53.2569 577.212 53.3209 577.46 53.4489 577.668C53.5849 577.876 53.7649 578.036 53.9889 578.148C54.2209 578.252 54.4809 578.304 54.7689 578.304C55.0489 578.304 55.3009 578.252 55.5249 578.148C55.7489 578.036 55.9249 577.876 56.0529 577.668C56.1889 577.46 56.2569 577.212 56.2569 576.924C56.2569 576.636 56.1889 576.392 56.0529 576.192C55.9249 575.984 55.7489 575.828 55.5249 575.724C55.3009 575.612 55.0489 575.556 54.7689 575.556ZM58.8609 573.432H60.4569V584.58H58.8609V573.432ZM51.4209 582.336L51.2409 581.04C51.8889 581.04 52.6049 581.036 53.3889 581.028C54.1809 581.012 54.9929 580.98 55.8249 580.932C56.6649 580.876 57.4769 580.792 58.2609 580.68L58.3689 581.832C57.5689 581.992 56.7569 582.108 55.9329 582.18C55.1089 582.244 54.3129 582.288 53.5449 582.312C52.7769 582.328 52.0689 582.336 51.4209 582.336ZM64.248 574.308H65.532V575.916C65.532 576.604 65.472 577.276 65.352 577.932C65.232 578.58 65.044 579.184 64.788 579.744C64.54 580.304 64.224 580.804 63.84 581.244C63.456 581.676 63.004 582.02 62.484 582.276L61.524 580.992C61.996 580.776 62.4 580.488 62.736 580.128C63.08 579.768 63.364 579.36 63.588 578.904C63.812 578.448 63.976 577.968 64.08 577.464C64.192 576.952 64.248 576.436 64.248 575.916V574.308ZM64.56 574.308H65.844V575.916C65.844 576.42 65.892 576.916 65.988 577.404C66.092 577.892 66.248 578.356 66.456 578.796C66.672 579.228 66.94 579.616 67.26 579.96C67.58 580.304 67.964 580.588 68.412 580.812L67.44 582.084C66.944 581.828 66.512 581.492 66.144 581.076C65.784 580.652 65.488 580.168 65.256 579.624C65.024 579.072 64.848 578.484 64.728 577.86C64.616 577.228 64.56 576.58 64.56 575.916V574.308ZM68.844 573.456H70.452V584.568H68.844V573.456ZM70.104 577.728H72.06V579.048H70.104V577.728ZM79.4511 573.456H81.0471V580.5H79.4511V573.456ZM80.6151 576.288H82.5231V577.584H80.6151V576.288ZM77.4471 580.608C78.2071 580.608 78.8671 580.688 79.4271 580.848C79.9871 581.008 80.4151 581.236 80.7111 581.532C81.0151 581.828 81.1671 582.18 81.1671 582.588C81.1671 583.004 81.0151 583.36 80.7111 583.656C80.4151 583.952 79.9871 584.176 79.4271 584.328C78.8671 584.488 78.2071 584.568 77.4471 584.568C76.6791 584.568 76.0151 584.488 75.4551 584.328C74.8951 584.176 74.4631 583.952 74.1591 583.656C73.8551 583.36 73.7031 583.004 73.7031 582.588C73.7031 582.18 73.8551 581.828 74.1591 581.532C74.4631 581.236 74.8951 581.008 75.4551 580.848C76.0151 580.688 76.6791 580.608 77.4471 580.608ZM77.4471 581.82C76.7431 581.82 76.2071 581.884 75.8391 582.012C75.4791 582.132 75.2991 582.324 75.2991 582.588C75.2991 582.86 75.4791 583.06 75.8391 583.188C76.2071 583.316 76.7431 583.38 77.4471 583.38C78.1431 583.38 78.6711 583.316 79.0311 583.188C79.3991 583.06 79.5831 582.86 79.5831 582.588C79.5831 582.324 79.3991 582.132 79.0311 582.012C78.6711 581.884 78.1431 581.82 77.4471 581.82ZM72.3111 574.5H78.8391V575.748H72.3111V574.5ZM75.5751 576.12C76.1191 576.12 76.5951 576.204 77.0031 576.372C77.4111 576.532 77.7311 576.764 77.9631 577.068C78.1951 577.364 78.3111 577.712 78.3111 578.112C78.3111 578.504 78.1951 578.852 77.9631 579.156C77.7311 579.452 77.4111 579.684 77.0031 579.852C76.5951 580.012 76.1191 580.092 75.5751 580.092C75.0391 580.092 74.5631 580.012 74.1471 579.852C73.7391 579.684 73.4191 579.452 73.1871 579.156C72.9551 578.852 72.8391 578.504 72.8391 578.112C72.8391 577.712 72.9551 577.364 73.1871 577.068C73.4191 576.764 73.7391 576.532 74.1471 576.372C74.5631 576.204 75.0391 576.12 75.5751 576.12ZM75.5751 577.272C75.2231 577.272 74.9351 577.344 74.7111 577.488C74.4871 577.624 74.3751 577.832 74.3751 578.112C74.3751 578.384 74.4871 578.588 74.7111 578.724C74.9351 578.86 75.2231 578.928 75.5751 578.928C75.9351 578.928 76.2231 578.86 76.4391 578.724C76.6631 578.588 76.7751 578.384 76.7751 578.112C76.7751 577.832 76.6631 577.624 76.4391 577.488C76.2231 577.344 75.9351 577.272 75.5751 577.272ZM74.7831 573.372H76.3671V575.172H74.7831V573.372Z" fill="black"/>
<path d="M348.5 576.761L352.617 580.878C352.852 581.11 353.169 581.24 353.5 581.24C353.831 581.24 354.148 581.11 354.383 580.878L358.5 576.761" stroke="#1A1A1A" stroke-linecap="round" stroke-linejoin="round"/>
<rect width="402" height="50" transform="translate(0 619)" fill="#F1F1F1"/>
<mask id="path-9-inside-2_3010_6369" fill="white">
<path d="M0 619H402V669H0V619Z"/>
</mask>
<path d="M0 619H402V669H0V619Z" fill="#F1F1F1"/>
<path d="M0 619V619.5H402V619V618.5H0V619ZM402 669V668.5H0V669V669.5H402V669Z" fill="#BFBFBF" mask="url(#path-9-inside-2_3010_6369)"/>
<rect y="669" width="402" height="92" fill="#F1F1F1"/>
<path d="M22.37 633.64H28.19V634.32H22.37V633.64ZM21.5 639.82H29.67V640.51H21.5V639.82ZM24.68 636.59H25.5V640.17H24.68V636.59ZM27.87 633.64H28.7V634.53C28.7 634.903 28.6933 635.297 28.68 635.71C28.6733 636.123 28.6467 636.577 28.6 637.07C28.56 637.563 28.4833 638.113 28.37 638.72L27.53 638.62C27.7033 637.753 27.8033 636.993 27.83 636.34C27.8567 635.68 27.87 635.077 27.87 634.53V633.64ZM37.5292 632.74H38.3192V638.06H37.5292V632.74ZM36.0892 635H37.7992V635.69H36.0892V635ZM35.5492 632.91H36.3392V638.01H35.5492V632.91ZM32.2492 638.49H38.3192V641.78H37.4992V639.17H32.2492V638.49ZM33.7992 633.4H34.6292C34.6292 634.12 34.4959 634.78 34.2292 635.38C33.9692 635.98 33.5826 636.513 33.0692 636.98C32.5559 637.44 31.9159 637.833 31.1492 638.16L30.7392 637.54C31.4126 637.267 31.9759 636.937 32.4292 636.55C32.8826 636.163 33.2226 635.73 33.4492 635.25C33.6826 634.77 33.7992 634.247 33.7992 633.68V633.4ZM31.0992 633.4H34.0892V634.08H31.0992V633.4ZM43.5584 635.01H45.2584V635.7H43.5584V635.01ZM46.7284 632.73H47.5184V639.52H46.7284V632.73ZM44.9584 632.91H45.7484V639.26H44.9584V632.91ZM41.6184 640.9H47.7884V641.58H41.6184V640.9ZM41.6184 638.69H42.4484V641.27H41.6184V638.69ZM41.7684 633.37H42.4284V634.7C42.4284 635.167 42.3484 635.63 42.1884 636.09C42.0284 636.55 41.7951 636.97 41.4884 637.35C41.1818 637.723 40.8118 638.013 40.3784 638.22L39.9184 637.59C40.3051 637.397 40.6351 637.143 40.9084 636.83C41.1884 636.517 41.4018 636.173 41.5484 635.8C41.6951 635.427 41.7684 635.06 41.7684 634.7V633.37ZM41.9184 633.37H42.5684V634.7C42.5684 635.053 42.6351 635.403 42.7684 635.75C42.9084 636.09 43.1118 636.4 43.3784 636.68C43.6451 636.96 43.9651 637.183 44.3384 637.35L43.8784 637.99C43.4584 637.797 43.1018 637.53 42.8084 637.19C42.5151 636.85 42.2918 636.467 42.1384 636.04C41.9918 635.607 41.9184 635.16 41.9184 634.7V633.37ZM55.7177 632.73H56.5377V641.79H55.7177V632.73ZM53.8477 636.14H55.8477V636.82H53.8477V636.14ZM49.5177 638.93H50.1977C50.771 638.93 51.281 638.923 51.7277 638.91C52.1743 638.897 52.5977 638.87 52.9977 638.83C53.4043 638.79 53.8177 638.733 54.2377 638.66L54.3277 639.34C53.8943 639.413 53.471 639.47 53.0577 639.51C52.6443 639.55 52.2077 639.58 51.7477 639.6C51.2943 639.613 50.7777 639.62 50.1977 639.62H49.5177V638.93ZM49.5177 633.56H53.6977V634.24H50.3377V639.16H49.5177V633.56ZM50.1277 636.1H53.2977V636.77H50.1277V636.1ZM67.6894 632.73H68.5194V637.41H67.6894V632.73ZM62.6694 637.87H68.5194V640.05H63.4994V641.29H62.6994V639.42H67.6994V638.53H62.6694V637.87ZM62.6994 641.01H68.8294V641.68H62.6994V641.01ZM63.4594 632.99H64.1494V633.68C64.1494 634.24 64.0427 634.763 63.8294 635.25C63.616 635.737 63.316 636.16 62.9294 636.52C62.5427 636.873 62.096 637.143 61.5894 637.33L61.1694 636.67C61.5094 636.55 61.8194 636.39 62.0994 636.19C62.3794 635.99 62.6194 635.76 62.8194 635.5C63.026 635.233 63.1827 634.947 63.2894 634.64C63.4027 634.333 63.4594 634.013 63.4594 633.68V632.99ZM63.6094 632.99H64.2994V633.68C64.2994 633.993 64.3527 634.297 64.4594 634.59C64.5727 634.883 64.7294 635.153 64.9294 635.4C65.136 635.647 65.3794 635.867 65.6594 636.06C65.9394 636.247 66.246 636.397 66.5794 636.51L66.1694 637.16C65.7894 637.027 65.4427 636.85 65.1294 636.63C64.816 636.403 64.546 636.14 64.3194 635.84C64.0927 635.533 63.916 635.2 63.7894 634.84C63.6694 634.473 63.6094 634.087 63.6094 633.68V632.99ZM72.6886 633.51H73.3786V635.13C73.3786 635.65 73.3119 636.157 73.1786 636.65C73.0519 637.137 72.8686 637.593 72.6286 638.02C72.3953 638.44 72.1186 638.813 71.7986 639.14C71.4853 639.46 71.1419 639.713 70.7686 639.9L70.2586 639.21C70.5986 639.057 70.9153 638.837 71.2086 638.55C71.5019 638.263 71.7586 637.94 71.9786 637.58C72.1986 637.213 72.3719 636.82 72.4986 636.4C72.6253 635.98 72.6886 635.557 72.6886 635.13V633.51ZM72.8286 633.51H73.5186V635.13C73.5186 635.543 73.5786 635.95 73.6986 636.35C73.8253 636.75 73.9986 637.13 74.2186 637.49C74.4453 637.843 74.7019 638.157 74.9886 638.43C75.2819 638.697 75.5953 638.907 75.9286 639.06L75.4286 639.72C75.0619 639.547 74.7219 639.303 74.4086 638.99C74.0953 638.677 73.8186 638.317 73.5786 637.91C73.3453 637.503 73.1619 637.063 73.0286 636.59C72.8953 636.117 72.8286 635.63 72.8286 635.13V633.51ZM76.8786 632.73H77.7086V641.79H76.8786V632.73ZM85.6878 632.73H86.5278V639.34H85.6878V632.73ZM86.2678 635.47H87.8578V636.17H86.2678V635.47ZM83.2178 633.43H84.0978C84.0978 634.21 83.9245 634.917 83.5778 635.55C83.2378 636.183 82.7511 636.733 82.1178 637.2C81.4845 637.667 80.7345 638.037 79.8678 638.31L79.5178 637.64C80.2778 637.4 80.9345 637.09 81.4878 636.71C82.0411 636.33 82.4678 635.893 82.7678 635.4C83.0678 634.907 83.2178 634.373 83.2178 633.8V633.43ZM79.8878 633.43H83.6478V634.12H79.8878V633.43ZM80.8878 640.9H86.9178V641.58H80.8878V640.9ZM80.8878 638.67H81.7178V641.17H80.8878V638.67ZM93.3695 635.04H94.0095V635.51C94.0095 635.957 93.9629 636.4 93.8695 636.84C93.7762 637.273 93.6395 637.687 93.4595 638.08C93.2862 638.473 93.0695 638.827 92.8095 639.14C92.5562 639.453 92.2629 639.707 91.9295 639.9L91.4395 639.27C91.7395 639.09 92.0095 638.863 92.2495 638.59C92.4895 638.317 92.6929 638.013 92.8595 637.68C93.0262 637.34 93.1529 636.987 93.2395 636.62C93.3262 636.247 93.3695 635.877 93.3695 635.51V635.04ZM93.5195 635.04H94.1595V635.51C94.1595 635.863 94.2029 636.22 94.2895 636.58C94.3762 636.933 94.5029 637.27 94.6695 637.59C94.8429 637.903 95.0462 638.19 95.2795 638.45C95.5195 638.703 95.7929 638.913 96.0995 639.08L95.6195 639.7C95.1795 639.453 94.8029 639.113 94.4895 638.68C94.1762 638.247 93.9362 637.757 93.7695 637.21C93.6029 636.657 93.5195 636.09 93.5195 635.51V635.04ZM91.6595 634.41H95.8595V635.1H91.6595V634.41ZM93.3695 633.06H94.1595V634.92H93.3695V633.06ZM98.4295 632.73H99.2295V641.78H98.4295V632.73ZM96.9995 636.38H98.7395V637.08H96.9995V636.38ZM96.4595 632.92H97.2495V641.32H96.4595V632.92ZM101.239 637.02H101.969C102.622 637.02 103.189 637.017 103.669 637.01C104.155 636.997 104.605 636.97 105.019 636.93C105.432 636.89 105.849 636.837 106.269 636.77L106.359 637.44C105.919 637.507 105.489 637.56 105.069 637.6C104.649 637.64 104.192 637.667 103.699 637.68C103.205 637.693 102.629 637.7 101.969 637.7H101.239V637.02ZM101.239 633.4H105.539V634.07H102.069V637.36H101.239V633.4ZM101.799 635.19H105.289V635.85H101.799V635.19ZM107.299 632.74H108.129V638.33H107.299V632.74ZM105.139 638.47C105.772 638.47 106.312 638.537 106.759 638.67C107.212 638.797 107.562 638.98 107.809 639.22C108.055 639.46 108.179 639.757 108.179 640.11C108.179 640.63 107.909 641.033 107.369 641.32C106.829 641.613 106.085 641.76 105.139 641.76C104.199 641.76 103.459 641.613 102.919 641.32C102.379 641.033 102.109 640.63 102.109 640.11C102.109 639.59 102.379 639.187 102.919 638.9C103.459 638.613 104.199 638.47 105.139 638.47ZM105.139 639.12C104.685 639.12 104.292 639.16 103.959 639.24C103.625 639.32 103.369 639.433 103.189 639.58C103.015 639.727 102.929 639.903 102.929 640.11C102.929 640.317 103.015 640.497 103.189 640.65C103.369 640.797 103.625 640.91 103.959 640.99C104.292 641.07 104.685 641.11 105.139 641.11C105.599 641.11 105.992 641.07 106.319 640.99C106.652 640.91 106.905 640.797 107.079 640.65C107.259 640.497 107.349 640.317 107.349 640.11C107.349 639.903 107.259 639.727 107.079 639.58C106.905 639.433 106.652 639.32 106.319 639.24C105.992 639.16 105.599 639.12 105.139 639.12ZM114.93 633.2H115.61V634.12C115.61 634.7 115.507 635.24 115.3 635.74C115.1 636.24 114.814 636.677 114.44 637.05C114.067 637.417 113.63 637.697 113.13 637.89L112.68 637.23C113.14 637.063 113.537 636.823 113.87 636.51C114.21 636.197 114.47 635.837 114.65 635.43C114.837 635.017 114.93 634.58 114.93 634.12V633.2ZM115.08 633.2H115.75V634.19C115.75 634.49 115.804 634.787 115.91 635.08C116.017 635.367 116.167 635.633 116.36 635.88C116.56 636.127 116.794 636.347 117.06 636.54C117.327 636.727 117.624 636.877 117.95 636.99L117.51 637.64C117.03 637.46 116.607 637.2 116.24 636.86C115.874 636.513 115.587 636.113 115.38 635.66C115.18 635.2 115.08 634.71 115.08 634.19V633.2ZM118.92 632.73H119.75V638.22H118.92V632.73ZM119.52 635.07H121.08V635.77H119.52V635.07ZM116.87 638.46C117.484 638.46 118.01 638.527 118.45 638.66C118.897 638.787 119.24 638.973 119.48 639.22C119.72 639.467 119.84 639.763 119.84 640.11C119.84 640.457 119.72 640.753 119.48 641C119.24 641.247 118.897 641.433 118.45 641.56C118.01 641.693 117.484 641.76 116.87 641.76C116.257 641.76 115.727 641.693 115.28 641.56C114.834 641.433 114.49 641.247 114.25 641C114.01 640.753 113.89 640.457 113.89 640.11C113.89 639.763 114.01 639.467 114.25 639.22C114.49 638.973 114.834 638.787 115.28 638.66C115.727 638.527 116.257 638.46 116.87 638.46ZM116.87 639.12C116.424 639.12 116.037 639.16 115.71 639.24C115.39 639.32 115.144 639.433 114.97 639.58C114.797 639.727 114.71 639.903 114.71 640.11C114.71 640.323 114.797 640.503 114.97 640.65C115.144 640.797 115.39 640.91 115.71 640.99C116.037 641.063 116.424 641.1 116.87 641.1C117.317 641.1 117.7 641.063 118.02 640.99C118.34 640.91 118.587 640.797 118.76 640.65C118.934 640.503 119.02 640.323 119.02 640.11C119.02 639.903 118.934 639.727 118.76 639.58C118.587 639.433 118.34 639.32 118.02 639.24C117.7 639.16 117.317 639.12 116.87 639.12ZM128.12 632.73H128.95V637.85H128.12V632.73ZM128.72 634.94H130.28V635.63H128.72V634.94ZM122.35 636.66H123.05C123.67 636.66 124.213 636.653 124.68 636.64C125.146 636.62 125.576 636.59 125.97 636.55C126.363 636.503 126.76 636.44 127.16 636.36L127.26 637.03C126.84 637.117 126.426 637.183 126.02 637.23C125.62 637.277 125.183 637.307 124.71 637.32C124.236 637.333 123.683 637.34 123.05 637.34H122.35V636.66ZM122.35 633.34H126.32V634.01H123.17V637.05H122.35V633.34ZM123.27 638.33H128.95V641.65H123.27V638.33ZM128.13 639H124.08V640.98H128.13V639ZM140.061 632.73H140.891V641.78H140.061V632.73ZM140.701 636.29H142.371V637H140.701V636.29ZM134.301 633.5H135.121V635.88H137.691V633.5H138.511V639.61H134.301V633.5ZM135.121 636.54V638.92H137.691V636.54H135.121ZM143.141 639.97H151.341V640.66H143.141V639.97ZM146.811 638.04H147.631V640.26H146.811V638.04ZM144.141 633.4H150.321V636.14H144.981V637.95H144.161V635.48H149.501V634.08H144.141V633.4ZM144.161 637.6H150.531V638.28H144.161V637.6ZM158.46 632.73H159.29V641.77H158.46V632.73ZM159.07 636.4H160.73V637.09H159.07V636.4ZM156.15 633.7H156.96C156.96 634.56 156.82 635.383 156.54 636.17C156.26 636.95 155.82 637.673 155.22 638.34C154.62 639 153.83 639.573 152.85 640.06L152.39 639.42C153.23 639 153.927 638.51 154.48 637.95C155.04 637.383 155.457 636.757 155.73 636.07C156.01 635.377 156.15 634.63 156.15 633.83V633.7ZM152.81 633.7H156.57V634.39H152.81V633.7ZM168.129 632.73H168.959V641.78H168.129V632.73ZM165.479 633.71H166.299C166.299 634.363 166.219 634.993 166.059 635.6C165.906 636.207 165.662 636.783 165.329 637.33C164.996 637.87 164.562 638.373 164.029 638.84C163.496 639.307 162.849 639.723 162.089 640.09L161.649 639.42C162.522 639 163.242 638.51 163.809 637.95C164.376 637.39 164.796 636.767 165.069 636.08C165.342 635.387 165.479 634.64 165.479 633.84V633.71ZM162.069 633.71H165.829V634.38H162.069V633.71Z" fill="black"/>
<path d="M177 641L180.293 637.707C180.479 637.518 180.583 637.264 180.583 637C180.583 636.736 180.479 636.482 180.293 636.293L177 633" stroke="#1A1A1A" stroke-linecap="round" stroke-linejoin="round"/>
<path d="M25.496 648.68H27.048V649.216H25.496V648.68ZM25.496 649.976H27.048V650.52H25.496V649.976ZM21.616 647.928H25.424V648.472H21.616V647.928ZM21.496 651.424L21.416 650.864C21.816 650.864 22.256 650.861 22.736 650.856C23.2213 650.845 23.7147 650.827 24.216 650.8C24.7173 650.773 25.1947 650.733 25.648 650.68L25.68 651.176C25.2213 651.251 24.7413 651.307 24.24 651.344C23.744 651.376 23.2587 651.397 22.784 651.408C22.3147 651.419 21.8853 651.424 21.496 651.424ZM22.328 648.36H22.976V651.04H22.328V648.36ZM24.064 648.36H24.704V651.04H24.064V648.36ZM26.688 647.384H27.352V651.848H26.688V647.384ZM24.968 652C25.72 652 26.3093 652.112 26.736 652.336C27.1627 652.56 27.376 652.883 27.376 653.304C27.376 653.715 27.1627 654.035 26.736 654.264C26.3093 654.493 25.72 654.608 24.968 654.608C24.2213 654.608 23.632 654.493 23.2 654.264C22.7733 654.035 22.56 653.715 22.56 653.304C22.56 652.883 22.7733 652.56 23.2 652.336C23.632 652.112 24.2213 652 24.968 652ZM24.968 652.52C24.6053 652.52 24.2907 652.552 24.024 652.616C23.7627 652.675 23.5627 652.763 23.424 652.88C23.2853 652.997 23.216 653.139 23.216 653.304C23.216 653.549 23.3707 653.741 23.68 653.88C23.9893 654.019 24.4187 654.088 24.968 654.088C25.336 654.088 25.6507 654.059 25.912 654C26.1733 653.936 26.3733 653.845 26.512 653.728C26.6507 653.611 26.72 653.469 26.72 653.304C26.72 653.139 26.6507 652.997 26.512 652.88C26.3733 652.763 26.1733 652.675 25.912 652.616C25.6507 652.552 25.336 652.52 24.968 652.52ZM30.7914 647.648C31.154 647.648 31.474 647.717 31.7514 647.856C32.034 647.989 32.2554 648.176 32.4154 648.416C32.5754 648.656 32.6554 648.936 32.6554 649.256C32.6554 649.571 32.5754 649.851 32.4154 650.096C32.2554 650.336 32.034 650.523 31.7514 650.656C31.474 650.789 31.154 650.856 30.7914 650.856C30.434 650.856 30.114 650.789 29.8314 650.656C29.5487 650.523 29.3247 650.336 29.1594 650.096C28.9994 649.851 28.9194 649.571 28.9194 649.256C28.9194 648.936 28.9994 648.656 29.1594 648.416C29.3247 648.176 29.5487 647.989 29.8314 647.856C30.114 647.717 30.434 647.648 30.7914 647.648ZM30.7914 648.2C30.5567 648.2 30.346 648.245 30.1594 648.336C29.978 648.421 29.834 648.544 29.7274 648.704C29.6207 648.864 29.5674 649.048 29.5674 649.256C29.5674 649.464 29.6207 649.648 29.7274 649.808C29.834 649.963 29.978 650.085 30.1594 650.176C30.346 650.267 30.5567 650.312 30.7914 650.312C31.026 650.312 31.234 650.267 31.4154 650.176C31.602 650.085 31.7487 649.963 31.8554 649.808C31.962 649.648 32.0154 649.464 32.0154 649.256C32.0154 649.048 31.962 648.864 31.8554 648.704C31.7487 648.544 31.602 648.421 31.4154 648.336C31.234 648.245 31.026 648.2 30.7914 648.2ZM34.0234 647.384H34.6874V651.088H34.0234V647.384ZM30.0074 651.448H34.6874V653.2H30.6714V654.288H30.0314V652.704H34.0314V651.976H30.0074V651.448ZM30.0314 653.992H34.9354V654.528H30.0314V653.992ZM40.4688 654.08C40.0407 654.08 39.6761 653.963 39.375 653.73C39.0739 653.495 38.8438 653.155 38.6847 652.71C38.5256 652.263 38.446 651.723 38.446 651.091C38.446 650.462 38.5256 649.925 38.6847 649.48C38.8456 649.033 39.0767 648.692 39.3778 648.457C39.6809 648.221 40.0445 648.102 40.4688 648.102C40.893 648.102 41.2557 648.221 41.5568 648.457C41.8598 648.692 42.0909 649.033 42.25 649.48C42.411 649.925 42.4915 650.462 42.4915 651.091C42.4915 651.723 42.4119 652.263 42.2528 652.71C42.0938 653.155 41.8636 653.495 41.5625 653.73C41.2614 653.963 40.8968 654.08 40.4688 654.08ZM40.4688 653.455C40.893 653.455 41.2225 653.25 41.4574 652.841C41.6922 652.432 41.8097 651.848 41.8097 651.091C41.8097 650.587 41.7557 650.158 41.6477 649.804C41.5417 649.45 41.3883 649.18 41.1875 648.994C40.9886 648.809 40.7491 648.716 40.4688 648.716C40.0483 648.716 39.7197 648.923 39.483 649.338C39.2462 649.751 39.1278 650.335 39.1278 651.091C39.1278 651.595 39.1809 652.023 39.2869 652.375C39.393 652.727 39.5455 652.995 39.7443 653.179C39.9451 653.363 40.1866 653.455 40.4688 653.455ZM45.4233 648.102C45.6619 648.104 45.9006 648.15 46.1392 648.239C46.3778 648.328 46.5956 648.475 46.7926 648.682C46.9896 648.886 47.1477 649.166 47.267 649.52C47.3864 649.874 47.446 650.318 47.446 650.852C47.446 651.369 47.3968 651.829 47.2983 652.23C47.2017 652.63 47.0616 652.967 46.8778 653.241C46.696 653.516 46.4744 653.724 46.2131 653.866C45.9536 654.009 45.66 654.08 45.3324 654.08C45.0066 654.08 44.7159 654.015 44.4602 653.886C44.2064 653.756 43.9981 653.575 43.8352 653.344C43.6742 653.111 43.571 652.841 43.5256 652.534H44.2188C44.2812 652.801 44.4053 653.022 44.5909 653.196C44.7784 653.368 45.0256 653.455 45.3324 653.455C45.7813 653.455 46.1354 653.259 46.3949 652.866C46.6563 652.474 46.7869 651.92 46.7869 651.205H46.7415C46.6354 651.364 46.5095 651.501 46.3636 651.616C46.2178 651.732 46.0559 651.821 45.8778 651.884C45.6998 651.946 45.5104 651.977 45.3097 651.977C44.9763 651.977 44.6705 651.895 44.392 651.73C44.1155 651.563 43.8939 651.335 43.7273 651.045C43.5625 650.754 43.4801 650.42 43.4801 650.045C43.4801 649.689 43.5597 649.364 43.7188 649.068C43.8797 648.771 44.1051 648.534 44.3949 648.358C44.6866 648.182 45.0294 648.097 45.4233 648.102ZM45.4233 648.727C45.1847 648.727 44.9697 648.787 44.7784 648.906C44.589 649.024 44.4384 649.183 44.3267 649.384C44.2169 649.582 44.1619 649.803 44.1619 650.045C44.1619 650.288 44.215 650.509 44.321 650.707C44.429 650.904 44.5758 651.062 44.7614 651.179C44.9489 651.295 45.1619 651.352 45.4006 651.352C45.5805 651.352 45.7481 651.317 45.9034 651.247C46.0587 651.175 46.1941 651.078 46.3097 650.955C46.4271 650.83 46.5189 650.688 46.5852 650.531C46.6515 650.372 46.6847 650.206 46.6847 650.034C46.6847 649.807 46.6297 649.594 46.5199 649.395C46.4119 649.196 46.2623 649.035 46.071 648.912C45.8816 648.789 45.6657 648.727 45.4233 648.727ZM49.0632 653.256C48.9231 653.256 48.8028 653.205 48.7024 653.105C48.602 653.005 48.5518 652.884 48.5518 652.744C48.5518 652.604 48.602 652.484 48.7024 652.384C48.8028 652.283 48.9231 652.233 49.0632 652.233C49.2034 652.233 49.3236 652.283 49.424 652.384C49.5244 652.484 49.5746 652.604 49.5746 652.744C49.5746 652.837 49.5509 652.922 49.5036 653C49.4581 653.078 49.3965 653.14 49.3189 653.188C49.2431 653.233 49.1579 653.256 49.0632 653.256ZM49.0632 650.312C48.9231 650.312 48.8028 650.262 48.7024 650.162C48.602 650.062 48.5518 649.941 48.5518 649.801C48.5518 649.661 48.602 649.541 48.7024 649.44C48.8028 649.34 48.9231 649.29 49.0632 649.29C49.2034 649.29 49.3236 649.34 49.424 649.44C49.5244 649.541 49.5746 649.661 49.5746 649.801C49.5746 649.894 49.5509 649.979 49.5036 650.057C49.4581 650.134 49.3965 650.197 49.3189 650.244C49.2431 650.29 49.1579 650.312 49.0632 650.312ZM52.6641 654.08C52.236 654.08 51.8714 653.963 51.5703 653.73C51.2692 653.495 51.0391 653.155 50.88 652.71C50.7209 652.263 50.6413 651.723 50.6413 651.091C50.6413 650.462 50.7209 649.925 50.88 649.48C51.041 649.033 51.272 648.692 51.5732 648.457C51.8762 648.221 52.2398 648.102 52.6641 648.102C53.0883 648.102 53.451 648.221 53.7521 648.457C54.0552 648.692 54.2862 649.033 54.4453 649.48C54.6063 649.925 54.6868 650.462 54.6868 651.091C54.6868 651.723 54.6072 652.263 54.4482 652.71C54.2891 653.155 54.0589 653.495 53.7578 653.73C53.4567 653.963 53.0921 654.08 52.6641 654.08ZM52.6641 653.455C53.0883 653.455 53.4179 653.25 53.6527 652.841C53.8875 652.432 54.005 651.848 54.005 651.091C54.005 650.587 53.951 650.158 53.843 649.804C53.737 649.45 53.5836 649.18 53.3828 648.994C53.1839 648.809 52.9444 648.716 52.6641 648.716C52.2436 648.716 51.915 648.923 51.6783 649.338C51.4415 649.751 51.3232 650.335 51.3232 651.091C51.3232 651.595 51.3762 652.023 51.4822 652.375C51.5883 652.727 51.7408 652.995 51.9396 653.179C52.1404 653.363 52.3819 653.455 52.6641 653.455ZM57.6641 654.08C57.236 654.08 56.8714 653.963 56.5703 653.73C56.2692 653.495 56.0391 653.155 55.88 652.71C55.7209 652.263 55.6413 651.723 55.6413 651.091C55.6413 650.462 55.7209 649.925 55.88 649.48C56.041 649.033 56.272 648.692 56.5732 648.457C56.8762 648.221 57.2398 648.102 57.6641 648.102C58.0883 648.102 58.451 648.221 58.7521 648.457C59.0552 648.692 59.2862 649.033 59.4453 649.48C59.6063 649.925 59.6868 650.462 59.6868 651.091C59.6868 651.723 59.6072 652.263 59.4482 652.71C59.2891 653.155 59.0589 653.495 58.7578 653.73C58.4567 653.963 58.0921 654.08 57.6641 654.08ZM57.6641 653.455C58.0883 653.455 58.4179 653.25 58.6527 652.841C58.8875 652.432 59.005 651.848 59.005 651.091C59.005 650.587 58.951 650.158 58.843 649.804C58.737 649.45 58.5836 649.18 58.3828 648.994C58.1839 648.809 57.9444 648.716 57.6641 648.716C57.2436 648.716 56.915 648.923 56.6783 649.338C56.4415 649.751 56.3232 650.335 56.3232 651.091C56.3232 651.595 56.3762 652.023 56.4822 652.375C56.5883 652.727 56.7408 652.995 56.9396 653.179C57.1404 653.363 57.3819 653.455 57.6641 653.455ZM65.5277 650.778V651.403H62.9822V650.778H65.5277ZM70.9915 648.182V654H70.2869V648.92H70.2528L68.8324 649.864V649.148L70.2869 648.182H70.9915ZM74.5284 654.08C74.1383 654.08 73.7936 654.01 73.4943 653.872C73.197 653.732 72.965 653.54 72.7983 653.295C72.6316 653.049 72.5492 652.769 72.5511 652.455C72.5492 652.208 72.5975 651.981 72.696 651.773C72.7945 651.562 72.929 651.387 73.0994 651.247C73.2718 651.105 73.464 651.015 73.6761 650.977V650.943C73.3977 650.871 73.1761 650.715 73.0114 650.474C72.8466 650.232 72.7652 649.956 72.767 649.648C72.7652 649.352 72.84 649.088 72.9915 648.855C73.143 648.622 73.3513 648.438 73.6165 648.304C73.8835 648.17 74.1875 648.102 74.5284 648.102C74.8655 648.102 75.1667 648.17 75.4318 648.304C75.697 648.438 75.9053 648.622 76.0568 648.855C76.2102 649.088 76.2879 649.352 76.2898 649.648C76.2879 649.956 76.2036 650.232 76.0369 650.474C75.8722 650.715 75.6534 650.871 75.3807 650.943V650.977C75.5909 651.015 75.7803 651.105 75.9489 651.247C76.1174 651.387 76.2519 651.562 76.3523 651.773C76.4527 651.981 76.5038 652.208 76.5057 652.455C76.5038 652.769 76.4186 653.049 76.25 653.295C76.0833 653.54 75.8513 653.732 75.554 653.872C75.2585 654.01 74.9167 654.08 74.5284 654.08ZM74.5284 653.455C74.7917 653.455 75.0189 653.412 75.2102 653.327C75.4015 653.241 75.5492 653.121 75.6534 652.966C75.7576 652.811 75.8106 652.629 75.8125 652.42C75.8106 652.201 75.7538 652.007 75.642 651.838C75.5303 651.67 75.3778 651.537 75.1847 651.44C74.9934 651.344 74.7746 651.295 74.5284 651.295C74.2803 651.295 74.0587 651.344 73.8636 651.44C73.6705 651.537 73.518 651.67 73.4062 651.838C73.2964 652.007 73.2424 652.201 73.2443 652.42C73.2424 652.629 73.2926 652.811 73.3949 652.966C73.4991 653.121 73.6477 653.241 73.8409 653.327C74.0341 653.412 74.2633 653.455 74.5284 653.455ZM74.5284 650.693C74.7367 650.693 74.9214 650.652 75.0824 650.568C75.2453 650.485 75.3731 650.368 75.4659 650.219C75.5587 650.069 75.6061 649.894 75.608 649.693C75.6061 649.496 75.5597 649.325 75.4688 649.179C75.3778 649.031 75.2519 648.918 75.0909 648.838C74.9299 648.757 74.7424 648.716 74.5284 648.716C74.3106 648.716 74.1203 648.757 73.9574 648.838C73.7945 648.918 73.6686 649.031 73.5795 649.179C73.4905 649.325 73.447 649.496 73.4489 649.693C73.447 649.894 73.4915 650.069 73.5824 650.219C73.6752 650.368 73.803 650.485 73.9659 650.568C74.1288 650.652 74.3163 650.693 74.5284 650.693ZM78.0945 653.256C77.9543 653.256 77.834 653.205 77.7337 653.105C77.6333 653.005 77.5831 652.884 77.5831 652.744C77.5831 652.604 77.6333 652.484 77.7337 652.384C77.834 652.283 77.9543 652.233 78.0945 652.233C78.2346 652.233 78.3549 652.283 78.4553 652.384C78.5556 652.484 78.6058 652.604 78.6058 652.744C78.6058 652.837 78.5821 652.922 78.5348 653C78.4893 653.078 78.4278 653.14 78.3501 653.188C78.2744 653.233 78.1892 653.256 78.0945 653.256ZM78.0945 650.312C77.9543 650.312 77.834 650.262 77.7337 650.162C77.6333 650.062 77.5831 649.941 77.5831 649.801C77.5831 649.661 77.6333 649.541 77.7337 649.44C77.834 649.34 77.9543 649.29 78.0945 649.29C78.2346 649.29 78.3549 649.34 78.4553 649.44C78.5556 649.541 78.6058 649.661 78.6058 649.801C78.6058 649.894 78.5821 649.979 78.5348 650.057C78.4893 650.134 78.4278 650.197 78.3501 650.244C78.2744 650.29 78.1892 650.312 78.0945 650.312ZM81.6953 654.08C81.2673 654.08 80.9027 653.963 80.6016 653.73C80.3004 653.495 80.0703 653.155 79.9112 652.71C79.7521 652.263 79.6726 651.723 79.6726 651.091C79.6726 650.462 79.7521 649.925 79.9112 649.48C80.0722 649.033 80.3033 648.692 80.6044 648.457C80.9074 648.221 81.2711 648.102 81.6953 648.102C82.1196 648.102 82.4822 648.221 82.7834 648.457C83.0864 648.692 83.3175 649.033 83.4766 649.48C83.6375 649.925 83.718 650.462 83.718 651.091C83.718 651.723 83.6385 652.263 83.4794 652.71C83.3203 653.155 83.0902 653.495 82.7891 653.73C82.4879 653.963 82.1233 654.08 81.6953 654.08ZM81.6953 653.455C82.1196 653.455 82.4491 653.25 82.6839 652.841C82.9188 652.432 83.0362 651.848 83.0362 651.091C83.0362 650.587 82.9822 650.158 82.8743 649.804C82.7682 649.45 82.6148 649.18 82.4141 648.994C82.2152 648.809 81.9756 648.716 81.6953 648.716C81.2749 648.716 80.9463 648.923 80.7095 649.338C80.4728 649.751 80.3544 650.335 80.3544 651.091C80.3544 651.595 80.4074 652.023 80.5135 652.375C80.6196 652.727 80.772 652.995 80.9709 653.179C81.1716 653.363 81.4131 653.455 81.6953 653.455ZM86.6953 654.08C86.2673 654.08 85.9027 653.963 85.6016 653.73C85.3004 653.495 85.0703 653.155 84.9112 652.71C84.7521 652.263 84.6726 651.723 84.6726 651.091C84.6726 650.462 84.7521 649.925 84.9112 649.48C85.0722 649.033 85.3033 648.692 85.6044 648.457C85.9074 648.221 86.2711 648.102 86.6953 648.102C87.1196 648.102 87.4822 648.221 87.7834 648.457C88.0864 648.692 88.3175 649.033 88.4766 649.48C88.6375 649.925 88.718 650.462 88.718 651.091C88.718 651.723 88.6385 652.263 88.4794 652.71C88.3203 653.155 88.0902 653.495 87.7891 653.73C87.4879 653.963 87.1233 654.08 86.6953 654.08ZM86.6953 653.455C87.1196 653.455 87.4491 653.25 87.6839 652.841C87.9188 652.432 88.0362 651.848 88.0362 651.091C88.0362 650.587 87.9822 650.158 87.8743 649.804C87.7682 649.45 87.6148 649.18 87.4141 648.994C87.2152 648.809 86.9756 648.716 86.6953 648.716C86.2749 648.716 85.9463 648.923 85.7095 649.338C85.4728 649.751 85.3544 650.335 85.3544 651.091C85.3544 651.595 85.4074 652.023 85.5135 652.375C85.6196 652.727 85.772 652.995 85.9709 653.179C86.1716 653.363 86.4131 653.455 86.6953 653.455Z" fill="#7E7E7E"/>
<path d="M22.125 698.501C22.125 697.445 22.2656 696.472 22.5469 695.582C22.831 694.693 23.2642 693.869 23.8466 693.111H25.581C25.3594 693.392 25.1534 693.736 24.9631 694.142C24.7727 694.545 24.6065 694.989 24.4645 695.472C24.3224 695.955 24.2116 696.455 24.1321 696.972C24.0526 697.486 24.0128 697.996 24.0128 698.501C24.0128 699.175 24.081 699.855 24.2173 700.543C24.3565 701.227 24.544 701.864 24.7798 702.452C25.0185 703.04 25.2855 703.521 25.581 703.896H23.8466C23.2642 703.138 22.831 702.314 22.5469 701.425C22.2656 700.536 22.125 699.561 22.125 698.501ZM30.5062 693.18H31.8982V693.516C31.8982 693.9 31.8342 694.272 31.7062 694.632C31.5862 694.992 31.4022 695.328 31.1542 695.64C30.9062 695.944 30.6022 696.22 30.2422 696.468C29.8902 696.708 29.4822 696.912 29.0182 697.08C28.5542 697.248 28.0382 697.368 27.4702 697.44L26.8822 696.204C27.3782 696.14 27.8182 696.044 28.2022 695.916C28.5942 695.78 28.9342 695.624 29.2222 695.448C29.5102 695.264 29.7502 695.068 29.9422 694.86C30.1342 694.652 30.2742 694.432 30.3622 694.2C30.4582 693.968 30.5062 693.74 30.5062 693.516V693.18ZM30.9742 693.18H32.3542V693.516C32.3542 693.74 32.3982 693.968 32.4862 694.2C32.5822 694.432 32.7262 694.652 32.9182 694.86C33.1102 695.068 33.3502 695.264 33.6382 695.448C33.9342 695.624 34.2742 695.78 34.6582 695.916C35.0422 696.044 35.4822 696.14 35.9782 696.204L35.3902 697.44C34.8222 697.368 34.3062 697.248 33.8422 697.08C33.3782 696.912 32.9662 696.708 32.6062 696.468C32.2542 696.22 31.9542 695.944 31.7062 695.64C31.4662 695.328 31.2822 694.992 31.1542 694.632C31.0342 694.272 30.9742 693.9 30.9742 693.516V693.18ZM30.5902 699H32.1862V703.068H30.5902V699ZM26.4022 698.076H36.4582V699.36H26.4022V698.076ZM27.2902 692.52H35.5342V693.78H27.2902V692.52ZM40.7333 698.501C40.7333 699.561 40.5913 700.536 40.3072 701.425C40.0259 702.314 39.5941 703.138 39.0117 703.896H37.2773C37.4989 703.615 37.7049 703.271 37.8952 702.865C38.0856 702.459 38.2518 702.016 38.3938 701.536C38.5359 701.053 38.6467 700.553 38.7262 700.036C38.8058 699.518 38.8455 699.007 38.8455 698.501C38.8455 697.828 38.7759 697.149 38.6367 696.464C38.5004 695.777 38.3129 695.141 38.0742 694.555C37.8384 693.967 37.5728 693.486 37.2773 693.111H39.0117C39.5941 693.869 40.0259 694.693 40.3072 695.582C40.5913 696.472 40.7333 697.445 40.7333 698.501ZM49.9714 691.932H51.5674V703.08H49.9714V691.932ZM42.8914 692.82H44.4754V695.532H46.7794V692.82H48.3634V700.488H42.8914V692.82ZM44.4754 696.768V699.216H46.7794V696.768H44.4754ZM56.0664 693.708H57.3384V694.956C57.3384 695.596 57.2704 696.224 57.1344 696.84C57.0064 697.456 56.8104 698.036 56.5464 698.58C56.2904 699.116 55.9664 699.592 55.5744 700.008C55.1824 700.416 54.7264 700.74 54.2064 700.98L53.2944 699.72C53.7584 699.504 54.1624 699.224 54.5064 698.88C54.8584 698.536 55.1464 698.152 55.3704 697.728C55.6024 697.296 55.7744 696.844 55.8864 696.372C56.0064 695.892 56.0664 695.42 56.0664 694.956V693.708ZM56.4144 693.708H57.6744V694.956C57.6744 695.396 57.7304 695.844 57.8424 696.3C57.9624 696.748 58.1344 697.176 58.3584 697.584C58.5824 697.984 58.8664 698.344 59.2104 698.664C59.5544 698.984 59.9624 699.24 60.4344 699.432L59.5584 700.704C59.0304 700.472 58.5704 700.16 58.1784 699.768C57.7864 699.376 57.4584 698.924 57.1944 698.412C56.9304 697.9 56.7344 697.352 56.6064 696.768C56.4784 696.176 56.4144 695.572 56.4144 694.956V693.708ZM53.7384 693.012H59.9784V694.332H53.7384V693.012ZM61.0104 691.956H62.6064V703.068H61.0104V691.956ZM68.8695 696.036H70.6935V697.32H68.8695V696.036ZM72.4455 691.944H73.9695V703.056H72.4455V691.944ZM70.1895 692.124H71.6775V702.564H70.1895V692.124ZM66.9255 692.724C67.4135 692.724 67.8375 692.888 68.1975 693.216C68.5655 693.536 68.8455 694 69.0375 694.608C69.2375 695.208 69.3375 695.928 69.3375 696.768C69.3375 697.6 69.2375 698.32 69.0375 698.928C68.8455 699.536 68.5655 700.004 68.1975 700.332C67.8375 700.652 67.4095 700.812 66.9135 700.812C66.4335 700.812 66.0095 700.652 65.6415 700.332C65.2815 700.004 65.0015 699.536 64.8015 698.928C64.6095 698.32 64.5135 697.6 64.5135 696.768C64.5135 695.928 64.6095 695.208 64.8015 694.608C65.0015 694 65.2815 693.536 65.6415 693.216C66.0095 692.888 66.4375 692.724 66.9255 692.724ZM66.9255 694.236C66.7255 694.236 66.5535 694.328 66.4095 694.512C66.2655 694.696 66.1535 694.976 66.0735 695.352C66.0015 695.72 65.9655 696.192 65.9655 696.768C65.9655 697.328 66.0015 697.796 66.0735 698.172C66.1535 698.548 66.2655 698.832 66.4095 699.024C66.5535 699.208 66.7255 699.3 66.9255 699.3C67.1255 699.3 67.2975 699.208 67.4415 699.024C67.5935 698.832 67.7055 698.548 67.7775 698.172C67.8495 697.796 67.8855 697.328 67.8855 696.768C67.8855 696.192 67.8495 695.72 67.7775 695.352C67.7055 694.976 67.5935 694.696 67.4415 694.512C67.2975 694.328 67.1255 694.236 66.9255 694.236ZM83.0886 691.932H84.6846V703.08H83.0886V691.932ZM78.6966 692.712C79.2646 692.712 79.7686 692.876 80.2086 693.204C80.6486 693.524 80.9926 693.984 81.2406 694.584C81.4966 695.176 81.6246 695.876 81.6246 696.684C81.6246 697.5 81.4966 698.208 81.2406 698.808C80.9926 699.4 80.6486 699.86 80.2086 700.188C79.7686 700.508 79.2646 700.668 78.6966 700.668C78.1366 700.668 77.6366 700.508 77.1966 700.188C76.7566 699.86 76.4086 699.4 76.1526 698.808C75.9046 698.208 75.7806 697.5 75.7806 696.684C75.7806 695.876 75.9046 695.176 76.1526 694.584C76.4086 693.984 76.7566 693.524 77.1966 693.204C77.6366 692.876 78.1366 692.712 78.6966 692.712ZM78.6966 694.164C78.4246 694.164 78.1846 694.26 77.9766 694.452C77.7686 694.644 77.6046 694.928 77.4846 695.304C77.3726 695.672 77.3166 696.132 77.3166 696.684C77.3166 697.228 77.3726 697.692 77.4846 698.076C77.6046 698.452 77.7686 698.736 77.9766 698.928C78.1846 699.12 78.4246 699.216 78.6966 699.216C78.9766 699.216 79.2206 699.12 79.4286 698.928C79.6366 698.736 79.7966 698.452 79.9086 698.076C80.0286 697.692 80.0886 697.228 80.0886 696.684C80.0886 696.132 80.0286 695.672 79.9086 695.304C79.7966 694.928 79.6366 694.644 79.4286 694.452C79.2206 694.26 78.9766 694.164 78.6966 694.164ZM94.1276 691.944H95.7356V703.056H94.1276V691.944ZM89.2316 694.836H90.5036V695.412C90.5036 695.996 90.4356 696.576 90.2996 697.152C90.1716 697.72 89.9756 698.256 89.7116 698.76C89.4556 699.264 89.1316 699.712 88.7396 700.104C88.3556 700.488 87.9116 700.792 87.4076 701.016L86.5556 699.78C87.0116 699.58 87.4036 699.32 87.7316 699C88.0676 698.672 88.3476 698.312 88.5716 697.92C88.7956 697.528 88.9596 697.116 89.0636 696.684C89.1756 696.252 89.2316 695.828 89.2316 695.412V694.836ZM89.5916 694.836H90.8276V695.412C90.8276 695.804 90.8836 696.208 90.9956 696.624C91.1076 697.04 91.2756 697.44 91.4996 697.824C91.7236 698.2 92.0036 698.544 92.3396 698.856C92.6836 699.16 93.0836 699.412 93.5396 699.612L92.6996 700.824C92.1876 700.616 91.7356 700.324 91.3436 699.948C90.9596 699.572 90.6356 699.14 90.3716 698.652C90.1076 698.164 89.9116 697.644 89.7836 697.092C89.6556 696.54 89.5916 695.98 89.5916 695.412V694.836ZM86.9276 693.756H93.0956V695.016H86.9276V693.756ZM89.2316 692.208H90.8396V694.416H89.2316V692.208ZM105.191 691.932H106.799V703.08H105.191V691.932ZM98.1467 699.192H99.1307C99.7867 699.192 100.407 699.184 100.991 699.168C101.575 699.144 102.147 699.108 102.707 699.06C103.267 699.004 103.839 698.924 104.423 698.82L104.591 700.104C103.695 700.264 102.811 700.372 101.939 700.428C101.075 700.476 100.139 700.5 99.1307 700.5H98.1467V699.192ZM98.1227 692.88H103.367V697.188H99.7667V699.684H98.1467V695.928H101.747V694.164H98.1227V692.88ZM113.11 695.988H115.078V697.272H113.11V695.988ZM108.898 699.336H109.666C110.186 699.336 110.654 699.332 111.07 699.324C111.486 699.316 111.882 699.296 112.258 699.264C112.642 699.224 113.038 699.172 113.446 699.108L113.566 700.392C113.158 700.464 112.754 700.516 112.354 700.548C111.954 700.58 111.538 700.6 111.106 700.608C110.674 700.616 110.194 700.62 109.666 700.62H108.898V699.336ZM108.898 693.168H113.026V694.44H110.422V699.804H108.898V693.168ZM109.978 696.156H112.606V697.392H109.978V696.156ZM116.614 691.944H118.126V703.056H116.614V691.944ZM114.31 692.148H115.798V702.576H114.31V692.148ZM122.745 692.268C123.321 692.268 123.829 692.38 124.269 692.604C124.717 692.82 125.069 693.12 125.325 693.504C125.589 693.88 125.721 694.316 125.721 694.812C125.721 695.308 125.589 695.748 125.325 696.132C125.069 696.508 124.717 696.804 124.269 697.02C123.829 697.236 123.321 697.344 122.745 697.344C122.185 697.344 121.681 697.236 121.233 697.02C120.785 696.804 120.429 696.508 120.165 696.132C119.909 695.748 119.781 695.308 119.781 694.812C119.781 694.316 119.909 693.876 120.165 693.492C120.429 693.108 120.785 692.808 121.233 692.592C121.681 692.376 122.185 692.268 122.745 692.268ZM122.757 693.564C122.485 693.564 122.241 693.616 122.025 693.72C121.809 693.816 121.637 693.956 121.509 694.14C121.389 694.324 121.329 694.548 121.329 694.812C121.329 695.076 121.389 695.304 121.509 695.496C121.637 695.68 121.805 695.82 122.013 695.916C122.229 696.012 122.477 696.06 122.757 696.06C123.029 696.06 123.269 696.012 123.477 695.916C123.693 695.82 123.861 695.68 123.981 695.496C124.109 695.304 124.173 695.076 124.173 694.812C124.173 694.548 124.109 694.324 123.981 694.14C123.861 693.956 123.693 693.816 123.477 693.72C123.261 693.616 123.021 693.564 122.757 693.564ZM127.257 691.956H128.853V697.512H127.257V691.956ZM121.449 697.968H128.853V701.004H123.033V702.36H121.461V699.852H127.269V699.192H121.449V697.968ZM121.461 701.7H129.129V702.948H121.461V701.7ZM135.937 692.808H137.221V694.416C137.221 695.104 137.161 695.776 137.041 696.432C136.921 697.08 136.733 697.684 136.477 698.244C136.229 698.804 135.913 699.304 135.529 699.744C135.145 700.176 134.693 700.52 134.173 700.776L133.213 699.492C133.685 699.276 134.089 698.988 134.425 698.628C134.769 698.268 135.053 697.86 135.277 697.404C135.501 696.948 135.665 696.468 135.769 695.964C135.881 695.452 135.937 694.936 135.937 694.416V692.808ZM136.249 692.808H137.533V694.416C137.533 694.92 137.581 695.416 137.677 695.904C137.781 696.392 137.937 696.856 138.145 697.296C138.361 697.728 138.629 698.116 138.949 698.46C139.269 698.804 139.653 699.088 140.101 699.312L139.129 700.584C138.633 700.328 138.201 699.992 137.833 699.576C137.473 699.152 137.177 698.668 136.945 698.124C136.713 697.572 136.537 696.984 136.417 696.36C136.305 695.728 136.249 695.08 136.249 694.416V692.808ZM140.533 691.956H142.141V703.068H140.533V691.956ZM141.793 696.228H143.749V697.548H141.793V696.228ZM150.096 694.404H152.88V695.688H150.096V694.404ZM147.54 692.412C148.1 692.412 148.6 692.528 149.04 692.76C149.488 692.984 149.84 693.296 150.096 693.696C150.352 694.088 150.48 694.544 150.48 695.064C150.48 695.576 150.352 696.032 150.096 696.432C149.84 696.832 149.488 697.148 149.04 697.38C148.6 697.604 148.1 697.716 147.54 697.716C146.988 697.716 146.488 697.604 146.04 697.38C145.6 697.148 145.252 696.832 144.996 696.432C144.74 696.032 144.612 695.576 144.612 695.064C144.612 694.544 144.74 694.088 144.996 693.696C145.252 693.296 145.6 692.984 146.04 692.76C146.488 692.528 146.988 692.412 147.54 692.412ZM147.54 693.732C147.268 693.732 147.024 693.784 146.808 693.888C146.6 693.992 146.436 694.144 146.316 694.344C146.196 694.544 146.136 694.784 146.136 695.064C146.136 695.336 146.196 695.572 146.316 695.772C146.436 695.972 146.6 696.124 146.808 696.228C147.024 696.332 147.268 696.384 147.54 696.384C147.812 696.384 148.052 696.332 148.26 696.228C148.476 696.124 148.644 695.972 148.764 695.772C148.884 695.572 148.944 695.336 148.944 695.064C148.944 694.784 148.884 694.544 148.764 694.344C148.644 694.144 148.476 693.992 148.26 693.888C148.052 693.784 147.812 693.732 147.54 693.732ZM152.172 691.956H153.78V697.92H152.172V691.956ZM146.4 698.412H147.984V699.456H152.196V698.412H153.78V702.948H146.4V698.412ZM147.984 700.68V701.676H152.196V700.68H147.984ZM158.003 693.708H159.263V694.956C159.263 695.572 159.195 696.188 159.059 696.804C158.931 697.42 158.739 698 158.483 698.544C158.227 699.08 157.903 699.56 157.511 699.984C157.127 700.408 156.679 700.74 156.167 700.98L155.267 699.72C155.731 699.504 156.131 699.22 156.467 698.868C156.811 698.516 157.095 698.124 157.319 697.692C157.551 697.26 157.723 696.812 157.835 696.348C157.947 695.876 158.003 695.412 158.003 694.956V693.708ZM158.339 693.708H159.599V694.956C159.599 695.372 159.655 695.8 159.767 696.24C159.879 696.68 160.043 697.104 160.259 697.512C160.483 697.92 160.763 698.292 161.099 698.628C161.443 698.956 161.843 699.224 162.299 699.432L161.411 700.704C160.899 700.464 160.451 700.144 160.067 699.744C159.691 699.336 159.371 698.876 159.107 698.364C158.851 697.844 158.659 697.296 158.531 696.72C158.403 696.136 158.339 695.548 158.339 694.956V693.708ZM155.699 693.012H161.807V694.332H155.699V693.012ZM162.611 691.956H164.219V703.068H162.611V691.956ZM163.871 696.192H165.827V697.5H163.871V696.192ZM175.36 694.632H177.472V695.928H175.36V694.632ZM177.028 691.956H178.636V698.556H177.028V691.956ZM174.868 698.796C175.652 698.796 176.328 698.88 176.896 699.048C177.464 699.216 177.9 699.46 178.204 699.78C178.516 700.1 178.672 700.484 178.672 700.932C178.672 701.62 178.332 702.148 177.652 702.516C176.972 702.892 176.044 703.08 174.868 703.08C173.692 703.08 172.764 702.892 172.084 702.516C171.404 702.148 171.064 701.62 171.064 700.932C171.064 700.484 171.216 700.1 171.52 699.78C171.832 699.46 172.272 699.216 172.84 699.048C173.408 698.88 174.084 698.796 174.868 698.796ZM174.868 700.008C174.388 700.008 173.984 700.044 173.656 700.116C173.328 700.18 173.076 700.28 172.9 700.416C172.732 700.552 172.648 700.724 172.648 700.932C172.648 701.14 172.732 701.316 172.9 701.46C173.076 701.596 173.328 701.7 173.656 701.772C173.984 701.836 174.388 701.868 174.868 701.868C175.348 701.868 175.752 701.836 176.08 701.772C176.408 701.7 176.656 701.596 176.824 701.46C176.992 701.316 177.076 701.14 177.076 700.932C177.076 700.724 176.992 700.552 176.824 700.416C176.656 700.28 176.408 700.18 176.08 700.116C175.752 700.044 175.348 700.008 174.868 700.008ZM171.904 693.06H173.2V693.768C173.2 694.472 173.088 695.144 172.864 695.784C172.64 696.424 172.296 696.988 171.832 697.476C171.376 697.956 170.792 698.316 170.08 698.556L169.276 697.296C169.732 697.144 170.124 696.94 170.452 696.684C170.788 696.428 171.06 696.144 171.268 695.832C171.484 695.512 171.644 695.176 171.748 694.824C171.852 694.472 171.904 694.12 171.904 693.768V693.06ZM172.24 693.06H173.512V693.756C173.512 694.196 173.6 694.628 173.776 695.052C173.952 695.476 174.224 695.86 174.592 696.204C174.968 696.548 175.448 696.82 176.032 697.02L175.252 698.268C174.564 698.036 173.996 697.696 173.548 697.248C173.108 696.792 172.78 696.264 172.564 695.664C172.348 695.056 172.24 694.42 172.24 693.756V693.06ZM169.708 692.628H175.684V693.888H169.708V692.628ZM180.375 700.476H190.443V701.772H180.375V700.476ZM184.599 698.1H186.183V700.788H184.599V698.1ZM181.431 692.652H183.027V694.368H187.755V692.652H189.339V698.436H181.431V692.652ZM183.027 695.616V697.164H187.755V695.616H183.027Z" fill="black"/>
<path d="M348.5 695.261L352.617 699.378C352.852 699.61 353.169 699.74 353.5 699.74C353.831 699.74 354.148 699.61 354.383 699.378L358.5 695.261" stroke="#1A1A1A" stroke-linecap="round" stroke-linejoin="round"/>
<rect width="402" height="97" transform="translate(0 761)" fill="white"/>
<g filter="url(#filter0_d_3010_6369)">
<rect x="76" y="782" width="250" height="55" rx="27.5" fill="#A7C503" shape-rendering="crispEdges"/>
<path d="M146.989 796.424H165.101V798.568H146.989V796.424ZM143.725 808.84H169.869V811.048H143.725V808.84ZM155.405 810.312H158.061V823.528H155.405V810.312ZM163.821 796.424H166.445V798.952C166.445 799.955 166.424 801.011 166.381 802.12C166.36 803.229 166.274 804.456 166.125 805.8C165.976 807.123 165.72 808.595 165.357 810.216L162.701 809.864C163.277 807.539 163.608 805.501 163.693 803.752C163.778 802.003 163.821 800.403 163.821 798.952V796.424ZM195.211 794.536H197.771V823.496H195.211V794.536ZM190.603 805.992H196.171V808.2H190.603V805.992ZM188.779 795.144H191.307V822.024H188.779V795.144ZM174.187 797.896H185.227V815.72H174.187V797.896ZM182.731 800.008H176.683V813.608H182.731V800.008ZM222.216 794.536H224.84V823.496H222.216V794.536ZM224.232 806.44H229.576V808.68H224.232V806.44ZM202.44 799.176H219.496V801.352H202.44V799.176ZM211.112 803.72C212.477 803.72 213.683 804.008 214.728 804.584C215.795 805.16 216.627 805.949 217.224 806.952C217.843 807.933 218.152 809.075 218.152 810.376C218.152 811.677 217.843 812.829 217.224 813.832C216.627 814.835 215.795 815.624 214.728 816.2C213.683 816.755 212.477 817.032 211.112 817.032C209.747 817.032 208.531 816.755 207.464 816.2C206.419 815.624 205.587 814.835 204.968 813.832C204.349 812.829 204.04 811.677 204.04 810.376C204.04 809.075 204.349 807.933 204.968 806.952C205.587 805.949 206.419 805.16 207.464 804.584C208.531 804.008 209.747 803.72 211.112 803.72ZM211.112 805.928C210.237 805.928 209.459 806.12 208.776 806.504C208.093 806.888 207.549 807.411 207.144 808.072C206.76 808.733 206.568 809.501 206.568 810.376C206.568 811.251 206.76 812.029 207.144 812.712C207.549 813.373 208.093 813.896 208.776 814.28C209.459 814.643 210.237 814.824 211.112 814.824C211.965 814.824 212.733 814.643 213.416 814.28C214.099 813.896 214.632 813.373 215.016 812.712C215.421 812.029 215.624 811.251 215.624 810.376C215.624 809.501 215.421 808.733 215.016 808.072C214.632 807.411 214.099 806.888 213.416 806.504C212.733 806.12 211.965 805.928 211.112 805.928ZM209.736 794.888H212.392V800.136H209.736V794.888ZM253.126 794.536H255.782V823.496H253.126V794.536ZM244.646 797.672H247.27C247.27 799.763 247.014 801.779 246.502 803.72C246.011 805.661 245.232 807.507 244.166 809.256C243.099 810.984 241.712 812.595 240.006 814.088C238.299 815.581 236.23 816.915 233.798 818.088L232.39 815.944C235.184 814.6 237.488 813.032 239.302 811.24C241.115 809.448 242.459 807.453 243.334 805.256C244.208 803.037 244.646 800.648 244.646 798.088V797.672ZM233.734 797.672H245.766V799.816H233.734V797.672Z" fill="white"/>
</g>
<rect width="402" height="54" transform="translate(0 37)" fill="white"/>
<rect width="360" height="42" transform="translate(21 43)" fill="white"/>
<path d="M37.2323 55.6667L30.3709 62.5282C29.9842 62.9205 29.7675 63.4492 29.7675 64.0001C29.7675 64.5509 29.9842 65.0796 30.3709 65.472L37.2323 72.3334" stroke="#1A1A1A" stroke-width="1.5" stroke-linecap="round" stroke-linejoin="round"/>
<path d="M60.7717 57.556H62.2337V58.695C62.2337 59.6583 62.0637 60.565 61.7237 61.415C61.3837 62.265 60.8907 63.0073 60.2447 63.642C59.5987 64.2653 58.811 64.7413 57.8817 65.07L56.9807 63.659C57.7967 63.3757 58.488 62.979 59.0547 62.469C59.6213 61.959 60.0463 61.381 60.3297 60.735C60.6243 60.0777 60.7717 59.3977 60.7717 58.695V57.556ZM61.1287 57.556H62.5737V58.695C62.5737 59.3297 62.7153 59.9417 62.9987 60.531C63.282 61.1203 63.6957 61.6473 64.2397 62.112C64.7837 62.5653 65.4467 62.9167 66.2287 63.166L65.3787 64.56C64.4607 64.2653 63.6843 63.829 63.0497 63.251C62.4263 62.673 61.9503 61.993 61.6217 61.211C61.293 60.4177 61.1287 59.579 61.1287 58.695V57.556ZM57.4737 56.961H65.8207V58.406H57.4737V56.961ZM67.4697 55.873H69.2377V65.155H67.4697V55.873ZM68.7617 59.647H71.4307V61.109H68.7617V59.647ZM64.2397 65.512C65.305 65.512 66.223 65.631 66.9937 65.869C67.7643 66.0957 68.3593 66.43 68.7787 66.872C69.198 67.3027 69.4077 67.824 69.4077 68.436C69.4077 69.0593 69.198 69.5863 68.7787 70.017C68.3593 70.459 67.7643 70.7933 66.9937 71.02C66.223 71.258 65.305 71.377 64.2397 71.377C63.1743 71.377 62.2507 71.258 61.4687 71.02C60.698 70.7933 60.103 70.459 59.6837 70.017C59.2757 69.5863 59.0717 69.0593 59.0717 68.436C59.0717 67.824 59.2757 67.3027 59.6837 66.872C60.103 66.43 60.698 66.0957 61.4687 65.869C62.2507 65.631 63.1743 65.512 64.2397 65.512ZM64.2397 66.923C63.5257 66.923 62.9137 66.9797 62.4037 67.093C61.8937 67.2063 61.5027 67.3763 61.2307 67.603C60.9587 67.8297 60.8227 68.1073 60.8227 68.436C60.8227 68.776 60.9587 69.065 61.2307 69.303C61.5027 69.5297 61.8937 69.7053 62.4037 69.83C62.9137 69.9433 63.5257 70 64.2397 70C64.965 70 65.577 69.9433 66.0757 69.83C66.5857 69.7053 66.9767 69.5297 67.2487 69.303C67.5207 69.065 67.6567 68.776 67.6567 68.436C67.6567 68.1073 67.5207 67.8297 67.2487 67.603C66.9767 67.3763 66.5857 67.2063 66.0757 67.093C65.577 66.9797 64.965 66.923 64.2397 66.923ZM82.5983 55.873H84.3833V71.411H82.5983V55.873ZM83.9923 61.823H86.7973V63.319H83.9923V61.823ZM72.8913 57.131H74.6593V61.092H78.5183V57.131H80.2693V67.739H72.8913V57.131ZM74.6593 62.486V66.294H78.5183V62.486H74.6593ZM89.278 56.825H98.985V58.253H89.278V56.825ZM87.578 63.472H101.62V64.917H87.578V63.472ZM93.647 64.475H95.449V71.411H93.647V64.475ZM98.118 56.825H99.869V58.185C99.869 58.729 99.8577 59.307 99.835 59.919C99.8237 60.531 99.7727 61.2053 99.682 61.942C99.6027 62.6673 99.4667 63.472 99.274 64.356L97.506 64.135C97.812 62.8657 97.9877 61.755 98.033 60.803C98.0897 59.851 98.118 58.9783 98.118 58.185V56.825ZM113.859 55.856H115.644V71.394H113.859V55.856ZM103.71 57.369H105.478V67.008H103.71V57.369ZM103.71 65.954H105.036C106.203 65.954 107.404 65.903 108.64 65.801C109.875 65.699 111.139 65.512 112.431 65.24L112.635 66.753C111.297 67.025 110 67.212 108.742 67.314C107.484 67.416 106.248 67.467 105.036 67.467H103.71V65.954Z" fill="black"/>
<path d="M314.75 59.8333C314.75 58.1756 314.092 56.5859 312.919 55.4138C311.747 54.2417 310.158 53.5833 308.5 53.5833C306.842 53.5833 305.253 54.2417 304.081 55.4138C302.908 56.5859 302.25 58.1756 302.25 59.8333C302.25 67.1249 299.125 69.2083 299.125 69.2083H317.875C317.875 69.2083 314.75 67.1249 314.75 59.8333Z" stroke="black" stroke-linecap="round" stroke-linejoin="round"/>
<path d="M310.302 73.375C310.119 73.6907 309.856 73.9528 309.54 74.1349C309.224 74.3171 308.865 74.413 308.5 74.413C308.135 74.413 307.777 74.3171 307.46 74.1349C307.144 73.9528 306.881 73.6907 306.698 73.375" stroke="black" stroke-linecap="round" stroke-linejoin="round"/>
<g clip-path="url(#clip2_3010_6369)">
<path d="M335.375 56.9688V71.0312" stroke="black" stroke-linecap="round" stroke-linejoin="round"/>
<path d="M328.344 67.8272C328.344 67.6472 328.406 67.4727 328.52 67.3334C328.634 67.194 328.792 67.0983 328.969 67.0625C329.674 66.9183 330.309 66.5347 330.764 65.9767C331.22 65.4187 331.469 64.7204 331.469 64C331.469 63.2796 331.22 62.5813 330.764 62.0233C330.309 61.4653 329.674 61.0817 328.969 60.9375C328.792 60.9017 328.634 60.806 328.52 60.6666C328.406 60.5273 328.344 60.3528 328.344 60.1728V57.75C328.344 57.5428 328.426 57.3441 328.573 57.1976C328.719 57.0511 328.918 56.9688 329.125 56.9688H347.875C348.082 56.9688 348.281 57.0511 348.427 57.1976C348.574 57.3441 348.656 57.5428 348.656 57.75V60.1728C348.656 60.3528 348.594 60.5273 348.48 60.6666C348.366 60.806 348.208 60.9017 348.031 60.9375C347.326 61.0817 346.691 61.4653 346.236 62.0233C345.78 62.5814 345.531 63.2796 345.531 64C345.531 64.7204 345.78 65.4187 346.236 65.9767C346.691 66.5347 347.326 66.9183 348.031 67.0625C348.208 67.0983 348.366 67.194 348.48 67.3334C348.594 67.4727 348.656 67.6472 348.656 67.8272V70.25C348.656 70.4572 348.574 70.6559 348.427 70.8024C348.281 70.9489 348.082 71.0312 347.875 71.0312H329.125C328.918 71.0312 328.719 70.9489 328.573 70.8024C328.426 70.6559 328.344 70.4572 328.344 70.25V67.8272Z" stroke="black" stroke-linecap="round" stroke-linejoin="round"/>
</g>
<path d="M362.719 61.1145H374.281C374.792 61.1145 375.283 61.3175 375.644 61.6789C376.005 62.0403 376.208 62.5305 376.208 63.0416V69.7833C376.208 70.8051 375.802 71.7849 375.079 72.5072C374.356 73.2296 373.376 73.6353 372.354 73.6353H364.646C363.624 73.6353 362.644 73.2296 361.921 72.5072C361.199 71.7849 360.792 70.8051 360.792 69.7833V63.0416C360.792 62.5305 360.995 62.0403 361.356 61.6789C361.718 61.3175 362.208 61.1145 362.719 61.1145Z" stroke="#1A1A1A" stroke-linecap="round" stroke-linejoin="round"/>
<path d="M363.682 61.1145V59.1885C363.681 58.5551 363.804 57.9276 364.046 57.3421C364.287 56.7565 364.642 56.2244 365.09 55.7763C365.537 55.3281 366.069 54.9727 366.654 54.7304C367.239 54.4882 367.867 54.3638 368.5 54.3645C369.133 54.3648 369.76 54.4898 370.345 54.7324C370.93 54.975 371.461 55.3304 371.908 55.7784C372.356 56.2264 372.71 56.7581 372.952 57.3432C373.194 57.9283 373.318 58.5553 373.318 59.1885V61.1155" stroke="#1A1A1A" stroke-linecap="round" stroke-linejoin="round"/>
<rect width="402" height="37" fill="white"/>
<path d="M61.2666 13.9731C61.9085 13.9731 62.5173 14.0921 63.0928 14.3301C63.6683 14.5625 64.1774 14.9277 64.6201 15.4258C65.0684 15.9183 65.4198 16.5519 65.6743 17.3267C65.9289 18.0959 66.0562 19.0228 66.0562 20.1074V20.124C66.0562 21.4688 65.8625 22.6198 65.4751 23.5771C65.0877 24.5345 64.5316 25.2705 63.8066 25.7852C63.0872 26.2943 62.2267 26.5488 61.2251 26.5488C60.4891 26.5488 59.825 26.416 59.2329 26.1504C58.6463 25.8792 58.1593 25.5085 57.772 25.0381C57.3901 24.5622 57.1328 24.0199 57 23.4111L56.9834 23.3198H59.0835L59.1167 23.4028C59.2218 23.6795 59.3713 23.923 59.5649 24.1333C59.7642 24.3436 60.0021 24.5068 60.2788 24.623C60.561 24.7337 60.8765 24.7891 61.2251 24.7891C61.856 24.7891 62.3706 24.6037 62.769 24.2329C63.173 23.8566 63.4746 23.3558 63.6738 22.7305C63.8786 22.0996 63.9948 21.4023 64.0225 20.6387C64.028 20.5557 64.0308 20.4754 64.0308 20.3979C64.0308 20.3149 64.0308 20.2347 64.0308 20.1572L63.6572 18.1567C63.6572 17.703 63.5521 17.2907 63.3418 16.9199C63.1315 16.5492 62.8465 16.2559 62.4868 16.04C62.1326 15.8242 61.7314 15.7163 61.2832 15.7163C60.8516 15.7163 60.4559 15.8215 60.0962 16.0317C59.7365 16.242 59.4487 16.5298 59.2329 16.895C59.0171 17.2547 58.9092 17.6587 58.9092 18.1069V18.1235C58.9092 18.5884 59.0116 19.0007 59.2163 19.3604C59.4211 19.7145 59.7005 19.994 60.0547 20.1987C60.4089 20.4035 60.8128 20.5059 61.2666 20.5059C61.7204 20.5059 62.1271 20.4062 62.4868 20.207C62.8465 20.0078 63.1315 19.7311 63.3418 19.377C63.5521 19.0228 63.6572 18.6216 63.6572 18.1733V18.1567H64.1553V20.3647H63.8647C63.7209 20.6802 63.5078 20.9735 63.2256 21.2446C62.9434 21.5158 62.5947 21.7344 62.1797 21.9004C61.7702 22.0664 61.2887 22.1494 60.7354 22.1494C59.9717 22.1494 59.2965 21.9779 58.71 21.6348C58.1234 21.2917 57.6613 20.8213 57.3237 20.2236C56.9917 19.626 56.8257 18.9508 56.8257 18.1982V18.1816C56.8257 17.3682 57.0138 16.646 57.3901 16.0151C57.772 15.3787 58.2977 14.8807 58.9673 14.521C59.6424 14.1558 60.4089 13.9731 61.2666 13.9731ZM69.8247 24.6396C69.4484 24.6396 69.133 24.5151 68.8784 24.2661C68.6294 24.0116 68.5049 23.7017 68.5049 23.3364C68.5049 22.9657 68.6294 22.6558 68.8784 22.4067C69.133 22.1522 69.4484 22.0249 69.8247 22.0249C70.2065 22.0249 70.522 22.1522 70.771 22.4067C71.02 22.6558 71.1445 22.9657 71.1445 23.3364C71.1445 23.7017 71.02 24.0116 70.771 24.2661C70.522 24.5151 70.2065 24.6396 69.8247 24.6396ZM69.8247 18.4805C69.4484 18.4805 69.133 18.356 68.8784 18.1069C68.6294 17.8524 68.5049 17.5425 68.5049 17.1772C68.5049 16.8065 68.6294 16.4966 68.8784 16.2476C69.133 15.993 69.4484 15.8657 69.8247 15.8657C70.2065 15.8657 70.522 15.993 70.771 16.2476C71.02 16.4966 71.1445 16.8065 71.1445 17.1772C71.1445 17.5425 71.02 17.8524 70.771 18.1069C70.522 18.356 70.2065 18.4805 69.8247 18.4805ZM79.4038 26.25V23.9507H73.5435V22.1992C73.8589 21.6624 74.1743 21.1229 74.4897 20.5806C74.8107 20.0382 75.1344 19.4987 75.4609 18.9619C75.793 18.4196 76.1222 17.8856 76.4487 17.3599C76.7808 16.8286 77.11 16.3057 77.4365 15.791C77.7686 15.2708 78.1006 14.7645 78.4326 14.272H81.4458V22.1826H83.0645V23.9507H81.4458V26.25H79.4038ZM75.5356 22.2324H79.437V15.9819H79.3125C79.069 16.3582 78.8172 16.7456 78.5571 17.144C78.3026 17.5425 78.0452 17.9492 77.7852 18.3643C77.5251 18.7793 77.2677 19.1971 77.0132 19.6177C76.7586 20.0327 76.5068 20.4505 76.2578 20.8711C76.0088 21.2861 75.7681 21.6984 75.5356 22.1079V22.2324ZM88.02 26.25V16.3804H87.8706L84.8906 18.4805V16.4717L88.02 14.272H90.1533V26.25H88.02Z" fill="black"/>
<path fill-rule="evenodd" clip-rule="evenodd" d="M307.865 15.0329C307.865 14.3999 307.387 13.8867 306.798 13.8867H305.732C305.143 13.8867 304.665 14.3999 304.665 15.0329V24.9669C304.665 25.5999 305.143 26.1131 305.732 26.1131H306.798C307.387 26.1131 307.865 25.5999 307.865 24.9669V15.0329ZM300.431 16.332H301.498C302.087 16.332 302.564 16.8575 302.564 17.5057V24.9394C302.564 25.5876 302.087 26.1131 301.498 26.1131H300.431C299.842 26.1131 299.364 25.5876 299.364 24.9394V17.5057C299.364 16.8575 299.842 16.332 300.431 16.332ZM296.099 18.981H295.032C294.443 18.981 293.966 19.5132 293.966 20.1697V24.9244C293.966 25.5809 294.443 26.1131 295.032 26.1131H296.099C296.688 26.1131 297.166 25.5809 297.166 24.9244V20.1697C297.166 19.5132 296.688 18.981 296.099 18.981ZM290.798 21.4263H289.732C289.143 21.4263 288.665 21.9509 288.665 22.598V24.9414C288.665 25.5885 289.143 26.1131 289.732 26.1131H290.798C291.387 26.1131 291.865 25.5885 291.865 24.9414V22.598C291.865 21.9509 291.387 21.4263 290.798 21.4263Z" fill="black"/>
<path fill-rule="evenodd" clip-rule="evenodd" d="M323.437 16.3022C325.924 16.3023 328.316 17.2244 330.118 18.8779C330.254 19.0055 330.471 19.0039 330.605 18.8743L331.902 17.6108C331.97 17.545 332.007 17.456 332.007 17.3633C332.006 17.2706 331.968 17.182 331.899 17.117C327.168 12.7423 319.704 12.7423 314.973 17.117C314.905 17.1819 314.866 17.2705 314.865 17.3632C314.865 17.4559 314.902 17.545 314.97 17.6108L316.268 18.8743C316.401 19.0041 316.619 19.0057 316.754 18.8779C318.557 17.2243 320.949 16.3022 323.437 16.3022ZM323.433 20.5225C324.791 20.5224 326.099 21.0342 327.106 21.9583C327.242 22.0894 327.456 22.0866 327.589 21.9519L328.876 20.6326C328.944 20.5634 328.981 20.4695 328.98 20.3719C328.979 20.2744 328.94 20.1813 328.871 20.1135C325.807 17.2227 321.062 17.2227 317.998 20.1135C317.929 20.1813 317.89 20.2744 317.889 20.372C317.888 20.4696 317.926 20.5635 317.993 20.6326L319.28 21.9519C319.413 22.0866 319.627 22.0894 319.763 21.9583C320.769 21.0348 322.077 20.5231 323.433 20.5225ZM325.958 23.316C325.96 23.4214 325.922 23.523 325.855 23.5968L323.679 26.0515C323.615 26.1236 323.528 26.1642 323.437 26.1642C323.346 26.1642 323.259 26.1236 323.195 26.0515L321.018 23.5968C320.951 23.5229 320.914 23.4213 320.916 23.316C320.918 23.2106 320.959 23.1108 321.029 23.0402C322.419 21.7263 324.455 21.7263 325.845 23.0402C325.915 23.1109 325.956 23.2107 325.958 23.316Z" fill="black"/>
<rect opacity="0.35" x="339.507" y="14" width="24" height="12" rx="3.8" stroke="black"/>
<path opacity="0.4" d="M365.007 18V22.0755C365.812 21.7303 366.335 20.9273 366.335 20.0377C366.335 19.1481 365.812 18.3452 365.007 18" fill="black"/>
<rect x="341.007" y="15.5" width="21" height="9" rx="2.5" fill="black"/>
</g>
<defs>
<filter id="filter0_d_3010_6369" x="74" y="782" width="256" height="62" filterUnits="userSpaceOnUse" color-interpolation-filters="sRGB">
<feFlood flood-opacity="0" result="BackgroundImageFix"/>
<feColorMatrix in="SourceAlpha" type="matrix" values="0 0 0 0 0 0 0 0 0 0 0 0 0 0 0 0 0 0 127 0" result="hardAlpha"/>
<feOffset dx="1" dy="4"/>
<feGaussianBlur stdDeviation="1.5"/>
<feComposite in2="hardAlpha" operator="out"/>
<feColorMatrix type="matrix" values="0 0 0 0 0 0 0 0 0 0 0 0 0 0 0 0 0 0 0.25 0"/>
<feBlend mode="normal" in2="BackgroundImageFix" result="effect1_dropShadow_3010_6369"/>
<feBlend mode="normal" in="SourceGraphic" in2="effect1_dropShadow_3010_6369" result="shape"/>
</filter>
<clipPath id="clip0_3010_6369">
<path d="M0 30C0 13.4315 13.4315 0 30 0H372C388.569 0 402 13.4315 402 30V828C402 844.569 388.569 858 372 858H30C13.4315 858 0 844.569 0 828V30Z" fill="white"/>
</clipPath>
<clipPath id="clip1_3010_6369">
<rect width="14" height="14" fill="white" transform="translate(21 572)"/>
</clipPath>
<clipPath id="clip2_3010_6369">
<rect width="25" height="25" fill="white" transform="translate(326 51.5)"/>
</clipPath>
</defs>
</svg>
