<svg width="25" height="25" viewBox="0 0 25 25" fill="none" xmlns="http://www.w3.org/2000/svg">
<path d="M6.71876 9.6145H18.2813C18.7924 9.6145 19.2825 9.81753 19.6439 10.1789C20.0053 10.5403 20.2083 11.0305 20.2083 11.5416V18.2833C20.2078 19.3051 19.8015 20.2849 19.0787 21.0072C18.356 21.7296 17.376 22.1353 16.3542 22.1353H8.64584C7.62401 22.1353 6.644 21.7296 5.92127 21.0072C5.19853 20.2849 4.79222 19.3051 4.79167 18.2833V11.5416C4.79167 11.0305 4.9947 10.5403 5.3561 10.1789C5.7175 9.81753 6.20766 9.6145 6.71876 9.6145Z" stroke="#1A1A1A" stroke-linecap="round" stroke-linejoin="round"/>
<path d="M7.6823 9.6145V7.68846C7.68079 7.05508 7.80433 6.42762 8.04583 5.84208C8.28733 5.25653 8.64204 4.72442 9.08963 4.27626C9.53721 3.82809 10.0689 3.47269 10.6541 3.23043C11.2393 2.98817 11.8666 2.86382 12.5 2.8645C13.1331 2.86478 13.76 2.98979 14.3448 3.23239C14.9296 3.47499 15.4608 3.83043 15.9082 4.2784C16.3556 4.72637 16.7104 5.2581 16.9522 5.84321C17.1941 6.42832 17.3183 7.05534 17.3177 7.68846V9.61555" stroke="#1A1A1A" stroke-linecap="round" stroke-linejoin="round"/>
</svg>
