<svg width="25" height="25" viewBox="0 0 25 25" fill="none" xmlns="http://www.w3.org/2000/svg">
<g clip-path="url(#clip0_3028_355)">
<path d="M9.375 5.46875V19.5312" stroke="black" stroke-linecap="round" stroke-linejoin="round"/>
<path d="M2.34375 16.3272C2.34372 16.1472 2.40592 15.9727 2.51981 15.8334C2.6337 15.694 2.79228 15.5983 2.96867 15.5625C3.67447 15.4183 4.3088 15.0347 4.76436 14.4767C5.21993 13.9187 5.46875 13.2204 5.46875 12.5C5.46875 11.7796 5.21993 11.0813 4.76436 10.5233C4.3088 9.96526 3.67447 9.58169 2.96867 9.4375C2.79228 9.40169 2.6337 9.306 2.51981 9.16663C2.40592 9.02727 2.34372 8.85281 2.34375 8.67283V6.25C2.34375 6.0428 2.42606 5.84409 2.57257 5.69757C2.71909 5.55106 2.9178 5.46875 3.125 5.46875H21.875C22.0822 5.46875 22.2809 5.55106 22.4274 5.69757C22.5739 5.84409 22.6562 6.0428 22.6562 6.25V8.67283C22.6563 8.85281 22.5941 9.02727 22.4802 9.16664C22.3663 9.306 22.2077 9.40169 22.0313 9.4375C21.3255 9.5817 20.6912 9.96526 20.2356 10.5233C19.7801 11.0814 19.5312 11.7796 19.5312 12.5C19.5312 13.2204 19.7801 13.9187 20.2356 14.4767C20.6912 15.0347 21.3255 15.4183 22.0313 15.5625C22.2077 15.5983 22.3663 15.694 22.4802 15.8334C22.5941 15.9727 22.6563 16.1472 22.6562 16.3272V18.75C22.6562 18.9572 22.5739 19.1559 22.4274 19.3024C22.2809 19.4489 22.0822 19.5312 21.875 19.5312H3.125C2.9178 19.5312 2.71909 19.4489 2.57257 19.3024C2.42606 19.1559 2.34375 18.9572 2.34375 18.75V16.3272Z" stroke="black" stroke-linecap="round" stroke-linejoin="round"/>
</g>
<defs>
<clipPath id="clip0_3028_355">
<rect width="25" height="25" fill="white"/>
</clipPath>
</defs>
</svg>
