<svg width="380" height="154" viewBox="0 0 380 154" fill="none" xmlns="http://www.w3.org/2000/svg">
<rect x="10" width="360" height="34" rx="17" fill="#EEEEEE"/>
<path d="M0 61C0 52.1634 7.16344 45 16 45H364C372.837 45 380 52.1634 380 61C380 69.8366 372.837 77 364 77H16C7.16344 77 0 69.8366 0 61Z" fill="white"/>
<path d="M0 61C0 52.1634 7.16344 45 16 45H36C44.8366 45 52 52.1634 52 61C52 69.8366 44.8366 77 36 77H16C7.16344 77 0 69.8366 0 61Z" fill="#40D673"/>
<path d="M20.174 58.382H23.06V59.487H20.174V58.382ZM22.319 55.197H23.684V63.881H22.319V55.197ZM15.988 65.727H23.996V66.832H15.988V65.727ZM15.988 63.127H17.353V66.338H15.988V63.127ZM16.742 56.705H17.86V57.576C17.86 58.304 17.7257 58.9973 17.457 59.656C17.197 60.306 16.82 60.8737 16.326 61.359C15.832 61.8443 15.234 62.2127 14.532 62.464L13.83 61.385C14.298 61.2203 14.7097 61.008 15.065 60.748C15.429 60.488 15.7367 60.189 15.988 59.851C16.2393 59.513 16.4257 59.149 16.547 58.759C16.677 58.369 16.742 57.9747 16.742 57.576V56.705ZM17.015 56.705H18.12V57.563C18.12 58.057 18.2283 58.538 18.445 59.006C18.6617 59.474 18.978 59.8943 19.394 60.267C19.81 60.6397 20.317 60.93 20.915 61.138L20.239 62.204C19.5543 61.9613 18.9693 61.6103 18.484 61.151C18.0073 60.683 17.6433 60.1413 17.392 59.526C17.1407 58.902 17.015 58.2477 17.015 57.563V56.705ZM14.233 56.094H20.59V57.186H14.233V56.094ZM30.23 59.799H32.31V60.904H30.23V59.799ZM27.669 58.343H28.709V58.824C28.709 59.4307 28.6527 60.0287 28.54 60.618C28.4273 61.1987 28.2583 61.7533 28.033 62.282C27.8163 62.8107 27.539 63.2873 27.201 63.712C26.863 64.128 26.4687 64.466 26.018 64.726L25.238 63.699C25.6453 63.4563 26.0007 63.1573 26.304 62.802C26.616 62.4467 26.8717 62.0523 27.071 61.619C27.2703 61.177 27.4177 60.722 27.513 60.254C27.617 59.7773 27.669 59.3007 27.669 58.824V58.343ZM27.916 58.343H28.956V58.824C28.956 59.2833 29.0037 59.7427 29.099 60.202C29.203 60.6527 29.3547 61.086 29.554 61.502C29.762 61.9093 30.0177 62.282 30.321 62.62C30.6243 62.9493 30.9797 63.2223 31.387 63.439L30.633 64.466C30.0263 64.1367 29.5193 63.6817 29.112 63.101C28.7133 62.5117 28.4143 61.8487 28.215 61.112C28.0157 60.3753 27.916 59.6127 27.916 58.824V58.343ZM25.615 57.29H30.984V58.408H25.615V57.29ZM27.669 55.6H28.969V58.161H27.669V55.6ZM34.221 55.184H35.521V67.066H34.221V55.184ZM31.842 55.431H33.116V66.494H31.842V55.431Z" fill="#F6F6F6"/>
<path d="M59 61C59 52.1634 66.1634 45 75 45H95C103.837 45 111 52.1634 111 61C111 69.8366 103.837 77 95 77H75C66.1634 77 59 69.8366 59 61Z" fill="#F6F6F6"/>
<path d="M74.143 55.925H81.566V57.017H74.143V55.925ZM72.843 61.008H83.581V62.113H72.843V61.008ZM77.484 61.775H78.862V67.079H77.484V61.775ZM80.903 55.925H82.242V56.965C82.242 57.381 82.2333 57.823 82.216 58.291C82.2073 58.759 82.1683 59.2747 82.099 59.838C82.0383 60.3927 81.9343 61.008 81.787 61.684L80.435 61.515C80.669 60.5443 80.8033 59.695 80.838 58.967C80.8813 58.239 80.903 57.5717 80.903 56.965V55.925ZM84.394 61.047H95.132V62.126H84.394V61.047ZM89.087 59.045H90.439V61.424H89.087V59.045ZM85.577 63.114H93.845V67.144H92.48V64.206H85.577V63.114ZM85.733 58.694H93.936V59.786H85.733V58.694ZM85.733 55.665H93.832V56.757H87.085V59.266H85.733V55.665Z" fill="#878787"/>
<path d="M118 61C118 52.1634 125.163 45 134 45H168C176.837 45 184 52.1634 184 61C184 69.8366 176.837 77 168 77H134C125.163 77 118 69.8366 118 61Z" fill="#F6F6F6"/>
<path d="M133.026 55.171H134.378V61.658H133.026V55.171ZM133.832 57.875H136.068V59.006H133.832V57.875ZM126.708 62.204H134.378V65.025H128.073V66.299H126.734V64.063H133.039V63.218H126.708V62.204ZM126.734 65.948H134.768V66.962H126.734V65.948ZM125.122 56.172H132.129V57.212H125.122V56.172ZM128.632 57.628C129.499 57.628 130.192 57.8057 130.712 58.161C131.241 58.5077 131.505 58.9843 131.505 59.591C131.505 60.1803 131.241 60.6483 130.712 60.995C130.192 61.3417 129.499 61.515 128.632 61.515C127.757 61.515 127.055 61.3417 126.526 60.995C126.006 60.6483 125.746 60.1803 125.746 59.591C125.746 58.9843 126.006 58.5077 126.526 58.161C127.055 57.8057 127.757 57.628 128.632 57.628ZM128.632 58.616C128.147 58.616 127.761 58.7027 127.475 58.876C127.189 59.0407 127.046 59.2747 127.046 59.578C127.046 59.89 127.189 60.1283 127.475 60.293C127.761 60.4577 128.147 60.54 128.632 60.54C129.109 60.54 129.486 60.4577 129.763 60.293C130.049 60.1283 130.192 59.89 130.192 59.578C130.192 59.2747 130.049 59.0407 129.763 58.876C129.486 58.7027 129.109 58.616 128.632 58.616ZM127.943 55.08H129.308V56.9H127.943V55.08ZM145.084 55.197H146.449V63.816H145.084V55.197ZM138.701 65.727H146.787V66.832H138.701V65.727ZM138.701 62.945H140.053V66.156H138.701V62.945ZM140.04 55.99C140.638 55.99 141.176 56.1157 141.652 56.367C142.129 56.6183 142.506 56.9693 142.783 57.42C143.061 57.862 143.199 58.3733 143.199 58.954C143.199 59.526 143.061 60.0373 142.783 60.488C142.506 60.9387 142.129 61.2897 141.652 61.541C141.176 61.7923 140.638 61.918 140.04 61.918C139.442 61.918 138.905 61.7923 138.428 61.541C137.952 61.2897 137.575 60.9387 137.297 60.488C137.02 60.0373 136.881 59.526 136.881 58.954C136.881 58.3733 137.02 57.862 137.297 57.42C137.575 56.9693 137.952 56.6183 138.428 56.367C138.905 56.1157 139.442 55.99 140.04 55.99ZM140.04 57.173C139.694 57.173 139.382 57.2467 139.104 57.394C138.827 57.5413 138.61 57.7493 138.454 58.018C138.298 58.278 138.22 58.59 138.22 58.954C138.22 59.318 138.298 59.6343 138.454 59.903C138.61 60.163 138.827 60.3667 139.104 60.514C139.382 60.6613 139.694 60.735 140.04 60.735C140.387 60.735 140.699 60.6613 140.976 60.514C141.254 60.3667 141.47 60.163 141.626 59.903C141.791 59.6343 141.873 59.318 141.873 58.954C141.873 58.59 141.791 58.278 141.626 58.018C141.47 57.7493 141.254 57.5413 140.976 57.394C140.699 57.2467 140.387 57.173 140.04 57.173ZM152.142 56.1023L149.095 67.4219H147.863L150.909 56.1023H152.142ZM155.476 56.393H156.594V57.264C156.594 57.992 156.459 58.681 156.191 59.331C155.931 59.981 155.554 60.5487 155.06 61.034C154.566 61.5193 153.968 61.8877 153.266 62.139L152.564 61.06C153.032 60.8953 153.443 60.683 153.799 60.423C154.163 60.163 154.47 59.864 154.722 59.526C154.973 59.1793 155.159 58.8153 155.281 58.434C155.411 58.044 155.476 57.654 155.476 57.264V56.393ZM155.749 56.393H156.854V57.251C156.854 57.745 156.962 58.226 157.179 58.694C157.395 59.162 157.712 59.5823 158.128 59.955C158.544 60.319 159.051 60.605 159.649 60.813L158.973 61.879C158.288 61.645 157.703 61.294 157.218 60.826C156.741 60.358 156.377 59.8163 156.126 59.201C155.874 58.5857 155.749 57.9357 155.749 57.251V56.393ZM158.986 58.174H161.443V59.292H158.986V58.174ZM152.967 55.938H159.324V57.03H152.967V55.938ZM154.423 62.88H162.418V67.079H161.053V63.972H154.423V62.88ZM161.053 55.197H162.418V62.282H161.053V55.197ZM172.552 55.197H173.917V61.762H172.552V55.197ZM164.739 60.436H165.727C166.472 60.436 167.152 60.4273 167.768 60.41C168.392 60.3927 168.99 60.358 169.562 60.306C170.134 60.254 170.723 60.176 171.33 60.072L171.486 61.177C170.862 61.281 170.255 61.359 169.666 61.411C169.076 61.463 168.461 61.4977 167.82 61.515C167.187 61.5323 166.489 61.541 165.727 61.541H164.739V60.436ZM164.713 55.756H170.147V59.11H166.078V61.151H164.739V58.07H168.808V56.848H164.713V55.756ZM166.143 62.321H167.495V63.53H172.578V62.321H173.917V66.923H166.143V62.321ZM167.495 64.596V65.831H172.578V64.596H167.495Z" fill="#878787"/>
<path d="M191 61C191 52.1634 198.163 45 207 45H227C235.837 45 243 52.1634 243 61C243 69.8366 235.837 77 227 77H207C198.163 77 191 69.8366 191 61Z" fill="#F6F6F6"/>
<path d="M200.147 56.302H207.739V57.407H200.147V56.302ZM199.068 64.401H209.806V65.519H199.068V64.401ZM201.538 60.553H202.877V64.778H201.538V60.553ZM207.323 56.302H208.675V57.537C208.675 58.031 208.67 58.5467 208.662 59.084C208.653 59.6213 208.618 60.202 208.558 60.826C208.506 61.45 208.41 62.1477 208.272 62.919L206.92 62.776C207.119 61.684 207.236 60.722 207.271 59.89C207.305 59.0493 207.323 58.265 207.323 57.537V56.302ZM204.476 60.553H205.815V64.778H204.476V60.553ZM218.562 55.184H219.914V64.479H218.562V55.184ZM219.394 59.214H221.552V60.345H219.394V59.214ZM212.231 65.727H220.33V66.832H212.231V65.727ZM212.231 63.881H213.596V66.065H212.231V63.881ZM213.544 60.956H214.896V62.633H213.544V60.956ZM210.684 63.205L210.515 62.139C211.217 62.139 211.988 62.1303 212.829 62.113C213.669 62.0957 214.527 62.061 215.403 62.009C216.287 61.9483 217.132 61.8573 217.938 61.736L218.042 62.685C217.21 62.8323 216.356 62.945 215.481 63.023C214.605 63.101 213.756 63.153 212.933 63.179C212.109 63.1963 211.36 63.205 210.684 63.205ZM210.814 56.263H217.6V57.264H210.814V56.263ZM214.207 57.68C215.065 57.68 215.749 57.8447 216.261 58.174C216.781 58.4947 217.041 58.9367 217.041 59.5C217.041 60.072 216.781 60.5227 216.261 60.852C215.749 61.1727 215.065 61.333 214.207 61.333C213.357 61.333 212.673 61.1727 212.153 60.852C211.641 60.5227 211.386 60.072 211.386 59.5C211.386 58.9367 211.641 58.4947 212.153 58.174C212.673 57.8447 213.357 57.68 214.207 57.68ZM214.207 58.603C213.739 58.603 213.366 58.681 213.089 58.837C212.811 58.993 212.673 59.214 212.673 59.5C212.673 59.786 212.811 60.007 213.089 60.163C213.366 60.319 213.739 60.397 214.207 60.397C214.683 60.397 215.056 60.319 215.325 60.163C215.602 60.007 215.741 59.786 215.741 59.5C215.741 59.214 215.602 58.993 215.325 58.837C215.056 58.681 214.683 58.603 214.207 58.603ZM213.544 55.145H214.896V56.692H213.544V55.145ZM225.328 60.618H226.68V63.4H225.328V60.618ZM230.71 55.197H232.075V64.154H230.71V55.197ZM223.768 65.727H232.361V66.832H223.768V65.727ZM223.768 63.218H225.133V66.039H223.768V63.218ZM222.26 60.891L222.091 59.799C222.819 59.7903 223.612 59.7817 224.47 59.773C225.337 59.7557 226.225 59.721 227.135 59.669C228.045 59.6083 228.921 59.5217 229.761 59.409L229.839 60.371C228.99 60.5183 228.115 60.631 227.213 60.709C226.321 60.787 225.45 60.839 224.6 60.865C223.76 60.8823 222.98 60.891 222.26 60.891ZM228.266 61.606H231.035V62.672H228.266V61.606ZM223.157 55.847H228.24V56.939H223.157V55.847ZM227.408 55.847H228.747V56.289C228.747 56.6443 228.734 57.134 228.708 57.758C228.682 58.382 228.591 59.1273 228.435 59.994L227.096 59.903C227.252 59.0363 227.343 58.304 227.369 57.706C227.395 57.108 227.408 56.6357 227.408 56.289V55.847Z" fill="#878787"/>
<path d="M250 61C250 52.1634 257.163 45 266 45H286C294.837 45 302 52.1634 302 61C302 69.8366 294.837 77 286 77H266C257.163 77 250 69.8366 250 61Z" fill="#F6F6F6"/>
<path d="M259.42 55.769H267.012V56.874H259.42V55.769ZM258.068 60.098H268.832V61.203H258.068V60.098ZM266.154 55.769H267.493V56.679C267.493 57.1903 267.475 57.745 267.441 58.343C267.415 58.9323 267.311 59.6257 267.129 60.423L265.777 60.384C265.967 59.5953 266.076 58.9063 266.102 58.317C266.136 57.7277 266.154 57.1817 266.154 56.679V55.769ZM259.368 62.646H267.493V66.923H259.368V62.646ZM266.167 63.725H260.694V65.844H266.167V63.725ZM272.401 55.925C272.929 55.925 273.393 56.0463 273.792 56.289C274.199 56.5317 274.52 56.8697 274.754 57.303C274.996 57.7277 275.118 58.2217 275.118 58.785C275.118 59.3397 274.996 59.8337 274.754 60.267C274.52 60.6917 274.199 61.0253 273.792 61.268C273.393 61.502 272.929 61.619 272.401 61.619C271.881 61.619 271.417 61.502 271.01 61.268C270.602 61.0253 270.282 60.6917 270.048 60.267C269.814 59.8337 269.697 59.3397 269.697 58.785C269.697 58.2217 269.814 57.7277 270.048 57.303C270.282 56.8697 270.602 56.5317 271.01 56.289C271.417 56.0463 271.881 55.925 272.401 55.925ZM272.401 57.082C272.123 57.082 271.872 57.1513 271.647 57.29C271.421 57.4287 271.244 57.628 271.114 57.888C270.992 58.1393 270.932 58.4383 270.932 58.785C270.932 59.123 270.992 59.422 271.114 59.682C271.244 59.9333 271.421 60.1283 271.647 60.267C271.872 60.4057 272.123 60.475 272.401 60.475C272.687 60.475 272.938 60.4057 273.155 60.267C273.38 60.1283 273.558 59.9333 273.688 59.682C273.818 59.422 273.883 59.123 273.883 58.785C273.883 58.4383 273.818 58.1393 273.688 57.888C273.558 57.628 273.38 57.4287 273.155 57.29C272.938 57.1513 272.687 57.082 272.401 57.082ZM278.381 55.197H279.681V62.269H278.381V55.197ZM276.678 58.174H278.771V59.279H276.678V58.174ZM275.859 55.418H277.146V62.217H275.859V55.418ZM271.621 62.88H279.681V67.079H278.329V63.972H271.621V62.88ZM284.328 60.618H285.68V63.4H284.328V60.618ZM289.71 55.197H291.075V64.154H289.71V55.197ZM282.768 65.727H291.361V66.832H282.768V65.727ZM282.768 63.218H284.133V66.039H282.768V63.218ZM281.26 60.891L281.091 59.799C281.819 59.7903 282.612 59.7817 283.47 59.773C284.337 59.7557 285.225 59.721 286.135 59.669C287.045 59.6083 287.921 59.5217 288.761 59.409L288.839 60.371C287.99 60.5183 287.115 60.631 286.213 60.709C285.321 60.787 284.45 60.839 283.6 60.865C282.76 60.8823 281.98 60.891 281.26 60.891ZM287.266 61.606H290.035V62.672H287.266V61.606ZM282.157 55.847H287.24V56.939H282.157V55.847ZM286.408 55.847H287.747V56.289C287.747 56.6443 287.734 57.134 287.708 57.758C287.682 58.382 287.591 59.1273 287.435 59.994L286.096 59.903C286.252 59.0363 286.343 58.304 286.369 57.706C286.395 57.108 286.408 56.6357 286.408 56.289V55.847Z" fill="#878787"/>
<path d="M309 61C309 52.1634 316.163 45 325 45H364C372.837 45 380 52.1634 380 61C380 69.8366 372.837 77 364 77H325C316.163 77 309 69.8366 309 61Z" fill="#F6F6F6"/>
<path d="M313.224 56.289H314.511V59.084H316.565V56.289H317.826V64.167H313.224V56.289ZM314.511 60.163V63.075H316.565V60.163H314.511ZM321.674 55.184H322.974V67.066H321.674V55.184ZM319.971 59.825H322.116V60.917H319.971V59.825ZM319.061 55.418H320.335V66.507H319.061V55.418ZM324.853 59.695H325.802C326.616 59.695 327.327 59.6863 327.934 59.669C328.549 59.643 329.117 59.604 329.637 59.552C330.157 59.4913 330.677 59.4047 331.197 59.292L331.34 60.371C330.802 60.4837 330.265 60.5703 329.728 60.631C329.199 60.6917 328.618 60.735 327.986 60.761C327.362 60.7783 326.634 60.787 325.802 60.787H324.853V59.695ZM324.853 55.847H330.131V56.926H326.205V60.319H324.853V55.847ZM332.302 55.184H333.654V61.138H332.302V55.184ZM333.29 57.576H335.331V58.694H333.29V57.576ZM325.984 61.684H333.654V64.778H327.349V66.429H326.01V63.751H332.315V62.763H325.984V61.684ZM326.01 65.844H334.044V66.923H326.01V65.844ZM339.867 56.1023L336.82 67.4219H335.587L338.634 56.1023H339.867ZM340.691 56.289H341.978V59.084H344.032V56.289H345.293V64.167H340.691V56.289ZM341.978 60.163V63.075H344.032V60.163H341.978ZM349.141 55.184H350.441V67.066H349.141V55.184ZM347.438 59.825H349.583V60.917H347.438V59.825ZM346.528 55.418H347.802V66.507H346.528V55.418ZM356.532 59.37H357.884V61.554H356.532V59.37ZM356.506 55.392H357.689V55.847C357.689 56.2717 357.611 56.679 357.455 57.069C357.299 57.4503 357.078 57.8057 356.792 58.135C356.506 58.4557 356.168 58.7417 355.778 58.993C355.388 59.2443 354.955 59.461 354.478 59.643C354.002 59.8163 353.495 59.9463 352.957 60.033L352.437 58.954C352.914 58.8933 353.36 58.7937 353.776 58.655C354.192 58.5163 354.565 58.3473 354.894 58.148C355.232 57.9487 355.523 57.7277 355.765 57.485C356.008 57.2423 356.19 56.9823 356.311 56.705C356.441 56.419 356.506 56.133 356.506 55.847V55.392ZM356.727 55.392H357.897V55.847C357.897 56.1417 357.962 56.4277 358.092 56.705C358.222 56.9823 358.404 57.2467 358.638 57.498C358.881 57.7407 359.171 57.9617 359.509 58.161C359.847 58.3603 360.22 58.5293 360.627 58.668C361.043 58.798 361.49 58.8933 361.966 58.954L361.459 60.033C360.922 59.9463 360.415 59.8163 359.938 59.643C359.462 59.461 359.024 59.2443 358.625 58.993C358.235 58.7417 357.897 58.4557 357.611 58.135C357.334 57.8143 357.117 57.4633 356.961 57.082C356.805 56.692 356.727 56.2803 356.727 55.847V55.392ZM351.852 60.982H362.59V62.074H351.852V60.982ZM357.195 62.893C358.478 62.893 359.479 63.075 360.198 63.439C360.926 63.803 361.29 64.3187 361.29 64.986C361.29 65.6533 360.926 66.1647 360.198 66.52C359.479 66.8753 358.478 67.053 357.195 67.053C355.921 67.053 354.92 66.8753 354.192 66.52C353.473 66.1647 353.113 65.6533 353.113 64.986C353.113 64.3187 353.473 63.803 354.192 63.439C354.92 63.075 355.921 62.893 357.195 62.893ZM357.195 63.933C356.32 63.933 355.648 64.024 355.18 64.206C354.712 64.3793 354.478 64.6393 354.478 64.986C354.478 65.3327 354.712 65.5927 355.18 65.766C355.648 65.9393 356.32 66.026 357.195 66.026C358.071 66.026 358.742 65.9393 359.21 65.766C359.678 65.5927 359.912 65.3327 359.912 64.986C359.912 64.6393 359.678 64.3793 359.21 64.206C358.742 64.024 358.071 63.933 357.195 63.933ZM371.814 55.184H373.179V67.092H371.814V55.184ZM364.04 56.159H365.392V59.188H368.395V56.159H369.747V64.271H364.04V56.159ZM365.392 60.254V63.166H368.395V60.254H365.392Z" fill="#878787"/>
<path d="M26 88.5H354C362.56 88.5 369.5 95.4396 369.5 104V138C369.5 146.56 362.56 153.5 354 153.5H26C17.4396 153.5 10.5 146.56 10.5 138V104C10.5 95.4396 17.4396 88.5 26 88.5Z" fill="#F8F8F8"/>
<path d="M26 88.5H354C362.56 88.5 369.5 95.4396 369.5 104V138C369.5 146.56 362.56 153.5 354 153.5H26C17.4396 153.5 10.5 146.56 10.5 138V104C10.5 95.4396 17.4396 88.5 26 88.5Z" stroke="#EBEDF5"/>
<path d="M26.825 104.265H30.605V105.87H26.825V104.265ZM26.825 108.585H30.605V110.19H26.825V108.585ZM24.41 102.39C25.1 102.39 25.715 102.595 26.255 103.005C26.805 103.405 27.23 103.98 27.53 104.73C27.84 105.47 27.995 106.345 27.995 107.355C27.995 108.375 27.84 109.26 27.53 110.01C27.23 110.75 26.805 111.325 26.255 111.735C25.715 112.135 25.1 112.335 24.41 112.335C23.72 112.335 23.105 112.135 22.565 111.735C22.025 111.325 21.6 110.75 21.29 110.01C20.98 109.26 20.825 108.375 20.825 107.355C20.825 106.345 20.98 105.47 21.29 104.73C21.6 103.98 22.025 103.405 22.565 103.005C23.105 102.595 23.72 102.39 24.41 102.39ZM24.41 104.205C24.08 104.205 23.785 104.325 23.525 104.565C23.275 104.805 23.075 105.16 22.925 105.63C22.785 106.09 22.715 106.665 22.715 107.355C22.715 108.035 22.785 108.615 22.925 109.095C23.075 109.565 23.275 109.92 23.525 110.16C23.785 110.4 24.08 110.52 24.41 110.52C24.76 110.52 25.06 110.4 25.31 110.16C25.56 109.92 25.755 109.565 25.895 109.095C26.035 108.615 26.105 108.035 26.105 107.355C26.105 106.665 26.035 106.09 25.895 105.63C25.755 105.16 25.56 104.805 25.31 104.565C25.06 104.325 24.76 104.205 24.41 104.205ZM30.275 101.415H32.27V115.35H30.275V101.415ZM43.9838 101.43H45.9788V115.32H43.9838V101.43ZM39.8888 102.87H41.8538C41.8538 103.93 41.7488 104.945 41.5388 105.915C41.3388 106.875 40.9988 107.78 40.5188 108.63C40.0488 109.48 39.3988 110.27 38.5688 111C37.7488 111.72 36.7238 112.38 35.4938 112.98L34.4438 111.405C35.7838 110.755 36.8488 110.04 37.6388 109.26C38.4388 108.47 39.0138 107.58 39.3638 106.59C39.7138 105.59 39.8888 104.47 39.8888 103.23V102.87ZM35.1938 102.87H40.8188V104.46H35.1938V102.87ZM57.8727 101.415H59.8677V115.35H57.8727V101.415ZM55.4427 106.275H58.3377V107.88H55.4427V106.275ZM51.4077 103.62H52.9977V104.865C52.9977 105.705 52.9177 106.53 52.7577 107.34C52.5977 108.15 52.3577 108.905 52.0377 109.605C51.7277 110.305 51.3327 110.925 50.8527 111.465C50.3727 112.005 49.8127 112.44 49.1727 112.77L48.0027 111.195C48.5827 110.925 49.0877 110.565 49.5177 110.115C49.9477 109.655 50.3027 109.145 50.5827 108.585C50.8627 108.015 51.0677 107.415 51.1977 106.785C51.3377 106.145 51.4077 105.505 51.4077 104.865V103.62ZM51.8727 103.62H53.4327V104.865C53.4327 105.475 53.4977 106.085 53.6277 106.695C53.7677 107.295 53.9777 107.87 54.2577 108.42C54.5477 108.96 54.9077 109.445 55.3377 109.875C55.7677 110.305 56.2727 110.655 56.8527 110.925L55.6977 112.485C55.0377 112.175 54.4677 111.76 53.9877 111.24C53.5077 110.72 53.1127 110.125 52.8027 109.455C52.4927 108.775 52.2577 108.045 52.0977 107.265C51.9477 106.485 51.8727 105.685 51.8727 104.865V103.62ZM48.5577 102.765H56.2827V104.37H48.5577V102.765ZM71.5815 101.43H73.5765V115.32H71.5815V101.43ZM67.4865 102.87H69.4515C69.4515 103.93 69.3465 104.945 69.1365 105.915C68.9365 106.875 68.5965 107.78 68.1165 108.63C67.6465 109.48 66.9965 110.27 66.1665 111C65.3465 111.72 64.3215 112.38 63.0915 112.98L62.0415 111.405C63.3815 110.755 64.4465 110.04 65.2365 109.26C66.0365 108.47 66.6115 107.58 66.9615 106.59C67.3115 105.59 67.4865 104.47 67.4865 103.23V102.87ZM62.7915 102.87H68.4165V104.46H62.7915V102.87ZM80.797 110.145H90.412V111.465H82.777V114.21H80.797V110.145ZM80.797 113.91H90.652V115.245H80.797V113.91ZM82.087 112.065H90.172V113.265H82.087V112.065ZM79.867 102.345H91.192V103.725H79.867V102.345ZM85.552 104.04C87.082 104.04 88.237 104.19 89.017 104.49C89.807 104.78 90.202 105.235 90.202 105.855C90.202 106.475 89.807 106.935 89.017 107.235C88.237 107.525 87.082 107.67 85.552 107.67C84.022 107.67 82.862 107.525 82.072 107.235C81.292 106.935 80.902 106.475 80.902 105.855C80.902 105.235 81.292 104.78 82.072 104.49C82.862 104.19 84.022 104.04 85.552 104.04ZM85.552 105.33C84.642 105.33 83.992 105.375 83.602 105.465C83.212 105.545 83.017 105.675 83.017 105.855C83.017 106.045 83.212 106.18 83.602 106.26C83.992 106.34 84.642 106.38 85.552 106.38C86.472 106.38 87.122 106.34 87.502 106.26C87.892 106.18 88.087 106.045 88.087 105.855C88.087 105.675 87.892 105.545 87.502 105.465C87.122 105.375 86.472 105.33 85.552 105.33ZM84.562 101.28H86.542V103.425H84.562V101.28ZM79.267 108.15H91.837V109.575H79.267V108.15ZM96.8758 102.39C97.5658 102.39 98.1808 102.595 98.7208 103.005C99.2708 103.405 99.6958 103.98 99.9958 104.73C100.306 105.47 100.461 106.345 100.461 107.355C100.461 108.375 100.306 109.26 99.9958 110.01C99.6958 110.75 99.2708 111.325 98.7208 111.735C98.1808 112.135 97.5658 112.335 96.8758 112.335C96.1858 112.335 95.5708 112.135 95.0308 111.735C94.4908 111.325 94.0658 110.75 93.7558 110.01C93.4458 109.26 93.2908 108.375 93.2908 107.355C93.2908 106.345 93.4458 105.47 93.7558 104.73C94.0658 103.98 94.4908 103.405 95.0308 103.005C95.5708 102.595 96.1858 102.39 96.8758 102.39ZM96.8758 104.205C96.5458 104.205 96.2508 104.325 95.9908 104.565C95.7408 104.805 95.5458 105.16 95.4058 105.63C95.2658 106.09 95.1958 106.665 95.1958 107.355C95.1958 108.035 95.2658 108.615 95.4058 109.095C95.5458 109.565 95.7408 109.92 95.9908 110.16C96.2508 110.4 96.5458 110.52 96.8758 110.52C97.2258 110.52 97.5258 110.4 97.7758 110.16C98.0258 109.92 98.2208 109.565 98.3608 109.095C98.5008 108.615 98.5708 108.035 98.5708 107.355C98.5708 106.665 98.5008 106.09 98.3608 105.63C98.2208 105.16 98.0258 104.805 97.7758 104.565C97.5258 104.325 97.2258 104.205 96.8758 104.205ZM102.741 101.415H104.736V115.35H102.741V101.415ZM99.8758 106.44H103.581V108.03H99.8758V106.44ZM110.24 102.99H111.89V104.16C111.89 105.03 111.745 105.86 111.455 106.65C111.175 107.43 110.745 108.115 110.165 108.705C109.585 109.285 108.845 109.72 107.945 110.01L106.925 108.45C107.705 108.2 108.335 107.85 108.815 107.4C109.305 106.95 109.665 106.445 109.895 105.885C110.125 105.315 110.24 104.74 110.24 104.16V102.99ZM110.66 102.99H112.28V104.16C112.28 104.57 112.345 104.98 112.475 105.39C112.605 105.79 112.8 106.175 113.06 106.545C113.33 106.905 113.67 107.23 114.08 107.52C114.49 107.81 114.975 108.045 115.535 108.225L114.53 109.77C113.66 109.49 112.94 109.07 112.37 108.51C111.8 107.95 111.37 107.295 111.08 106.545C110.8 105.785 110.66 104.99 110.66 104.16V102.99ZM107.465 102.42H115.025V104.01H107.465V102.42ZM116.42 101.445H118.415V111.465H116.42V101.445ZM109.16 113.49H118.775V115.095H109.16V113.49ZM109.16 110.565H111.155V114.285H109.16V110.565Z" fill="#0D0D12"/>
<path d="M23.66 124.18H25.295V125.425C25.295 126.335 25.155 127.2 24.875 128.02C24.605 128.83 24.185 129.54 23.615 130.15C23.045 130.76 22.32 131.215 21.44 131.515L20.39 129.955C21.17 129.685 21.8 129.32 22.28 128.86C22.76 128.39 23.11 127.855 23.33 127.255C23.55 126.655 23.66 126.045 23.66 125.425V124.18ZM24.065 124.18H25.67V125.605C25.67 126.025 25.73 126.435 25.85 126.835C25.98 127.235 26.17 127.61 26.42 127.96C26.67 128.31 26.99 128.625 27.38 128.905C27.77 129.175 28.24 129.395 28.79 129.565L27.755 131.125C26.915 130.845 26.22 130.43 25.67 129.88C25.13 129.33 24.725 128.69 24.455 127.96C24.195 127.23 24.065 126.445 24.065 125.605V124.18ZM29.54 123.445H31.535V131.65H29.54V123.445ZM30.995 126.655H33.38V128.305H30.995V126.655ZM27.005 131.965C27.975 131.965 28.81 132.075 29.51 132.295C30.21 132.505 30.75 132.81 31.13 133.21C31.51 133.6 31.7 134.08 31.7 134.65C31.7 135.21 31.51 135.69 31.13 136.09C30.75 136.49 30.21 136.795 29.51 137.005C28.81 137.225 27.975 137.335 27.005 137.335C26.045 137.335 25.21 137.225 24.5 137.005C23.8 136.795 23.255 136.49 22.865 136.09C22.485 135.69 22.295 135.21 22.295 134.65C22.295 134.08 22.485 133.6 22.865 133.21C23.255 132.81 23.8 132.505 24.5 132.295C25.21 132.075 26.045 131.965 27.005 131.965ZM27.005 133.51C26.415 133.51 25.92 133.555 25.52 133.645C25.12 133.725 24.815 133.85 24.605 134.02C24.395 134.18 24.29 134.39 24.29 134.65C24.29 134.9 24.395 135.11 24.605 135.28C24.815 135.45 25.12 135.58 25.52 135.67C25.92 135.75 26.415 135.79 27.005 135.79C27.595 135.79 28.09 135.75 28.49 135.67C28.9 135.58 29.205 135.45 29.405 135.28C29.615 135.11 29.72 134.9 29.72 134.65C29.72 134.39 29.615 134.18 29.405 134.02C29.205 133.85 28.9 133.725 28.49 133.645C28.09 133.555 27.595 133.51 27.005 133.51ZM39.6938 131.08H41.6738V133.18H39.6938V131.08ZM34.3988 129.94H46.9688V131.515H34.3988V129.94ZM35.4938 123.82H45.8588V125.41H35.4938V123.82ZM35.5988 127.495H45.7388V129.07H35.5988V127.495ZM37.2638 124.39H39.2588V128.53H37.2638V124.39ZM42.0938 124.39H44.0888V128.53H42.0938V124.39ZM35.8688 132.655H45.4688V137.185H35.8688V132.655ZM43.5188 134.215H37.8188V135.61H43.5188V134.215ZM51.7527 129.91H53.7477V133.045H51.7527V129.91ZM57.9927 123.43H60.0027V133.885H57.9927V123.43ZM49.9977 135.49H60.3177V137.095H49.9977V135.49ZM49.9977 132.85H51.9927V135.895H49.9977V132.85ZM48.3477 130.27L48.1077 128.68C48.9577 128.68 49.8877 128.67 50.8977 128.65C51.9077 128.63 52.9377 128.59 53.9877 128.53C55.0477 128.46 56.0677 128.36 57.0477 128.23L57.1677 129.64C56.1677 129.81 55.1477 129.94 54.1077 130.03C53.0677 130.12 52.0577 130.18 51.0777 130.21C50.0977 130.24 49.1877 130.26 48.3477 130.27ZM55.3227 130.855H58.4427V132.385H55.3227V130.855ZM49.3827 124.12H55.2627V125.71H49.3827V124.12ZM54.0177 124.12H55.9977V124.615C55.9977 125.015 55.9827 125.585 55.9527 126.325C55.9227 127.065 55.8177 127.95 55.6377 128.98L53.6727 128.86C53.8527 127.83 53.9527 126.965 53.9727 126.265C54.0027 125.555 54.0177 125.005 54.0177 124.615V124.12ZM68.2965 123.625C69.8765 123.625 71.1065 123.83 71.9865 124.24C72.8765 124.65 73.3215 125.24 73.3215 126.01C73.3215 126.77 72.8765 127.355 71.9865 127.765C71.1065 128.175 69.8765 128.38 68.2965 128.38C66.7065 128.38 65.4665 128.175 64.5765 127.765C63.6965 127.355 63.2565 126.77 63.2565 126.01C63.2565 125.24 63.6965 124.65 64.5765 124.24C65.4665 123.83 66.7065 123.625 68.2965 123.625ZM68.2815 125.095C67.6215 125.095 67.0715 125.13 66.6315 125.2C66.1915 125.26 65.8615 125.36 65.6415 125.5C65.4315 125.63 65.3265 125.8 65.3265 126.01C65.3265 126.22 65.4315 126.395 65.6415 126.535C65.8615 126.665 66.1915 126.76 66.6315 126.82C67.0715 126.88 67.6215 126.91 68.2815 126.91C68.9515 126.91 69.5065 126.88 69.9465 126.82C70.3865 126.76 70.7115 126.665 70.9215 126.535C71.1315 126.395 71.2365 126.22 71.2365 126.01C71.2365 125.8 71.1315 125.63 70.9215 125.5C70.7115 125.36 70.3865 125.26 69.9465 125.2C69.5065 125.13 68.9515 125.095 68.2815 125.095ZM61.9965 129.025H74.5665V130.6H61.9965V129.025ZM63.4365 131.38H73.0365V134.935H65.4315V136.165H63.4515V133.555H71.0715V132.85H63.4365V131.38ZM63.4515 135.73H73.4115V137.245H63.4515V135.73ZM88.207 123.445H90.202V133.825H88.207V123.445ZM89.647 127.675H92.047V129.325H89.647V127.675ZM79.282 124.9H87.442V126.46H79.282V124.9ZM83.362 126.955C84.032 126.955 84.622 127.07 85.132 127.3C85.652 127.52 86.057 127.835 86.347 128.245C86.637 128.645 86.782 129.105 86.782 129.625C86.782 130.155 86.637 130.625 86.347 131.035C86.057 131.435 85.652 131.75 85.132 131.98C84.622 132.2 84.032 132.31 83.362 132.31C82.702 132.31 82.112 132.2 81.592 131.98C81.072 131.75 80.667 131.435 80.377 131.035C80.087 130.625 79.942 130.155 79.942 129.625C79.942 129.105 80.087 128.645 80.377 128.245C80.667 127.835 81.072 127.52 81.592 127.3C82.112 127.07 82.702 126.955 83.362 126.955ZM83.362 128.47C82.922 128.47 82.562 128.57 82.282 128.77C82.002 128.97 81.862 129.26 81.862 129.64C81.862 130.01 82.002 130.295 82.282 130.495C82.562 130.695 82.922 130.795 83.362 130.795C83.812 130.795 84.172 130.695 84.442 130.495C84.722 130.295 84.862 130.01 84.862 129.64C84.862 129.26 84.722 128.97 84.442 128.77C84.172 128.57 83.812 128.47 83.362 128.47ZM82.372 123.43H84.352V125.65H82.372V123.43ZM81.247 135.49H90.697V137.095H81.247V135.49ZM81.247 133.045H83.257V136.18H81.247V133.045ZM99.6358 127.12H103.206V128.725H99.6358V127.12ZM102.696 123.445H104.706V133.69H102.696V123.445ZM95.5108 135.49H105.006V137.095H95.5108V135.49ZM95.5108 132.685H97.5058V136.405H95.5108V132.685ZM93.6508 124.36H95.6308V126.46H98.2708V124.36H100.236V131.53H93.6508V124.36ZM95.6308 127.99V129.94H98.2708V127.99H95.6308ZM112.43 128.545H114.71V130.15H112.43V128.545ZM116.9 123.43H118.805V137.32H116.9V123.43ZM114.08 123.655H115.94V136.705H114.08V123.655ZM110 124.405C110.61 124.405 111.14 124.61 111.59 125.02C112.05 125.42 112.4 126 112.64 126.76C112.89 127.51 113.015 128.41 113.015 129.46C113.015 130.5 112.89 131.4 112.64 132.16C112.4 132.92 112.05 133.505 111.59 133.915C111.14 134.315 110.605 134.515 109.985 134.515C109.385 134.515 108.855 134.315 108.395 133.915C107.945 133.505 107.595 132.92 107.345 132.16C107.105 131.4 106.985 130.5 106.985 129.46C106.985 128.41 107.105 127.51 107.345 126.76C107.595 126 107.945 125.42 108.395 125.02C108.855 124.61 109.39 124.405 110 124.405ZM110 126.295C109.75 126.295 109.535 126.41 109.355 126.64C109.175 126.87 109.035 127.22 108.935 127.69C108.845 128.15 108.8 128.74 108.8 129.46C108.8 130.16 108.845 130.745 108.935 131.215C109.035 131.685 109.175 132.04 109.355 132.28C109.535 132.51 109.75 132.625 110 132.625C110.25 132.625 110.465 132.51 110.645 132.28C110.835 132.04 110.975 131.685 111.065 131.215C111.155 130.745 111.2 130.16 111.2 129.46C111.2 128.74 111.155 128.15 111.065 127.69C110.975 127.22 110.835 126.87 110.645 126.64C110.465 126.41 110.25 126.295 110 126.295ZM126.775 123.745H128.275V124.54C128.275 125.2 128.165 125.83 127.945 126.43C127.735 127.02 127.4 127.545 126.94 128.005C126.48 128.455 125.88 128.795 125.14 129.025L124.24 127.555C124.84 127.385 125.325 127.14 125.695 126.82C126.065 126.5 126.335 126.14 126.505 125.74C126.685 125.34 126.775 124.94 126.775 124.54V123.745ZM127.285 123.745H128.77V124.54C128.77 124.9 128.85 125.265 129.01 125.635C129.18 125.995 129.44 126.33 129.79 126.64C130.14 126.94 130.585 127.18 131.125 127.36L130.42 128.905C129.66 128.675 129.05 128.335 128.59 127.885C128.13 127.425 127.795 126.905 127.585 126.325C127.385 125.735 127.285 125.14 127.285 124.54V123.745ZM132.055 123.745H133.54V124.54C133.54 125.14 133.435 125.735 133.225 126.325C133.025 126.905 132.695 127.425 132.235 127.885C131.785 128.335 131.18 128.675 130.42 128.905L129.7 127.36C130.25 127.18 130.7 126.94 131.05 126.64C131.4 126.34 131.655 126.01 131.815 125.65C131.975 125.28 132.055 124.91 132.055 124.54V123.745ZM132.58 123.745H134.065V124.54C134.065 124.96 134.15 125.37 134.32 125.77C134.5 126.16 134.775 126.515 135.145 126.835C135.515 127.145 136.005 127.385 136.615 127.555L135.715 129.025C134.975 128.795 134.37 128.455 133.9 128.005C133.44 127.555 133.105 127.035 132.895 126.445C132.685 125.845 132.58 125.21 132.58 124.54V123.745ZM124.135 130.09H136.72V131.665H124.135V130.09ZM129.43 128.92H131.41V131.305H129.43V128.92ZM125.5 132.7H135.19V137.335H133.225V134.275H125.5V132.7ZM138.479 133.054C138.458 132.383 138.54 131.815 138.724 131.35C138.909 130.885 139.177 130.531 139.529 130.29C139.884 130.048 140.301 129.928 140.78 129.928C141.114 129.928 141.434 129.997 141.739 130.135C142.045 130.274 142.391 130.513 142.778 130.854C142.984 131.036 143.158 131.174 143.3 131.27C143.442 131.362 143.605 131.408 143.79 131.408C144.042 131.408 144.25 131.311 144.413 131.115C144.577 130.917 144.653 130.602 144.642 130.173H146.379C146.404 130.847 146.322 131.417 146.134 131.882C145.945 132.348 145.674 132.701 145.319 132.942C144.964 133.184 144.55 133.305 144.078 133.305C143.726 133.305 143.396 133.232 143.087 133.086C142.781 132.937 142.442 132.699 142.069 132.373C141.849 132.177 141.673 132.037 141.542 131.952C141.411 131.863 141.254 131.819 141.073 131.819C140.821 131.819 140.613 131.914 140.45 132.106C140.287 132.294 140.21 132.61 140.221 133.054H138.479Z" fill="#7D4BE5"/>
<path d="M278 116C278 110.477 282.477 106 288 106H342C347.523 106 352 110.477 352 116V125C352 130.523 347.523 135 342 135H288C282.477 135 278 130.523 278 125V116Z" fill="#8147F2"/>
<path d="M293.064 120.652H302.976V121.684H293.064V120.652ZM294.288 118.732H301.824V119.74H294.288V118.732ZM294.288 115.9H301.764V116.92H295.536V119.212H294.288V115.9ZM297.984 122.488C299.168 122.488 300.092 122.664 300.756 123.016C301.428 123.36 301.764 123.852 301.764 124.492C301.764 125.124 301.428 125.612 300.756 125.956C300.092 126.3 299.168 126.472 297.984 126.472C296.816 126.472 295.896 126.3 295.224 125.956C294.552 125.612 294.216 125.124 294.216 124.492C294.216 123.852 294.552 123.36 295.224 123.016C295.896 122.664 296.816 122.488 297.984 122.488ZM297.984 123.46C297.456 123.46 297.004 123.5 296.628 123.58C296.252 123.66 295.964 123.776 295.764 123.928C295.572 124.072 295.476 124.26 295.476 124.492C295.476 124.716 295.572 124.904 295.764 125.056C295.964 125.208 296.252 125.324 296.628 125.404C297.004 125.476 297.456 125.512 297.984 125.512C298.528 125.512 298.984 125.476 299.352 125.404C299.728 125.324 300.012 125.208 300.204 125.056C300.396 124.904 300.492 124.716 300.492 124.492C300.492 124.26 300.396 124.072 300.204 123.928C300.012 123.776 299.728 123.66 299.352 123.58C298.984 123.5 298.528 123.46 297.984 123.46ZM304.091 121.492H314.027V122.5H304.091V121.492ZM305.327 115.768H312.779V118.564H306.587V119.92H305.351V117.664H311.531V116.74H305.327V115.768ZM305.351 119.524H312.995V120.496H305.351V119.524ZM308.423 120.016H309.683V122.008H308.423V120.016ZM305.183 123.232H312.839V126.424H311.579V124.252H305.183V123.232ZM322.378 115.528H323.638V126.496H322.378V115.528ZM323.35 119.932H325.33V120.976H323.35V119.932ZM315.07 117.22H321.502V118.228H315.07V117.22ZM318.334 119.008C318.854 119.008 319.318 119.12 319.726 119.344C320.134 119.56 320.454 119.86 320.686 120.244C320.926 120.628 321.046 121.068 321.046 121.564C321.046 122.068 320.926 122.512 320.686 122.896C320.454 123.28 320.134 123.584 319.726 123.808C319.318 124.024 318.85 124.132 318.322 124.132C317.802 124.132 317.338 124.024 316.93 123.808C316.522 123.584 316.198 123.28 315.958 122.896C315.726 122.512 315.61 122.068 315.61 121.564C315.61 121.068 315.726 120.628 315.958 120.244C316.198 119.86 316.522 119.56 316.93 119.344C317.338 119.12 317.806 119.008 318.334 119.008ZM318.322 120.04C318.034 120.04 317.774 120.104 317.542 120.232C317.31 120.36 317.126 120.54 316.99 120.772C316.862 120.996 316.798 121.26 316.798 121.564C316.798 121.876 316.862 122.148 316.99 122.38C317.126 122.604 317.31 122.78 317.542 122.908C317.774 123.036 318.034 123.1 318.322 123.1C318.618 123.1 318.878 123.036 319.102 122.908C319.334 122.78 319.514 122.604 319.642 122.38C319.778 122.148 319.846 121.876 319.846 121.564C319.846 121.26 319.778 120.996 319.642 120.772C319.514 120.54 319.334 120.36 319.102 120.232C318.878 120.104 318.618 120.04 318.322 120.04ZM317.686 115.672H318.946V117.64H317.686V115.672ZM333.969 115.516H335.229V126.484H333.969V115.516ZM330.741 116.68H331.989C331.989 117.496 331.901 118.276 331.725 119.02C331.549 119.764 331.261 120.472 330.861 121.144C330.469 121.808 329.949 122.424 329.301 122.992C328.661 123.56 327.869 124.072 326.925 124.528L326.253 123.532C327.317 123.02 328.177 122.436 328.833 121.78C329.489 121.124 329.969 120.392 330.273 119.584C330.585 118.768 330.741 117.872 330.741 116.896V116.68ZM326.793 116.68H331.305V117.688H326.793V116.68Z" fill="white"/>
<rect x="13" y="2" width="126" height="30" rx="15" fill="white"/>
<path d="M71.174 14.382H74.06V15.487H71.174V14.382ZM73.319 11.197H74.684V19.881H73.319V11.197ZM66.988 21.727H74.996V22.832H66.988V21.727ZM66.988 19.127H68.353V22.338H66.988V19.127ZM67.742 12.705H68.86V13.576C68.86 14.304 68.7257 14.9973 68.457 15.656C68.197 16.306 67.82 16.8737 67.326 17.359C66.832 17.8443 66.234 18.2127 65.532 18.464L64.83 17.385C65.298 17.2203 65.7097 17.008 66.065 16.748C66.429 16.488 66.7367 16.189 66.988 15.851C67.2393 15.513 67.4257 15.149 67.547 14.759C67.677 14.369 67.742 13.9747 67.742 13.576V12.705ZM68.015 12.705H69.12V13.563C69.12 14.057 69.2283 14.538 69.445 15.006C69.6617 15.474 69.978 15.8943 70.394 16.267C70.81 16.6397 71.317 16.93 71.915 17.138L71.239 18.204C70.5543 17.9613 69.9693 17.6103 69.484 17.151C69.0073 16.683 68.6433 16.1413 68.392 15.526C68.1407 14.902 68.015 14.2477 68.015 13.563V12.705ZM65.233 12.094H71.59V13.186H65.233V12.094ZM81.23 15.799H83.31V16.904H81.23V15.799ZM78.669 14.343H79.709V14.824C79.709 15.4307 79.6527 16.0287 79.54 16.618C79.4273 17.1987 79.2583 17.7533 79.033 18.282C78.8163 18.8107 78.539 19.2873 78.201 19.712C77.863 20.128 77.4687 20.466 77.018 20.726L76.238 19.699C76.6453 19.4563 77.0007 19.1573 77.304 18.802C77.616 18.4467 77.8717 18.0523 78.071 17.619C78.2703 17.177 78.4177 16.722 78.513 16.254C78.617 15.7773 78.669 15.3007 78.669 14.824V14.343ZM78.916 14.343H79.956V14.824C79.956 15.2833 80.0037 15.7427 80.099 16.202C80.203 16.6527 80.3547 17.086 80.554 17.502C80.762 17.9093 81.0177 18.282 81.321 18.62C81.6243 18.9493 81.9797 19.2223 82.387 19.439L81.633 20.466C81.0263 20.1367 80.5193 19.6817 80.112 19.101C79.7133 18.5117 79.4143 17.8487 79.215 17.112C79.0157 16.3753 78.916 15.6127 78.916 14.824V14.343ZM76.615 13.29H81.984V14.408H76.615V13.29ZM78.669 11.6H79.969V14.161H78.669V11.6ZM85.221 11.184H86.521V23.066H85.221V11.184ZM82.842 11.431H84.116V22.494H82.842V11.431Z" fill="black"/>
<path d="M171.068 17.411H181.806V18.503H171.068V17.411ZM175.748 15.708H177.1V17.944H175.748V15.708ZM172.407 21.727H180.61V22.832H172.407V21.727ZM172.407 19.4H173.772V22.091H172.407V19.4ZM176.437 11.522C177.286 11.522 178.027 11.6173 178.66 11.808C179.292 11.9987 179.782 12.276 180.129 12.64C180.484 12.9953 180.662 13.4243 180.662 13.927C180.662 14.421 180.484 14.85 180.129 15.214C179.782 15.5693 179.292 15.8467 178.66 16.046C178.027 16.2367 177.286 16.332 176.437 16.332C175.579 16.332 174.833 16.2367 174.201 16.046C173.568 15.8467 173.074 15.5693 172.719 15.214C172.372 14.85 172.199 14.421 172.199 13.927C172.199 13.4243 172.372 12.9953 172.719 12.64C173.074 12.276 173.568 11.9987 174.201 11.808C174.833 11.6173 175.579 11.522 176.437 11.522ZM176.437 12.614C175.856 12.614 175.353 12.666 174.929 12.77C174.504 12.874 174.175 13.0213 173.941 13.212C173.715 13.4027 173.603 13.6367 173.603 13.914C173.603 14.2 173.715 14.4427 173.941 14.642C174.175 14.8327 174.504 14.98 174.929 15.084C175.353 15.188 175.856 15.24 176.437 15.24C177.017 15.24 177.52 15.188 177.945 15.084C178.369 14.98 178.694 14.8327 178.92 14.642C179.145 14.4427 179.258 14.2 179.258 13.914C179.258 13.6367 179.145 13.4027 178.92 13.212C178.694 13.0213 178.369 12.874 177.945 12.77C177.52 12.666 177.017 12.614 176.437 12.614ZM190.471 11.184H191.836V23.092H190.471V11.184ZM191.524 15.799H193.669V16.93H191.524V15.799ZM183.1 19.14H184.075C184.785 19.14 185.44 19.1313 186.038 19.114C186.644 19.0967 187.234 19.0577 187.806 18.997C188.378 18.9363 188.958 18.854 189.548 18.75L189.678 19.868C189.062 19.972 188.464 20.0543 187.884 20.115C187.312 20.1757 186.714 20.219 186.09 20.245C185.474 20.2623 184.803 20.271 184.075 20.271H183.1V19.14ZM183.074 12.25H188.495V16.657H184.452V19.582H183.1V15.565H187.143V13.355H183.074V12.25ZM202.593 11.197H203.958V19.816H202.593V11.197ZM196.21 21.727H204.296V22.832H196.21V21.727ZM196.21 18.945H197.562V22.156H196.21V18.945ZM197.549 11.99C198.147 11.99 198.685 12.1157 199.161 12.367C199.638 12.6183 200.015 12.9693 200.292 13.42C200.57 13.862 200.708 14.3733 200.708 14.954C200.708 15.526 200.57 16.0373 200.292 16.488C200.015 16.9387 199.638 17.2897 199.161 17.541C198.685 17.7923 198.147 17.918 197.549 17.918C196.951 17.918 196.414 17.7923 195.937 17.541C195.461 17.2897 195.084 16.9387 194.806 16.488C194.529 16.0373 194.39 15.526 194.39 14.954C194.39 14.3733 194.529 13.862 194.806 13.42C195.084 12.9693 195.461 12.6183 195.937 12.367C196.414 12.1157 196.951 11.99 197.549 11.99ZM197.549 13.173C197.203 13.173 196.891 13.2467 196.613 13.394C196.336 13.5413 196.119 13.7493 195.963 14.018C195.807 14.278 195.729 14.59 195.729 14.954C195.729 15.318 195.807 15.6343 195.963 15.903C196.119 16.163 196.336 16.3667 196.613 16.514C196.891 16.6613 197.203 16.735 197.549 16.735C197.896 16.735 198.208 16.6613 198.485 16.514C198.763 16.3667 198.979 16.163 199.135 15.903C199.3 15.6343 199.382 15.318 199.382 14.954C199.382 14.59 199.3 14.278 199.135 14.018C198.979 13.7493 198.763 13.5413 198.485 13.394C198.208 13.2467 197.896 13.173 197.549 13.173Z" fill="#7E7E7E"/>
<path d="M295.213 14.057H297.683V15.175H295.213V14.057ZM297.319 11.197H298.684V18.1H297.319V11.197ZM290.884 18.646H298.684V22.923H290.884V18.646ZM297.358 19.712H292.223V21.844H297.358V19.712ZM291.742 12.302H292.86V13.173C292.86 13.901 292.726 14.5943 292.457 15.253C292.197 15.903 291.82 16.4707 291.326 16.956C290.832 17.4413 290.234 17.8097 289.532 18.061L288.83 16.982C289.298 16.8173 289.71 16.605 290.065 16.345C290.429 16.085 290.737 15.786 290.988 15.448C291.239 15.1013 291.426 14.7373 291.547 14.356C291.677 13.966 291.742 13.5717 291.742 13.173V12.302ZM292.015 12.302H293.12V13.173C293.12 13.6583 293.228 14.135 293.445 14.603C293.662 15.071 293.978 15.4913 294.394 15.864C294.81 16.2367 295.317 16.527 295.915 16.735L295.239 17.801C294.554 17.567 293.969 17.216 293.484 16.748C293.007 16.28 292.643 15.7383 292.392 15.123C292.141 14.499 292.015 13.849 292.015 13.173V12.302ZM289.233 11.886H295.59V12.978H289.233V11.886ZM300.394 20.544H311.158V21.662H300.394V20.544ZM305.061 17.632H306.426V21.038H305.061V17.632ZM301.278 12.25H310.209V13.355H301.278V12.25ZM301.33 17.008H310.183V18.1H301.33V17.008ZM303.033 13.147H304.385V17.164H303.033V13.147ZM307.102 13.147H308.454V17.164H307.102V13.147Z" fill="#7E7E7E"/>
</svg>
