<svg width="300" height="128" viewBox="0 0 300 128" fill="none" xmlns="http://www.w3.org/2000/svg">
<rect x="2.5" y="2.5" width="295" height="123" rx="27.5" fill="white"/>
<rect x="2.5" y="2.5" width="295" height="123" rx="27.5" stroke="url(#paint0_linear_3039_3030)" stroke-width="5"/>
<path d="M52.0552 46.056V48L38.4472 48.672L38.1352 46.512L52.0552 46.056ZM38.8072 41.328H52.5352V43.368H38.8072V41.328ZM36.3832 51.744H56.2072V53.808H36.3832V51.744ZM45.0472 53.328H47.5432V61.968H45.0472V53.328ZM51.4312 41.328H53.8552V43.32C53.8552 44.12 53.8392 44.968 53.8072 45.864C53.7912 46.744 53.7192 47.712 53.5912 48.768C53.4632 49.824 53.2552 51 52.9672 52.296L50.5192 52.008C50.9672 50.168 51.2312 48.56 51.3112 47.184C51.3912 45.792 51.4312 44.504 51.4312 43.32V41.328ZM59.8293 40.968H76.0533V42.984H59.8293V40.968ZM59.9493 47.376H75.9093V49.368H59.9493V47.376ZM62.9253 41.808H65.4213V48.36H62.9253V41.808ZM70.4613 41.808H72.9573V48.36H70.4613V41.808ZM58.0533 51.72H77.8773V53.76H58.0533V51.72ZM66.6933 48.72H69.1893V52.944H66.6933V48.72ZM60.5253 59.496H75.6693V61.536H60.5253V59.496ZM60.5253 55.44H63.0453V60.192H60.5253V55.44ZM95.2514 40.032H97.7714V62.016H95.2514V40.032ZM86.1074 41.64C87.1954 41.64 88.1634 41.96 89.0114 42.6C89.8754 43.24 90.5474 44.136 91.0274 45.288C91.5074 46.44 91.7474 47.8 91.7474 49.368C91.7474 50.952 91.5074 52.328 91.0274 53.496C90.5474 54.648 89.8754 55.544 89.0114 56.184C88.1634 56.808 87.1954 57.12 86.1074 57.12C85.0194 57.12 84.0434 56.808 83.1794 56.184C82.3314 55.544 81.6594 54.648 81.1634 53.496C80.6834 52.328 80.4434 50.952 80.4434 49.368C80.4434 47.8 80.6834 46.44 81.1634 45.288C81.6594 44.136 82.3314 43.24 83.1794 42.6C84.0434 41.96 85.0194 41.64 86.1074 41.64ZM86.1074 43.92C85.4674 43.92 84.8994 44.136 84.4034 44.568C83.9234 45 83.5474 45.624 83.2754 46.44C83.0034 47.256 82.8674 48.232 82.8674 49.368C82.8674 50.52 83.0034 51.504 83.2754 52.32C83.5474 53.136 83.9234 53.768 84.4034 54.216C84.8994 54.648 85.4674 54.864 86.1074 54.864C86.7474 54.864 87.3074 54.648 87.7874 54.216C88.2674 53.768 88.6434 53.136 88.9154 52.32C89.1874 51.504 89.3234 50.52 89.3234 49.368C89.3234 48.232 89.1874 47.256 88.9154 46.44C88.6434 45.624 88.2674 45 87.7874 44.568C87.3074 44.136 86.7474 43.92 86.1074 43.92ZM108.105 40.968H110.601V43.872H115.953V40.968H118.449V50.544H108.105V40.968ZM110.601 45.792V48.576H115.953V45.792H110.601ZM121.953 40.056H124.449V51.288H121.953V40.056ZM123.417 44.544H127.545V46.608H123.417V44.544ZM110.289 52.248H124.449V57.864H112.809V60.84H110.337V56.016H121.977V54.192H110.289V52.248ZM110.337 59.808H125.169V61.776H110.337V59.808ZM131.479 52.56H133.975V55.176H143.887V52.56H146.383V61.704H131.479V52.56ZM133.975 57.144V59.688H143.887V57.144H133.975ZM131.503 40.992H145.519V43.008H131.503V40.992ZM129.007 48.816H148.879V50.856H129.007V48.816ZM143.935 40.992H146.407V42.648C146.407 43.56 146.375 44.544 146.311 45.6C146.263 46.64 146.079 47.88 145.759 49.32L143.239 49.416C143.591 47.96 143.791 46.696 143.839 45.624C143.903 44.552 143.935 43.56 143.935 42.648V40.992ZM152.309 49.248H163.613V51.264H152.309V49.248ZM156.629 50.88H159.149V55.728H156.629V50.88ZM152.309 42.048H163.517V44.088H154.805V49.896H152.309V42.048ZM166.205 40.032H168.725V62.016H166.205V40.032ZM151.109 57.456L150.773 55.392C152.197 55.376 153.709 55.36 155.309 55.344C156.909 55.328 158.525 55.28 160.157 55.2C161.789 55.104 163.365 54.976 164.885 54.816L165.077 56.664C163.493 56.904 161.885 57.088 160.253 57.216C158.637 57.328 157.053 57.4 155.501 57.432C153.949 57.448 152.485 57.456 151.109 57.456ZM177.771 53.304H179.691V54.384C179.691 55.408 179.507 56.408 179.139 57.384C178.787 58.344 178.243 59.2 177.507 59.952C176.787 60.704 175.875 61.288 174.771 61.704L173.523 59.856C174.467 59.504 175.251 59.04 175.875 58.464C176.499 57.872 176.971 57.224 177.291 56.52C177.611 55.8 177.771 55.088 177.771 54.384V53.304ZM178.371 53.304H180.195V54.384C180.195 55.12 180.331 55.848 180.603 56.568C180.875 57.288 181.299 57.952 181.875 58.56C182.451 59.168 183.179 59.656 184.059 60.024L183.003 61.896C181.915 61.464 181.027 60.856 180.339 60.072C179.651 59.288 179.147 58.4 178.827 57.408C178.523 56.416 178.371 55.408 178.371 54.384V53.304ZM185.811 53.304H187.659V54.384C187.659 55.312 187.499 56.272 187.179 57.264C186.859 58.256 186.355 59.168 185.667 60C184.995 60.816 184.107 61.448 183.003 61.896L181.971 60.024C182.851 59.624 183.571 59.104 184.131 58.464C184.707 57.824 185.131 57.144 185.403 56.424C185.675 55.704 185.811 55.024 185.811 54.384V53.304ZM186.387 53.304H188.283V54.384C188.283 55.136 188.443 55.872 188.763 56.592C189.083 57.312 189.555 57.96 190.179 58.536C190.803 59.096 191.595 59.536 192.555 59.856L191.283 61.704C190.195 61.304 189.283 60.736 188.547 60C187.811 59.28 187.267 58.432 186.915 57.456C186.563 56.48 186.387 55.456 186.387 54.384V53.304ZM183.099 45.36H188.619V47.424H183.099V45.36ZM178.347 41.232C179.435 41.232 180.403 41.456 181.251 41.904C182.115 42.336 182.795 42.944 183.291 43.728C183.787 44.512 184.035 45.408 184.035 46.416C184.035 47.44 183.787 48.344 183.291 49.128C182.795 49.896 182.115 50.504 181.251 50.952C180.403 51.384 179.435 51.6 178.347 51.6C177.275 51.6 176.307 51.384 175.443 50.952C174.579 50.504 173.899 49.896 173.403 49.128C172.923 48.344 172.683 47.44 172.683 46.416C172.683 45.408 172.923 44.512 173.403 43.728C173.899 42.944 174.579 42.336 175.443 41.904C176.307 41.456 177.275 41.232 178.347 41.232ZM178.347 43.32C177.723 43.32 177.163 43.448 176.667 43.704C176.171 43.96 175.779 44.32 175.491 44.784C175.203 45.248 175.059 45.792 175.059 46.416C175.059 47.04 175.203 47.584 175.491 48.048C175.779 48.512 176.171 48.88 176.667 49.152C177.163 49.408 177.723 49.536 178.347 49.536C178.987 49.536 179.547 49.408 180.027 49.152C180.523 48.88 180.915 48.512 181.203 48.048C181.491 47.584 181.635 47.04 181.635 46.416C181.635 45.792 181.491 45.248 181.203 44.784C180.915 44.32 180.523 43.96 180.027 43.704C179.547 43.448 178.987 43.32 178.347 43.32ZM187.995 40.056H190.515V52.44H187.995V40.056ZM196.442 53.184H198.914V55.416H208.802V53.184H211.274V61.704H196.442V53.184ZM198.914 57.336V59.712H208.802V57.336H198.914ZM194.018 49.848H213.842V51.864H194.018V49.848ZM202.634 40.272H204.794V41.112C204.794 41.88 204.65 42.608 204.362 43.296C204.074 43.968 203.666 44.6 203.138 45.192C202.61 45.768 201.978 46.288 201.242 46.752C200.522 47.2 199.714 47.576 198.818 47.88C197.938 48.184 196.994 48.408 195.986 48.552L195.074 46.584C195.938 46.472 196.754 46.296 197.522 46.056C198.306 45.8 199.01 45.496 199.634 45.144C200.258 44.792 200.794 44.4 201.242 43.968C201.69 43.536 202.034 43.08 202.274 42.6C202.514 42.12 202.634 41.624 202.634 41.112V40.272ZM203.042 40.272H205.202V41.112C205.202 41.624 205.322 42.12 205.562 42.6C205.802 43.08 206.146 43.536 206.594 43.968C207.058 44.4 207.602 44.792 208.226 45.144C208.85 45.496 209.546 45.8 210.314 46.056C211.082 46.312 211.906 46.488 212.786 46.584L211.85 48.552C210.858 48.408 209.914 48.184 209.018 47.88C208.138 47.576 207.33 47.192 206.594 46.728C205.874 46.264 205.25 45.744 204.722 45.168C204.194 44.592 203.778 43.968 203.474 43.296C203.186 42.608 203.042 41.88 203.042 41.112V40.272ZM231.288 40.032H233.808V61.968H231.288V40.032ZM216.96 42.168H219.456V55.776H216.96V42.168ZM216.96 54.288H218.832C220.48 54.288 222.176 54.216 223.92 54.072C225.664 53.928 227.448 53.664 229.272 53.28L229.56 55.416C227.672 55.8 225.84 56.064 224.064 56.208C222.288 56.352 220.544 56.424 218.832 56.424H216.96V54.288ZM251.83 40.032H254.35V62.016H251.83V40.032ZM253.798 48.456H257.758V50.544H253.798V48.456ZM238.246 54.528H240.022C241.334 54.528 242.542 54.512 243.646 54.48C244.75 54.432 245.822 54.36 246.862 54.264C247.902 54.152 248.958 54 250.03 53.808L250.294 55.896C249.19 56.104 248.102 56.264 247.03 56.376C245.974 56.472 244.87 56.544 243.718 56.592C242.582 56.624 241.35 56.64 240.022 56.64H238.246V54.528ZM238.246 42.12H248.446V44.16H240.742V55.512H238.246V42.12ZM261.316 60.1619C260.85 60.1619 260.45 59.9972 260.114 59.6676C259.779 59.3324 259.611 58.929 259.611 58.4574C259.611 57.9915 259.779 57.5937 260.114 57.2642C260.45 56.929 260.85 56.7614 261.316 56.7614C261.782 56.7614 262.182 56.929 262.518 57.2642C262.853 57.5937 263.021 57.9915 263.021 58.4574C263.021 58.7699 262.941 59.0568 262.782 59.3182C262.629 59.5739 262.424 59.7784 262.168 59.9318C261.913 60.0852 261.629 60.1619 261.316 60.1619Z" fill="black"/>
<path d="M74.5934 74.285V75.5L66.0884 75.92L65.8934 74.57L74.5934 74.285ZM66.3134 71.33H74.8934V72.605H66.3134V71.33ZM64.7984 77.84H77.1884V79.13H64.7984V77.84ZM70.2134 78.83H71.7734V84.23H70.2134V78.83ZM74.2034 71.33H75.7184V72.575C75.7184 73.075 75.7084 73.605 75.6884 74.165C75.6784 74.715 75.6334 75.32 75.5534 75.98C75.4734 76.64 75.3434 77.375 75.1634 78.185L73.6334 78.005C73.9134 76.855 74.0784 75.85 74.1284 74.99C74.1784 74.12 74.2034 73.315 74.2034 72.575V71.33ZM79.2993 71.105H89.4393V72.365H79.2993V71.105ZM79.3743 75.11H89.3493V76.355H79.3743V75.11ZM81.2343 71.63H82.7943V75.725H81.2343V71.63ZM85.9443 71.63H87.5043V75.725H85.9443V71.63ZM78.1893 77.825H90.5793V79.1H78.1893V77.825ZM83.5893 75.95H85.1493V78.59H83.5893V75.95ZM79.7343 82.685H89.1993V83.96H79.7343V82.685ZM79.7343 80.15H81.3093V83.12H79.7343V80.15ZM100.715 70.535H102.275V78.785H100.715V70.535ZM101.855 74.06H104.21V75.35H101.855V74.06ZM93.5301 79.475H102.275V84.065H93.5301V79.475ZM100.745 80.735H95.0751V82.82H100.745V80.735ZM91.5951 71.87H99.6801V73.13H91.5951V71.87ZM95.6451 73.7C96.3051 73.7 96.8801 73.8 97.3701 74C97.8701 74.2 98.2601 74.485 98.5401 74.855C98.8201 75.225 98.9601 75.655 98.9601 76.145C98.9601 76.635 98.8201 77.065 98.5401 77.435C98.2601 77.805 97.8701 78.09 97.3701 78.29C96.8801 78.49 96.3051 78.59 95.6451 78.59C94.9851 78.59 94.4051 78.49 93.9051 78.29C93.4051 78.09 93.0151 77.805 92.7351 77.435C92.4551 77.065 92.3151 76.635 92.3151 76.145C92.3151 75.655 92.4551 75.225 92.7351 74.855C93.0151 74.485 93.4051 74.2 93.9051 74C94.4051 73.8 94.9851 73.7 95.6451 73.7ZM95.6451 74.87C95.0951 74.87 94.6501 74.985 94.3101 75.215C93.9801 75.435 93.8151 75.75 93.8151 76.16C93.8151 76.55 93.9801 76.86 94.3101 77.09C94.6501 77.31 95.0951 77.42 95.6451 77.42C96.1851 77.42 96.6201 77.31 96.9501 77.09C97.2801 76.86 97.4451 76.55 97.4451 76.16C97.4451 75.75 97.2801 75.435 96.9501 75.215C96.6201 74.985 96.1851 74.87 95.6451 74.87ZM94.8501 70.43H96.4251V72.545H94.8501V70.43ZM109.058 76.475H109.973C110.663 76.475 111.278 76.47 111.818 76.46C112.358 76.44 112.868 76.405 113.348 76.355C113.838 76.305 114.333 76.235 114.833 76.145L114.983 77.42C114.463 77.51 113.953 77.58 113.453 77.63C112.963 77.68 112.438 77.715 111.878 77.735C111.318 77.745 110.683 77.75 109.973 77.75H109.058V76.475ZM109.058 71.315H114.398V72.575H110.573V77.42H109.058V71.315ZM110.123 73.88H114.248V75.095H110.123V73.88ZM118.643 70.535H120.143V78.32H118.643V70.535ZM116.738 73.745H119.138V75.02H116.738V73.745ZM115.658 70.79H117.128V78.215H115.658V70.79ZM111.008 78.83H112.568V80.165H118.598V78.83H120.143V84.065H111.008V78.83ZM112.568 81.395V82.805H118.598V81.395H112.568ZM127.443 75.725H129.888V77.015H127.443V75.725ZM132.123 70.52H133.623V84.23H132.123V70.52ZM129.378 70.79H130.848V83.585H129.378V70.79ZM124.998 71.585C125.598 71.585 126.118 71.785 126.558 72.185C127.008 72.575 127.353 73.135 127.593 73.865C127.833 74.585 127.953 75.45 127.953 76.46C127.953 77.46 127.833 78.325 127.593 79.055C127.353 79.785 127.008 80.345 126.558 80.735C126.118 81.125 125.598 81.32 124.998 81.32C124.408 81.32 123.893 81.125 123.453 80.735C123.013 80.345 122.673 79.785 122.433 79.055C122.193 78.325 122.073 77.46 122.073 76.46C122.073 75.45 122.193 74.585 122.433 73.865C122.673 73.135 123.013 72.575 123.453 72.185C123.903 71.785 124.418 71.585 124.998 71.585ZM124.998 73.07C124.698 73.07 124.433 73.2 124.203 73.46C123.973 73.72 123.798 74.105 123.678 74.615C123.558 75.115 123.498 75.73 123.498 76.46C123.498 77.17 123.558 77.78 123.678 78.29C123.798 78.8 123.973 79.19 124.203 79.46C124.433 79.72 124.698 79.85 124.998 79.85C125.318 79.85 125.588 79.72 125.808 79.46C126.038 79.19 126.213 78.8 126.333 78.29C126.453 77.78 126.513 77.17 126.513 76.46C126.513 75.73 126.453 75.115 126.333 74.615C126.213 74.105 126.038 73.72 125.808 73.46C125.588 73.2 125.318 73.07 124.998 73.07ZM142.184 75.02H145.919V76.295H142.184V75.02ZM138.689 71.645H139.964V73.895C139.964 74.705 139.879 75.495 139.709 76.265C139.539 77.025 139.289 77.74 138.959 78.41C138.639 79.07 138.244 79.66 137.774 80.18C137.314 80.69 136.789 81.095 136.199 81.395L135.224 80.15C135.764 79.89 136.244 79.54 136.664 79.1C137.094 78.66 137.459 78.16 137.759 77.6C138.069 77.03 138.299 76.435 138.449 75.815C138.609 75.185 138.689 74.545 138.689 73.895V71.645ZM139.004 71.645H140.264V73.895C140.264 74.525 140.339 75.15 140.489 75.77C140.649 76.38 140.879 76.955 141.179 77.495C141.479 78.025 141.839 78.5 142.259 78.92C142.679 79.34 143.154 79.67 143.684 79.91L142.739 81.17C142.149 80.87 141.624 80.475 141.164 79.985C140.704 79.485 140.314 78.915 139.994 78.275C139.674 77.635 139.429 76.945 139.259 76.205C139.089 75.455 139.004 74.685 139.004 73.895V71.645ZM145.124 70.52H146.699V84.26H145.124V70.52ZM155.642 76.895H157.202V78.725H155.642V76.895ZM161.432 70.535H162.992V79.79H161.432V70.535ZM162.392 74.57H164.882V75.875H162.392V74.57ZM152.342 79.445L152.147 78.2C152.977 78.2 153.872 78.195 154.832 78.185C155.802 78.175 156.787 78.145 157.787 78.095C158.797 78.035 159.772 77.94 160.712 77.81L160.832 78.905C159.862 79.075 158.877 79.2 157.877 79.28C156.877 79.35 155.902 79.395 154.952 79.415C154.012 79.435 153.142 79.445 152.342 79.445ZM153.857 80.42H162.992V84.245H161.432V81.65H153.857V80.42ZM152.492 71.66H160.322V72.815H152.492V71.66ZM156.407 73.25C157.397 73.25 158.187 73.435 158.777 73.805C159.377 74.165 159.677 74.66 159.677 75.29C159.677 75.92 159.377 76.415 158.777 76.775C158.187 77.135 157.397 77.315 156.407 77.315C155.427 77.315 154.637 77.135 154.037 76.775C153.447 76.415 153.152 75.92 153.152 75.29C153.152 74.66 153.447 74.165 154.037 73.805C154.637 73.435 155.427 73.25 156.407 73.25ZM156.407 74.3C155.867 74.3 155.437 74.385 155.117 74.555C154.797 74.725 154.637 74.97 154.637 75.29C154.637 75.59 154.797 75.83 155.117 76.01C155.437 76.18 155.867 76.265 156.407 76.265C156.957 76.265 157.387 76.18 157.697 76.01C158.017 75.83 158.177 75.59 158.177 75.29C158.177 74.97 158.017 74.725 157.697 74.555C157.387 74.385 156.957 74.3 156.407 74.3ZM155.642 70.415H157.202V72.215H155.642V70.415ZM175.378 70.535H176.953V80.48H175.378V70.535ZM168.013 82.685H177.343V83.96H168.013V82.685ZM168.013 79.475H169.573V83.18H168.013V79.475ZM169.558 71.45C170.248 71.45 170.868 71.595 171.418 71.885C171.968 72.175 172.403 72.58 172.723 73.1C173.043 73.61 173.203 74.2 173.203 74.87C173.203 75.53 173.043 76.12 172.723 76.64C172.403 77.16 171.968 77.565 171.418 77.855C170.868 78.145 170.248 78.29 169.558 78.29C168.868 78.29 168.248 78.145 167.698 77.855C167.148 77.565 166.713 77.16 166.393 76.64C166.073 76.12 165.913 75.53 165.913 74.87C165.913 74.2 166.073 73.61 166.393 73.1C166.713 72.58 167.148 72.175 167.698 71.885C168.248 71.595 168.868 71.45 169.558 71.45ZM169.558 72.815C169.158 72.815 168.798 72.9 168.478 73.07C168.158 73.24 167.908 73.48 167.728 73.79C167.548 74.09 167.458 74.45 167.458 74.87C167.458 75.29 167.548 75.655 167.728 75.965C167.908 76.265 168.158 76.5 168.478 76.67C168.798 76.84 169.158 76.925 169.558 76.925C169.958 76.925 170.318 76.84 170.638 76.67C170.958 76.5 171.208 76.265 171.388 75.965C171.578 75.655 171.673 75.29 171.673 74.87C171.673 74.45 171.578 74.09 171.388 73.79C171.208 73.48 170.958 73.24 170.638 73.07C170.318 72.9 169.958 72.815 169.558 72.815ZM179.034 72.74H185.724V74.015H179.034V72.74ZM182.379 74.795C182.959 74.795 183.469 74.93 183.909 75.2C184.359 75.47 184.714 75.845 184.974 76.325C185.234 76.795 185.364 77.345 185.364 77.975C185.364 78.605 185.234 79.16 184.974 79.64C184.714 80.12 184.359 80.495 183.909 80.765C183.469 81.035 182.959 81.17 182.379 81.17C181.819 81.17 181.314 81.035 180.864 80.765C180.414 80.495 180.059 80.12 179.799 79.64C179.549 79.16 179.424 78.605 179.424 77.975C179.424 77.345 179.549 76.795 179.799 76.325C180.059 75.845 180.414 75.47 180.864 75.2C181.314 74.93 181.819 74.795 182.379 74.795ZM182.394 76.115C182.094 76.115 181.824 76.195 181.584 76.355C181.344 76.505 181.154 76.72 181.014 77C180.884 77.27 180.819 77.595 180.819 77.975C180.819 78.355 180.884 78.685 181.014 78.965C181.154 79.245 181.344 79.465 181.584 79.625C181.824 79.775 182.094 79.85 182.394 79.85C182.694 79.85 182.959 79.775 183.189 79.625C183.429 79.465 183.619 79.245 183.759 78.965C183.899 78.685 183.969 78.355 183.969 77.975C183.969 77.595 183.899 77.27 183.759 77C183.619 76.72 183.429 76.505 183.189 76.355C182.959 76.195 182.694 76.115 182.394 76.115ZM189.219 70.52H190.719V84.23H189.219V70.52ZM187.284 76.205H189.714V77.495H187.284V76.205ZM186.309 70.805H187.779V83.6H186.309V70.805ZM181.614 70.91H183.174V73.535H181.614V70.91ZM196.001 81.275H208.421V82.565H196.001V81.275ZM201.401 78.14H202.976V81.605H201.401V78.14ZM197.396 71.45H198.956V73.745H205.436V71.45H206.996V78.515H197.396V71.45ZM198.956 75.005V77.255H205.436V75.005H198.956ZM214.792 75.305H217.267V76.595H214.792V75.305ZM212.077 71.78H213.292V74.255C213.292 74.995 213.222 75.725 213.082 76.445C212.952 77.155 212.757 77.825 212.497 78.455C212.237 79.085 211.912 79.655 211.522 80.165C211.132 80.665 210.677 81.07 210.157 81.38L209.182 80.195C209.672 79.905 210.097 79.545 210.457 79.115C210.817 78.685 211.117 78.205 211.357 77.675C211.607 77.145 211.787 76.59 211.897 76.01C212.017 75.42 212.077 74.835 212.077 74.255V71.78ZM212.392 71.78H213.592V74.18C213.592 74.73 213.642 75.285 213.742 75.845C213.852 76.395 214.017 76.92 214.237 77.42C214.457 77.92 214.732 78.38 215.062 78.8C215.392 79.22 215.787 79.575 216.247 79.865L215.377 81.08C214.857 80.77 214.407 80.37 214.027 79.88C213.657 79.38 213.352 78.825 213.112 78.215C212.872 77.595 212.692 76.945 212.572 76.265C212.452 75.575 212.392 74.88 212.392 74.18V71.78ZM219.592 70.52H221.092V84.23H219.592V70.52ZM216.802 70.79H218.272V83.585H216.802V70.79ZM225.693 77.54H227.253V81.53H225.693V77.54ZM230.703 77.54H232.278V81.53H230.703V77.54ZM222.783 81.26H235.203V82.55H222.783V81.26ZM228.978 71.315C229.948 71.315 230.813 71.465 231.573 71.765C232.333 72.055 232.928 72.47 233.358 73.01C233.798 73.54 234.018 74.17 234.018 74.9C234.018 75.63 233.798 76.265 233.358 76.805C232.928 77.335 232.333 77.75 231.573 78.05C230.813 78.34 229.948 78.485 228.978 78.485C228.008 78.485 227.138 78.34 226.368 78.05C225.608 77.75 225.008 77.335 224.568 76.805C224.138 76.265 223.923 75.63 223.923 74.9C223.923 74.17 224.138 73.54 224.568 73.01C225.008 72.47 225.608 72.055 226.368 71.765C227.138 71.465 228.008 71.315 228.978 71.315ZM228.978 72.545C228.288 72.545 227.678 72.64 227.148 72.83C226.618 73.02 226.203 73.295 225.903 73.655C225.613 74.005 225.468 74.42 225.468 74.9C225.468 75.38 225.613 75.8 225.903 76.16C226.203 76.51 226.618 76.785 227.148 76.985C227.678 77.175 228.288 77.27 228.978 77.27C229.668 77.27 230.273 77.175 230.793 76.985C231.323 76.785 231.738 76.51 232.038 76.16C232.338 75.8 232.488 75.38 232.488 74.9C232.488 74.42 232.338 74.005 232.038 73.655C231.738 73.295 231.323 73.02 230.793 72.83C230.273 72.64 229.668 72.545 228.978 72.545Z" fill="black"/>
<defs>
<linearGradient id="paint0_linear_3039_3030" x1="15" y1="11" x2="295.5" y2="116.5" gradientUnits="userSpaceOnUse">
<stop stop-color="#5ED4BC"/>
<stop offset="0.25" stop-color="#68B1C7"/>
<stop offset="0.75" stop-color="#797ED0"/>
<stop offset="1" stop-color="#806AD6"/>
</linearGradient>
</defs>
</svg>
