<svg width="402" height="116" viewBox="0 0 402 116" fill="none" xmlns="http://www.w3.org/2000/svg">
<g clip-path="url(#clip0_3010_12122)">
<rect width="402" height="116" fill="white"/>
<g filter="url(#filter0_d_3010_12122)">
<path d="M0 52C0 35.4315 13.4315 22 30 22H372C388.569 22 402 35.4315 402 52V116H0V52Z" fill="white"/>
</g>
<path d="M197.762 79.1934C197.003 79.1934 196.349 79.0286 195.801 78.6992C195.257 78.3662 194.836 77.8953 194.539 77.2866C194.242 76.6779 194.093 75.9582 194.093 75.1274V75.1167C194.093 74.2824 194.242 73.5627 194.539 72.9575C194.84 72.3488 195.264 71.8797 195.812 71.5503C196.363 71.2209 197.013 71.0562 197.762 71.0562C198.514 71.0562 199.164 71.2209 199.711 71.5503C200.259 71.8797 200.682 72.3488 200.979 72.9575C201.276 73.5662 201.425 74.286 201.425 75.1167V75.1274C201.425 75.9582 201.276 76.6779 200.979 77.2866C200.685 77.8953 200.265 78.3662 199.717 78.6992C199.169 79.0286 198.517 79.1934 197.762 79.1934ZM197.762 77.9956C198.224 77.9956 198.623 77.8774 198.959 77.6411C199.296 77.4048 199.556 77.0718 199.738 76.6421C199.924 76.2124 200.018 75.7075 200.018 75.1274V75.1167C200.018 74.533 199.924 74.0282 199.738 73.6021C199.556 73.1724 199.296 72.8411 198.959 72.6084C198.623 72.3721 198.224 72.2539 197.762 72.2539C197.303 72.2539 196.904 72.3721 196.564 72.6084C196.227 72.8411 195.966 73.1724 195.78 73.6021C195.597 74.0282 195.506 74.533 195.506 75.1167V75.1274C195.506 75.7075 195.595 76.2124 195.774 76.6421C195.957 77.0718 196.217 77.4048 196.553 77.6411C196.893 77.8774 197.296 77.9956 197.762 77.9956ZM199.781 79.8057L197.375 76.5723H198.729L201.135 79.8057H199.781ZM203.015 79V71.2495H206.146C206.701 71.2495 207.177 71.348 207.575 71.5449C207.972 71.7419 208.277 72.0194 208.488 72.3774C208.699 72.7355 208.805 73.1616 208.805 73.6558V73.6665C208.805 74.1785 208.676 74.6333 208.418 75.0308C208.164 75.4246 207.807 75.7039 207.349 75.8687L209.041 79H207.462L205.937 76.0835C205.929 76.0835 205.919 76.0835 205.904 76.0835C205.89 76.0835 205.877 76.0835 205.867 76.0835H204.4V79H203.015ZM204.4 75.02H206.001C206.441 75.02 206.783 74.9036 207.027 74.6709C207.27 74.4382 207.392 74.1141 207.392 73.6987V73.688C207.392 73.2834 207.265 72.9629 207.011 72.7266C206.76 72.4867 206.415 72.3667 205.974 72.3667H204.4V75.02Z" fill="black"/>
<path d="M300 62V60C300 58.9391 299.473 57.9217 298.536 57.1716C297.598 56.4214 296.326 56 295 56H285C283.674 56 282.402 56.4214 281.464 57.1716C280.527 57.9217 280 58.9391 280 60V62" stroke="#686868" stroke-linecap="round" stroke-linejoin="round"/>
<path d="M290 52C292.209 52 294 50.2091 294 48C294 45.7909 292.209 44 290 44C287.791 44 286 45.7909 286 48C286 50.2091 287.791 52 290 52Z" stroke="#686868" stroke-linecap="round" stroke-linejoin="round"/>
<path d="M273.231 81V73.2495H274.821L277.152 79.2168H277.244L279.569 73.2495H281.159V81H279.913V75.4893H279.236L280.611 73.4644L277.668 81H276.723L273.785 73.4644L275.16 75.4893H274.478V81H273.231ZM283.56 83.0625C283.478 83.0625 283.392 83.0607 283.302 83.0571C283.216 83.0535 283.132 83.0482 283.05 83.041V82.0151C283.104 82.0223 283.166 82.0259 283.238 82.0259C283.309 82.0295 283.379 82.0312 283.447 82.0312C283.723 82.0312 283.943 81.9704 284.108 81.8486C284.276 81.7305 284.396 81.5389 284.468 81.2739L284.538 81.0054L282.438 75.1294H283.898L285.445 80.3286L285.08 79.7163H285.542L285.188 80.3286L286.734 75.1294H288.142L286.036 81.1289C285.868 81.6159 285.674 82.0008 285.456 82.2837C285.238 82.5666 284.974 82.7671 284.667 82.8853C284.362 83.0034 283.993 83.0625 283.56 83.0625ZM295.586 81.1934C294.852 81.1934 294.218 81.0286 293.685 80.6992C293.155 80.3698 292.745 79.9025 292.455 79.2974C292.168 78.6886 292.025 77.9671 292.025 77.1328V77.1221C292.025 76.2842 292.168 75.5627 292.455 74.9575C292.745 74.3488 293.155 73.8797 293.685 73.5503C294.215 73.2209 294.847 73.0562 295.581 73.0562C296.168 73.0562 296.698 73.1725 297.17 73.4053C297.643 73.6344 298.028 73.9531 298.325 74.3613C298.622 74.766 298.801 75.2314 298.862 75.7578L298.857 75.8008H297.503L297.498 75.7739C297.434 75.4696 297.312 75.2046 297.133 74.979C296.954 74.7498 296.732 74.5726 296.467 74.4473C296.202 74.3184 295.906 74.2539 295.581 74.2539C295.144 74.2539 294.764 74.3703 294.442 74.603C294.12 74.8358 293.871 75.167 293.695 75.5967C293.523 76.0228 293.438 76.5295 293.438 77.1167V77.1274C293.438 77.7147 293.523 78.2231 293.695 78.6528C293.871 79.0825 294.12 79.4137 294.442 79.6465C294.764 79.8792 295.146 79.9956 295.586 79.9956C295.915 79.9956 296.211 79.9383 296.472 79.8237C296.737 79.7091 296.957 79.548 297.133 79.3403C297.312 79.1291 297.434 78.882 297.498 78.5991L297.509 78.5669H298.862V78.6099C298.794 79.1255 298.613 79.5767 298.32 79.9634C298.026 80.3501 297.647 80.6527 297.181 80.8711C296.716 81.0859 296.184 81.1934 295.586 81.1934ZM303.589 81.1934C302.937 81.1934 302.373 81.0734 301.897 80.8335C301.421 80.5936 301.052 80.2588 300.791 79.8291C300.533 79.3994 300.404 78.8999 300.404 78.3306V73.2495H301.784V78.2178C301.784 78.5723 301.854 78.8838 301.994 79.1523C302.137 79.4173 302.343 79.625 302.611 79.7754C302.88 79.9222 303.208 79.9956 303.594 79.9956C303.977 79.9956 304.303 79.9222 304.572 79.7754C304.84 79.625 305.044 79.4173 305.184 79.1523C305.324 78.8838 305.394 78.5723 305.394 78.2178V73.2495H306.774V78.3306C306.774 78.8999 306.645 79.3994 306.387 79.8291C306.129 80.2588 305.762 80.5936 305.286 80.8335C304.813 81.0734 304.248 81.1934 303.589 81.1934Z" fill="black"/>
<path d="M352.5 56C352.5 58.9174 353.606 61.7153 355.575 63.7782C357.545 65.8411 360.215 67 363 67C365.785 67 368.455 65.8411 370.425 63.7782C372.394 61.7153 373.5 58.9174 373.5 56C373.5 53.0826 372.394 50.2847 370.425 48.2218C368.455 46.1589 365.785 45 363 45C360.215 45 357.545 46.1589 355.575 48.2218C353.606 50.2847 352.5 53.0826 352.5 56Z" stroke="#686868" stroke-linecap="round" stroke-linejoin="round"/>
<path d="M367.713 56C367.713 56.2066 367.791 56.4048 367.931 56.551C368.07 56.6971 368.259 56.7792 368.457 56.7792C368.654 56.7792 368.843 56.6971 368.983 56.551C369.122 56.4048 369.2 56.2066 369.2 56C369.2 55.7933 369.122 55.5951 368.983 55.4489C368.843 55.3028 368.654 55.2207 368.457 55.2207C368.259 55.2207 368.07 55.3028 367.931 55.4489C367.791 55.5951 367.713 55.7933 367.713 56ZM362.256 56C362.256 56.1023 362.275 56.2036 362.313 56.2982C362.35 56.3927 362.405 56.4786 362.474 56.551C362.543 56.6233 362.625 56.6808 362.715 56.7199C362.806 56.7591 362.902 56.7792 363 56.7792C363.098 56.7792 363.194 56.7591 363.285 56.7199C363.375 56.6808 363.457 56.6233 363.526 56.551C363.595 56.4786 363.65 56.3927 363.687 56.2982C363.725 56.2036 363.744 56.1023 363.744 56C363.744 55.7933 363.665 55.5951 363.526 55.4489C363.386 55.3028 363.197 55.2207 363 55.2207C362.803 55.2207 362.613 55.3028 362.474 55.4489C362.334 55.5951 362.256 55.7933 362.256 56ZM356.799 56C356.799 56.2066 356.878 56.4048 357.017 56.551C357.157 56.6971 357.346 56.7792 357.543 56.7792C357.741 56.7792 357.93 56.6971 358.069 56.551C358.209 56.4048 358.287 56.2066 358.287 56C358.287 55.7933 358.209 55.5951 358.069 55.4489C357.93 55.3028 357.741 55.2207 357.543 55.2207C357.346 55.2207 357.157 55.3028 357.017 55.4489C356.878 55.5951 356.799 55.7933 356.799 56Z" stroke="#686868" stroke-linecap="round" stroke-linejoin="round"/>
<path d="M348.625 74.554H351.067V75.489H348.625V74.554ZM350.44 71.859H351.595V79.207H350.44V71.859ZM345.083 80.769H351.859V81.704H345.083V80.769ZM345.083 78.569H346.238V81.286H345.083V78.569ZM345.721 73.135H346.667V73.872C346.667 74.488 346.553 75.0747 346.326 75.632C346.106 76.182 345.787 76.6623 345.369 77.073C344.951 77.4837 344.445 77.7953 343.851 78.008L343.257 77.095C343.653 76.9557 344.001 76.776 344.302 76.556C344.61 76.336 344.87 76.083 345.083 75.797C345.295 75.511 345.453 75.203 345.556 74.873C345.666 74.543 345.721 74.2093 345.721 73.872V73.135ZM345.952 73.135H346.887V73.861C346.887 74.279 346.978 74.686 347.162 75.082C347.345 75.478 347.613 75.8337 347.965 76.149C348.317 76.4643 348.746 76.71 349.252 76.886L348.68 77.788C348.1 77.5827 347.605 77.2857 347.195 76.897C346.791 76.501 346.483 76.0427 346.271 75.522C346.058 74.994 345.952 74.4403 345.952 73.861V73.135ZM343.598 72.618H348.977V73.542H343.598V72.618ZM357.479 75.753H359.239V76.688H357.479V75.753ZM355.312 74.521H356.192V74.928C356.192 75.4413 356.144 75.9473 356.049 76.446C355.954 76.9373 355.811 77.4067 355.62 77.854C355.437 78.3013 355.202 78.7047 354.916 79.064C354.63 79.416 354.296 79.702 353.915 79.922L353.255 79.053C353.6 78.8477 353.9 78.5947 354.157 78.294C354.421 77.9933 354.637 77.6597 354.806 77.293C354.975 76.919 355.099 76.534 355.18 76.138C355.268 75.7347 355.312 75.3313 355.312 74.928V74.521ZM355.521 74.521H356.401V74.928C356.401 75.3167 356.441 75.7053 356.522 76.094C356.61 76.4753 356.738 76.842 356.907 77.194C357.083 77.5387 357.299 77.854 357.556 78.14C357.813 78.4187 358.113 78.6497 358.458 78.833L357.82 79.702C357.307 79.4233 356.878 79.0383 356.533 78.547C356.196 78.0483 355.943 77.4873 355.774 76.864C355.605 76.2407 355.521 75.5953 355.521 74.928V74.521ZM353.574 73.63H358.117V74.576H353.574V73.63ZM355.312 72.2H356.412V74.367H355.312V72.2ZM360.856 71.848H361.956V81.902H360.856V71.848ZM358.843 72.057H359.921V81.418H358.843V72.057ZM363.506 79.735H372.614V80.681H363.506V79.735ZM367.466 77.436H368.621V79.977H367.466V77.436ZM364.529 72.53H365.673V74.213H370.425V72.53H371.569V77.711H364.529V72.53ZM365.673 75.137V76.787H370.425V75.137H365.673ZM380.775 71.848H381.93V81.902H380.775V71.848ZM377.816 72.915H378.96C378.96 73.663 378.879 74.378 378.718 75.06C378.557 75.742 378.293 76.391 377.926 77.007C377.567 77.6157 377.09 78.1803 376.496 78.701C375.909 79.2217 375.183 79.691 374.318 80.109L373.702 79.196C374.677 78.7267 375.466 78.1913 376.067 77.59C376.668 76.9887 377.108 76.3177 377.387 75.577C377.673 74.829 377.816 74.0077 377.816 73.113V72.915ZM374.197 72.915H378.333V73.839H374.197V72.915Z" fill="black"/>
<circle cx="201" cy="27" r="27" fill="url(#paint0_linear_3010_12122)"/>
<path d="M216.417 21.8617V16.7217C216.417 15.3589 215.875 14.052 214.912 13.0884C213.948 12.1247 212.641 11.5834 211.278 11.5834H206.138M206.138 42.4167H211.278C212.641 42.4167 213.948 41.8753 214.912 40.9117C215.875 39.9481 216.417 38.6411 216.417 37.2784V32.1384M185.583 32.1384V37.2784C185.583 38.6411 186.125 39.9481 187.088 40.9117C188.052 41.8753 189.359 42.4167 190.722 42.4167H195.862M195.862 11.5834H190.722C189.359 11.5834 188.052 12.1247 187.088 13.0884C186.125 14.052 185.583 15.3589 185.583 16.7217V21.8617M196.722 16.7217H192.222C191.824 16.7217 191.442 16.8797 191.161 17.161C190.88 17.4424 190.722 17.8239 190.722 18.2217V22.7217C190.722 23.1195 190.88 23.5011 191.161 23.7824C191.442 24.0637 191.824 24.2217 192.222 24.2217H196.722C197.12 24.2217 197.501 24.0637 197.782 23.7824C198.064 23.5011 198.222 23.1195 198.222 22.7217V18.2217C198.222 17.8239 198.064 17.4424 197.782 17.161C197.501 16.8797 197.12 16.7217 196.722 16.7217ZM196.722 29.7467H192.222C191.824 29.7467 191.442 29.9047 191.161 30.186C190.88 30.4674 190.722 30.8489 190.722 31.2467V35.7467C190.722 36.1445 190.88 36.5261 191.161 36.8074C191.442 37.0887 191.824 37.2467 192.222 37.2467H196.722C197.12 37.2467 197.501 37.0887 197.782 36.8074C198.064 36.5261 198.222 36.1445 198.222 35.7467V31.2467C198.222 30.8489 198.064 30.4674 197.782 30.186C197.501 29.9047 197.12 29.7467 196.722 29.7467ZM209.778 16.7217H205.278C204.881 16.7217 204.499 16.8797 204.218 17.161C203.936 17.4424 203.778 17.8239 203.778 18.2217V22.7217C203.778 23.1195 203.936 23.5011 204.218 23.7824C204.499 24.0637 204.881 24.2217 205.278 24.2217H209.778C210.176 24.2217 210.558 24.0637 210.839 23.7824C211.12 23.5011 211.278 23.1195 211.278 22.7217V18.2217C211.278 17.8239 211.12 17.4424 210.839 17.161C210.558 16.8797 210.176 16.7217 209.778 16.7217ZM209.778 29.7784H205.278C204.881 29.7784 204.499 29.9364 204.218 30.2177C203.936 30.499 203.778 30.8806 203.778 31.2784V35.7784C203.778 36.1762 203.936 36.5577 204.218 36.839C204.499 37.1203 204.881 37.2784 205.278 37.2784H209.778C210.176 37.2784 210.558 37.1203 210.839 36.839C211.12 36.5577 211.278 36.1762 211.278 35.7784V31.2784C211.278 30.8806 211.12 30.499 210.839 30.2177C210.558 29.9364 210.176 29.7784 209.778 29.7784Z" stroke="white" stroke-width="2.66667" stroke-linecap="round" stroke-linejoin="round"/>
<path d="M25 47.7L36.5 40L48 47.7V59.8C48 60.3835 47.7308 60.9431 47.2515 61.3556C46.7722 61.7682 46.1222 62 45.4444 62H27.5556C26.8778 62 26.2278 61.7682 25.7485 61.3556C25.2692 60.9431 25 60.3835 25 59.8V47.7Z" stroke="#686868" stroke-linecap="round" stroke-linejoin="round"/>
<path d="M34.0898 57.1074C33.5527 57.1074 33.0938 56.9967 32.7129 56.7754C32.332 56.554 32.0407 56.235 31.8389 55.8184C31.637 55.4017 31.5361 54.9036 31.5361 54.3242V54.3145C31.5361 53.7383 31.637 53.2451 31.8389 52.835C32.0407 52.4248 32.332 52.1107 32.7129 51.8926C33.0938 51.6712 33.5511 51.5605 34.085 51.5605C34.5439 51.5605 34.9378 51.6403 35.2666 51.7998C35.5986 51.9561 35.8607 52.1742 36.0527 52.4541C36.248 52.7308 36.3685 53.0547 36.4141 53.4258V53.4453H35.2666L35.2617 53.4307C35.2064 53.1702 35.0794 52.957 34.8809 52.791C34.6855 52.625 34.4219 52.542 34.0898 52.542C33.8132 52.542 33.5755 52.612 33.377 52.752C33.1816 52.8919 33.0319 53.0938 32.9277 53.3574C32.8236 53.6211 32.7715 53.9401 32.7715 54.3145V54.3242C32.7715 54.7018 32.8236 55.0257 32.9277 55.2959C33.0352 55.5628 33.1865 55.7679 33.3818 55.9111C33.5771 56.0511 33.8132 56.1211 34.0898 56.1211C34.4056 56.1211 34.6595 56.0495 34.8516 55.9062C35.0469 55.763 35.182 55.5514 35.2568 55.2715L35.2666 55.252L36.4092 55.2471L36.4043 55.291C36.3457 55.6523 36.2188 55.9697 36.0234 56.2432C35.8314 56.5166 35.5742 56.7298 35.252 56.8828C34.9297 57.0326 34.5423 57.1074 34.0898 57.1074ZM39.3389 57.1074C38.9417 57.1074 38.6081 57.0309 38.3379 56.8779C38.0677 56.7217 37.8643 56.4954 37.7275 56.1992C37.5908 55.8997 37.5225 55.5384 37.5225 55.1152V51.6631H38.7383V54.8369C38.7383 55.2503 38.8197 55.5612 38.9824 55.7695C39.1452 55.9779 39.4105 56.082 39.7783 56.082C39.9736 56.082 40.1462 56.0527 40.2959 55.9941C40.4489 55.9323 40.5758 55.8444 40.6768 55.7305C40.7777 55.6165 40.8542 55.4798 40.9062 55.3203C40.9583 55.1576 40.9844 54.9753 40.9844 54.7734V51.6631H42.2002V57H40.9844V56.1895H40.9014C40.82 56.3783 40.7061 56.5426 40.5596 56.6826C40.4131 56.8193 40.2373 56.9251 40.0322 57C39.8271 57.0716 39.596 57.1074 39.3389 57.1074Z" fill="#686868"/>
<path d="M33.0354 76.888H39.9324V79.781H33.0354V76.888ZM38.7994 77.746H34.1574V78.923H38.7994V77.746ZM32.3974 70.629H40.5264V71.509H32.3974V70.629ZM36.4894 71.839C37.5454 71.839 38.3558 71.96 38.9204 72.202C39.4924 72.444 39.7784 72.7997 39.7784 73.269C39.7784 73.7383 39.4924 74.094 38.9204 74.336C38.3558 74.578 37.5454 74.699 36.4894 74.699C35.4334 74.699 34.6194 74.578 34.0474 74.336C33.4754 74.094 33.1894 73.7383 33.1894 73.269C33.1894 72.7997 33.4754 72.444 34.0474 72.202C34.6194 71.96 35.4334 71.839 36.4894 71.839ZM36.4894 72.631C35.8074 72.631 35.2904 72.686 34.9384 72.796C34.5938 72.8987 34.4214 73.0563 34.4214 73.269C34.4214 73.4817 34.5938 73.643 34.9384 73.753C35.2904 73.8557 35.8074 73.907 36.4894 73.907C37.1714 73.907 37.6848 73.8557 38.0294 73.753C38.3814 73.643 38.5574 73.4817 38.5574 73.269C38.5574 73.0563 38.3814 72.8987 38.0294 72.796C37.6848 72.686 37.1714 72.631 36.4894 72.631ZM35.9174 69.738H37.0614V71.234H35.9174V69.738ZM31.9464 75.337H41.0324V76.228H31.9464V75.337ZM35.9174 74.424H37.0614V75.821H35.9174V74.424Z" fill="black"/>
<path d="M104.942 45.8875H118.375M104.942 52.6042H118.375M104.942 59.3209H118.375M99.625 50.925L101.304 52.6042L99.625 54.2834M99.625 44.2084L101.304 45.8875L99.625 47.5667M99.625 57.6417L101.304 59.3209L99.625 61" stroke="#686868" stroke-linecap="round" stroke-linejoin="round"/>
<path d="M91.5997 70.387H92.5567V71.355C92.5567 72.0077 92.4467 72.62 92.2267 73.192C92.0141 73.7567 91.6987 74.2517 91.2807 74.677C90.8701 75.1023 90.3714 75.4213 89.7847 75.634L89.1687 74.721C89.6967 74.5377 90.1404 74.2737 90.4997 73.929C90.8664 73.5843 91.1414 73.192 91.3247 72.752C91.5081 72.3047 91.5997 71.839 91.5997 71.355V70.387ZM91.8307 70.387H92.7657V71.454C92.7657 71.7767 92.8171 72.092 92.9197 72.4C93.0224 72.7007 93.1727 72.9867 93.3707 73.258C93.5761 73.522 93.8254 73.7567 94.1187 73.962C94.4121 74.1673 94.7457 74.3323 95.1197 74.457L94.5147 75.359C93.9501 75.1537 93.4661 74.8567 93.0627 74.468C92.6667 74.0793 92.3624 73.6283 92.1497 73.115C91.9371 72.5943 91.8307 72.0407 91.8307 71.454V70.387ZM95.9667 69.859H97.1107V75.887H95.9667V69.859ZM96.8027 72.334H98.5297V73.291H96.8027V72.334ZM93.8767 76.14C94.5734 76.14 95.1674 76.2133 95.6587 76.36C96.1574 76.5067 96.5424 76.723 96.8137 77.009C97.0851 77.2877 97.2207 77.625 97.2207 78.021C97.2207 78.4097 97.0851 78.7433 96.8137 79.022C96.5424 79.308 96.1574 79.5243 95.6587 79.671C95.1674 79.8177 94.5734 79.891 93.8767 79.891C93.1874 79.891 92.5897 79.8177 92.0837 79.671C91.5851 79.5243 91.2001 79.308 90.9287 79.022C90.6647 78.7433 90.5327 78.4097 90.5327 78.021C90.5327 77.625 90.6647 77.2877 90.9287 77.009C91.2001 76.723 91.5851 76.5067 92.0837 76.36C92.5897 76.2133 93.1874 76.14 93.8767 76.14ZM93.8767 77.042C93.4147 77.042 93.0187 77.0787 92.6887 77.152C92.3587 77.2253 92.1057 77.3353 91.9297 77.482C91.7537 77.6287 91.6657 77.8083 91.6657 78.021C91.6657 78.2263 91.7537 78.4023 91.9297 78.549C92.1057 78.6957 92.3587 78.8093 92.6887 78.89C93.0187 78.9633 93.4147 79 93.8767 79C94.3461 79 94.7421 78.9633 95.0647 78.89C95.3947 78.8093 95.6477 78.6957 95.8237 78.549C95.9997 78.4023 96.0877 78.2263 96.0877 78.021C96.0877 77.8083 95.9997 77.6287 95.8237 77.482C95.6477 77.3353 95.3947 77.2253 95.0647 77.152C94.7421 77.0787 94.3461 77.042 93.8767 77.042ZM103.358 75.282H104.502V76.921H103.358V75.282ZM99.3869 74.644H108.473V75.568H99.3869V74.644ZM100.201 70.156H107.637V71.08H100.201V70.156ZM100.256 72.917H107.571V73.841H100.256V72.917ZM101.62 70.519H102.764V73.522H101.62V70.519ZM105.074 70.519H106.218V73.522H105.074V70.519ZM100.476 76.58H107.373V79.781H100.476V76.58ZM106.24 77.493H101.598V78.868H106.24V77.493ZM110.65 70.266H117.437V73.742H110.65V70.266ZM116.293 71.168H111.772V72.829H116.293V71.168ZM109.506 74.864H118.592V75.788H109.506V74.864ZM113.466 73.522H114.61V75.161H113.466V73.522ZM110.507 76.679H117.481V79.913H116.326V77.603H110.507V76.679ZM119.625 75.326H128.733V76.25H119.625V75.326ZM120.758 70.079H127.589V72.642H121.913V73.885H120.78V71.817H126.445V70.97H120.758V70.079ZM120.78 73.522H127.787V74.413H120.78V73.522ZM123.596 73.973H124.751V75.799H123.596V73.973ZM120.626 76.921H127.644V79.847H126.489V77.856H120.626V76.921Z" fill="black"/>
</g>
<defs>
<filter id="filter0_d_3010_12122" x="-2" y="19" width="406" height="98" filterUnits="userSpaceOnUse" color-interpolation-filters="sRGB">
<feFlood flood-opacity="0" result="BackgroundImageFix"/>
<feColorMatrix in="SourceAlpha" type="matrix" values="0 0 0 0 0 0 0 0 0 0 0 0 0 0 0 0 0 0 127 0" result="hardAlpha"/>
<feOffset dy="-1"/>
<feGaussianBlur stdDeviation="1"/>
<feComposite in2="hardAlpha" operator="out"/>
<feColorMatrix type="matrix" values="0 0 0 0 0 0 0 0 0 0 0 0 0 0 0 0 0 0 0.25 0"/>
<feBlend mode="normal" in2="BackgroundImageFix" result="effect1_dropShadow_3010_12122"/>
<feBlend mode="normal" in="SourceGraphic" in2="effect1_dropShadow_3010_12122" result="shape"/>
</filter>
<linearGradient id="paint0_linear_3010_12122" x1="176.5" y1="27" x2="219" y2="36" gradientUnits="userSpaceOnUse">
<stop stop-color="#809BFB"/>
<stop offset="0.312864" stop-color="#5474FD"/>
<stop offset="0.536857" stop-color="#7267F4"/>
<stop offset="1" stop-color="#895EEE"/>
</linearGradient>
<clipPath id="clip0_3010_12122">
<rect width="402" height="116" fill="white"/>
</clipPath>
</defs>
</svg>
