<svg width="40" height="40" viewBox="0 0 40 40" fill="none" xmlns="http://www.w3.org/2000/svg">
<path d="M35.4167 14.8617V9.72166C35.4167 8.35889 34.8753 7.05194 33.9117 6.08831C32.9481 5.12469 31.6411 4.58333 30.2784 4.58333H25.1384M25.1384 35.4167H30.2784C31.6411 35.4167 32.9481 34.8753 33.9117 33.9117C34.8753 32.9481 35.4167 31.6411 35.4167 30.2783V25.1383M4.58337 25.1383V30.2783C4.58337 31.6411 5.12473 32.9481 6.08836 33.9117C7.05198 34.8753 8.35894 35.4167 9.72171 35.4167H14.8617M14.8617 4.58333H9.72171C8.35894 4.58333 7.05198 5.12469 6.08836 6.08831C5.12473 7.05194 4.58337 8.35889 4.58337 9.72166V14.8617M15.7217 9.72166H11.2217C10.8239 9.72166 10.4424 9.8797 10.161 10.161C9.87974 10.4423 9.72171 10.8238 9.72171 11.2217V15.7217C9.72171 16.1195 9.87974 16.501 10.161 16.7823C10.4424 17.0636 10.8239 17.2217 11.2217 17.2217H15.7217C16.1195 17.2217 16.5011 17.0636 16.7824 16.7823C17.0637 16.501 17.2217 16.1195 17.2217 15.7217V11.2217C17.2217 10.8238 17.0637 10.4423 16.7824 10.161C16.5011 9.8797 16.1195 9.72166 15.7217 9.72166ZM15.7217 22.7467H11.2217C10.8239 22.7467 10.4424 22.9047 10.161 23.186C9.87974 23.4673 9.72171 23.8488 9.72171 24.2467V28.7467C9.72171 29.1445 9.87974 29.526 10.161 29.8073C10.4424 30.0886 10.8239 30.2467 11.2217 30.2467H15.7217C16.1195 30.2467 16.5011 30.0886 16.7824 29.8073C17.0637 29.526 17.2217 29.1445 17.2217 28.7467V24.2467C17.2217 23.8488 17.0637 23.4673 16.7824 23.186C16.5011 22.9047 16.1195 22.7467 15.7217 22.7467ZM28.7784 9.72166H24.2784C23.8806 9.72166 23.499 9.8797 23.2177 10.161C22.9364 10.4423 22.7784 10.8238 22.7784 11.2217V15.7217C22.7784 16.1195 22.9364 16.501 23.2177 16.7823C23.499 17.0636 23.8806 17.2217 24.2784 17.2217H28.7784C29.1762 17.2217 29.5577 17.0636 29.839 16.7823C30.1203 16.501 30.2784 16.1195 30.2784 15.7217V11.2217C30.2784 10.8238 30.1203 10.4423 29.839 10.161C29.5577 9.8797 29.1762 9.72166 28.7784 9.72166ZM28.7784 22.7783H24.2784C23.8806 22.7783 23.499 22.9364 23.2177 23.2177C22.9364 23.499 22.7784 23.8805 22.7784 24.2783V28.7783C22.7784 29.1762 22.9364 29.5577 23.2177 29.839C23.499 30.1203 23.8806 30.2783 24.2784 30.2783H28.7784C29.1762 30.2783 29.5577 30.1203 29.839 29.839C30.1203 29.5577 30.2784 29.1762 30.2784 28.7783V24.2783C30.2784 23.8805 30.1203 23.499 29.839 23.2177C29.5577 22.9364 29.1762 22.7783 28.7784 22.7783Z" stroke="white" stroke-width="2.66667" stroke-linecap="round" stroke-linejoin="round"/>
</svg>
