<svg width="24" height="23" viewBox="0 0 24 23" fill="none" xmlns="http://www.w3.org/2000/svg">
<path d="M7.71289 11.3926L7.96136 11.8265L7.96414 11.8249L7.71289 11.3926ZM10.2666 11.2998L10.0483 11.7497L10.0537 11.7522L10.2666 11.2998ZM11.0527 11.9541L10.6404 12.237L10.6443 12.2424L11.0527 11.9541ZM11.4141 12.9258H11.9141V12.8952L11.9103 12.8648L11.4141 12.9258ZM11.4141 12.9453V13.4453H11.9141V12.9453H11.4141ZM10.2666 12.9453L9.79226 13.1034L9.90622 13.4453H10.2666V12.9453ZM10.2617 12.9307L9.77264 13.0346L9.77848 13.0621L9.78738 13.0888L10.2617 12.9307ZM9.88086 12.291L9.55702 12.672L9.56015 12.6746L9.88086 12.291ZM8.37695 12.252L8.08887 11.8433L8.08569 11.8455L8.37695 12.252ZM7.92773 14.7959L7.46116 14.9758L7.46389 14.9826L7.92773 14.7959ZM8.38184 15.4111L8.08614 15.8144L8.09058 15.8175L8.38184 15.4111ZM9.85156 15.4062L9.55587 15.003L9.55265 15.0054L9.85156 15.4062ZM10.2568 14.7715L9.80962 14.5479L9.78692 14.5933L9.77381 14.6423L10.2568 14.7715ZM10.2666 14.752L10.2645 14.252L9.95693 14.2533L9.81939 14.5283L10.2666 14.752ZM11.4092 14.7471L11.9061 14.8023L11.9681 14.2447L11.407 14.2471L11.4092 14.7471ZM11.4043 14.791L11.8979 14.8711L11.8999 14.8587L11.9012 14.8462L11.4043 14.791ZM11.0234 15.7432L10.6166 15.4525L10.6143 15.4558L11.0234 15.7432ZM10.252 16.3828L10.4627 16.8363L10.4664 16.8345L10.252 16.3828ZM13.3379 16.3779L13.0876 16.8108L13.0915 16.813L13.3379 16.3779ZM12.7275 15.6992L12.2727 15.9069L12.2736 15.9087L12.7275 15.6992ZM12.5225 11.1631V10.6631H12.0225V11.1631H12.5225ZM13.7383 11.1631H14.2383V10.6631H13.7383V11.1631ZM15.2959 15.4941L15.4781 15.9598L15.4833 15.9577L15.2959 15.4941ZM15.9062 14.8203L16.3816 14.9755L16.3825 14.9727L15.9062 14.8203ZM15.9844 11.1631V10.6631H15.4844V11.1631H15.9844ZM17.2002 11.1631H17.7002V10.6631H17.2002V11.1631ZM17.2002 16.5V17H17.7002V16.5H17.2002ZM15.9844 16.5H15.4844V17H15.9844V16.5ZM15.9844 15.6895H16.4844V15.1895H15.9844V15.6895ZM15.9014 15.6895V15.1895H15.5724L15.4422 15.4915L15.9014 15.6895ZM15.5596 16.1826L15.9008 16.5482L15.905 16.5441L15.5596 16.1826ZM15.0322 16.5L15.1971 16.9721L15.2037 16.9697L15.0322 16.5ZM0.5 8.2L0.221817 7.78453C0.0831985 7.87735 0 8.03318 0 8.2H0.5ZM12 0.5L12.2782 0.0845315C12.1099 -0.0281771 11.8901 -0.0281771 11.7218 0.0845315L12 0.5ZM23.5 8.2H24C24 8.03318 23.9168 7.87735 23.7782 7.78453L23.5 8.2ZM0.5 20.3H0H0.5ZM9.08984 16.6074V16.1074C8.6217 16.1074 8.25359 16.0113 7.96414 15.8431L7.71289 16.2754L7.46164 16.7077C7.93391 16.9822 8.48376 17.1074 9.08984 17.1074V16.6074ZM7.71289 16.2754L7.96414 15.8431C7.67392 15.6744 7.4496 15.4322 7.28886 15.1004L6.83887 15.3184L6.38888 15.5363C6.63178 16.0378 6.99015 16.4336 7.46164 16.7077L7.71289 16.2754ZM6.83887 15.3184L7.28886 15.1004C7.12716 14.7666 7.03613 14.3467 7.03613 13.8242H6.53613H6.03613C6.03613 14.4606 6.14693 15.0368 6.38888 15.5363L6.83887 15.3184ZM6.53613 13.8242H7.03613V13.8145H6.53613H6.03613V13.8242H6.53613ZM6.53613 13.8145H7.03613C7.03613 13.2954 7.1271 12.8817 7.2875 12.5557L6.83887 12.335L6.39024 12.1142C6.14699 12.6086 6.03613 13.1811 6.03613 13.8145H6.53613ZM6.83887 12.335L7.2875 12.5557C7.44726 12.231 7.67069 11.9929 7.96136 11.8265L7.71289 11.3926L7.46442 10.9587C6.99337 11.2284 6.63412 11.6186 6.39024 12.1142L6.83887 12.335ZM7.71289 11.3926L7.96414 11.8249C8.25402 11.6564 8.62069 11.5605 9.08496 11.5605V11.0605V10.5605C8.48152 10.5605 7.93348 10.6861 7.46164 10.9603L7.71289 11.3926ZM9.08496 11.0605V11.5605C9.48718 11.5605 9.80273 11.6305 10.0484 11.7497L10.2666 11.2998L10.4848 10.85C10.0729 10.6501 9.60071 10.5605 9.08496 10.5605V11.0605ZM10.2666 11.2998L10.0537 11.7522C10.3121 11.8738 10.5026 12.0361 10.6404 12.237L11.0527 11.9541L11.465 11.6712C11.2187 11.3122 10.8852 11.0383 10.4795 10.8474L10.2666 11.2998ZM11.0527 11.9541L10.6443 12.2424C10.7872 12.4449 10.8812 12.6888 10.9178 12.9867L11.4141 12.9258L11.9103 12.8648C11.8558 12.4205 11.7089 12.0166 11.4612 11.6658L11.0527 11.9541ZM11.4141 12.9258H10.9141V12.9453H11.4141H11.9141V12.9258H11.4141ZM11.4141 12.9453V12.4453H10.2666V12.9453V13.4453H11.4141V12.9453ZM10.2666 12.9453L10.7409 12.7872L10.7361 12.7726L10.2617 12.9307L9.78738 13.0888L9.79226 13.1034L10.2666 12.9453ZM10.2617 12.9307L10.7508 12.8267C10.6729 12.4603 10.4886 12.1474 10.2016 11.9074L9.88086 12.291L9.56015 12.6746C9.67027 12.7667 9.73984 12.8802 9.77264 13.0346L10.2617 12.9307ZM9.88086 12.291L10.2047 11.91C9.89505 11.6469 9.50481 11.542 9.08984 11.542V12.042V12.542C9.33894 12.542 9.47604 12.6031 9.55704 12.672L9.88086 12.291ZM9.08984 12.042V11.542C8.72487 11.542 8.38313 11.6359 8.08887 11.8433L8.37695 12.252L8.66503 12.6606C8.76791 12.5881 8.90143 12.542 9.08984 12.542V12.042ZM8.37695 12.252L8.08569 11.8455C7.79911 12.0509 7.59573 12.337 7.46271 12.6737L7.92773 12.8574L8.39276 13.0411C8.46807 12.8505 8.56417 12.7329 8.66821 12.6584L8.37695 12.252ZM7.92773 12.8574L7.46271 12.6737C7.32933 13.0113 7.27148 13.3963 7.27148 13.8145H7.77148H8.27148C8.27148 13.4839 8.3178 13.2309 8.39276 13.0411L7.92773 12.8574ZM7.77148 13.8145H7.27148V13.8242H7.77148H8.27148V13.8145H7.77148ZM7.77148 13.8242H7.27148C7.27148 14.2456 7.32932 14.6337 7.46121 14.9758L7.92773 14.7959L8.39426 14.616C8.31781 14.4177 8.27148 14.1581 8.27148 13.8242H7.77148ZM7.92773 14.7959L7.46389 14.9826C7.59948 15.3195 7.80261 15.6064 8.08615 15.8143L8.38184 15.4111L8.67752 15.0079C8.57044 14.9294 8.47083 14.8061 8.39158 14.6092L7.92773 14.7959ZM8.38184 15.4111L8.09058 15.8175C8.38323 16.0273 8.72507 16.1211 9.08984 16.1211V15.6211V15.1211C8.90123 15.1211 8.77106 15.0749 8.6731 15.0047L8.38184 15.4111ZM9.08984 15.6211V16.1211C9.47919 16.1211 9.84822 16.0325 10.1505 15.8071L9.85156 15.4062L9.55265 15.0054C9.47079 15.0665 9.332 15.1211 9.08984 15.1211V15.6211ZM9.85156 15.4062L10.1472 15.8095C10.4515 15.5863 10.6416 15.2682 10.7399 14.9007L10.2568 14.7715L9.77381 14.6423C9.72236 14.8347 9.64223 14.9397 9.55588 15.003L9.85156 15.4062ZM10.2568 14.7715L10.704 14.9951L10.7138 14.9756L10.2666 14.752L9.81939 14.5283L9.80962 14.5479L10.2568 14.7715ZM10.2666 14.752L10.2687 15.2519L11.4113 15.2471L11.4092 14.7471L11.407 14.2471L10.2645 14.252L10.2666 14.752ZM11.4092 14.7471L10.9122 14.6919L10.9074 14.7358L11.4043 14.791L11.9012 14.8462L11.9061 14.8023L11.4092 14.7471ZM11.4043 14.791L10.9107 14.711C10.8633 15.0033 10.7633 15.2472 10.6166 15.4525L11.0234 15.7432L11.4303 16.0338C11.6742 15.6923 11.8281 15.3014 11.8979 14.8711L11.4043 14.791ZM11.0234 15.7432L10.6143 15.4558C10.4752 15.6538 10.2872 15.8126 10.0375 15.9311L10.252 16.3828L10.4664 16.8345C10.8612 16.6471 11.1875 16.3794 11.4326 16.0305L11.0234 15.7432ZM10.252 16.3828L10.0413 15.9294C9.80046 16.0413 9.48876 16.1074 9.08984 16.1074V16.6074V17.1074C9.59588 17.1074 10.0589 17.0238 10.4626 16.8363L10.252 16.3828ZM14.3389 16.6074V16.1074C14.0045 16.1074 13.7611 16.043 13.5843 15.9428L13.3379 16.3779L13.0915 16.813C13.455 17.0188 13.879 17.1074 14.3389 17.1074V16.6074ZM13.3379 16.3779L13.5882 15.9451C13.4115 15.8429 13.2771 15.6968 13.1815 15.4897L12.7275 15.6992L12.2736 15.9087C12.4514 16.2941 12.7239 16.6004 13.0876 16.8108L13.3379 16.3779ZM12.7275 15.6992L13.1824 15.4916C13.0826 15.2731 13.0225 14.9864 13.0225 14.6152H12.5225H12.0225C12.0225 15.0904 12.099 15.5264 12.2727 15.9069L12.7275 15.6992ZM12.5225 14.6152H13.0225V11.1631H12.5225H12.0225V14.6152H12.5225ZM12.5225 11.1631V11.6631H13.7383V11.1631V10.6631H12.5225V11.1631ZM13.7383 11.1631H13.2383V14.3369H13.7383H14.2383V11.1631H13.7383ZM13.7383 14.3369H13.2383C13.2383 14.8028 13.3278 15.2438 13.5884 15.5774L13.9824 15.2695L14.3764 14.9617C14.3115 14.8786 14.2383 14.6978 14.2383 14.3369H13.7383ZM13.9824 15.2695L13.5884 15.5774C13.8793 15.9497 14.3204 16.082 14.7783 16.082V15.582V15.082C14.5006 15.082 14.4111 15.006 14.3764 14.9617L13.9824 15.2695ZM14.7783 15.582V16.082C15.023 16.082 15.2593 16.0454 15.4781 15.9598L15.2959 15.4941L15.1137 15.0285C15.033 15.0601 14.9243 15.082 14.7783 15.082V15.582ZM15.2959 15.4941L15.4833 15.9577C15.7018 15.8694 15.8947 15.7386 16.0511 15.562L15.6768 15.2305L15.3025 14.899C15.257 14.9502 15.196 14.9952 15.1085 15.0306L15.2959 15.4941ZM15.6768 15.2305L16.0511 15.562C16.2018 15.3918 16.3104 15.1934 16.3816 14.9755L15.9062 14.8203L15.4309 14.6651C15.3979 14.7663 15.3535 14.8413 15.3025 14.899L15.6768 15.2305ZM15.9062 14.8203L16.3825 14.9727C16.4529 14.7527 16.4844 14.5179 16.4844 14.2734H15.9844H15.4844C15.4844 14.4326 15.4638 14.5624 15.43 14.6679L15.9062 14.8203ZM15.9844 14.2734H16.4844V11.1631H15.9844H15.4844V14.2734H15.9844ZM15.9844 11.1631V11.6631H17.2002V11.1631V10.6631H15.9844V11.1631ZM17.2002 11.1631H16.7002V16.5H17.2002H17.7002V11.1631H17.2002ZM17.2002 16.5V16H15.9844V16.5V17H17.2002V16.5ZM15.9844 16.5H16.4844V15.6895H15.9844H15.4844V16.5H15.9844ZM15.9844 15.6895V15.1895H15.9014V15.6895V16.1895H15.9844V15.6895ZM15.9014 15.6895L15.4422 15.4915C15.387 15.6197 15.3114 15.7282 15.2141 15.8211L15.5596 16.1826L15.905 16.5441C16.1007 16.3571 16.253 16.1368 16.3605 15.8874L15.9014 15.6895ZM15.5596 16.1826L15.2184 15.8171C15.1252 15.9041 15.0085 15.9764 14.8608 16.0303L15.0322 16.5L15.2037 16.9697C15.4661 16.8739 15.701 16.7346 15.9007 16.5481L15.5596 16.1826ZM15.0322 16.5L14.8674 16.028C14.724 16.078 14.55 16.1074 14.3389 16.1074V16.6074V17.1074C14.6421 17.1074 14.9303 17.0652 15.1971 16.972L15.0322 16.5ZM0.5 8.2L0.778183 8.61547L12.2782 0.915468L12 0.5L11.7218 0.0845315L0.221817 7.78453L0.5 8.2ZM12 0.5L11.7218 0.915468L23.2218 8.61547L23.5 8.2L23.7782 7.78453L12.2782 0.0845315L12 0.5ZM23.5 8.2H23V20.3H23.5H24V8.2H23.5ZM23.5 20.3H23C23 20.7246 22.8047 21.1501 22.4253 21.4767L22.7515 21.8556L23.0777 22.2346C23.6568 21.736 24 21.0423 24 20.3H23.5ZM22.7515 21.8556L22.4253 21.4767C22.0436 21.8053 21.5118 22 20.9444 22V22.5V23C21.7326 23 22.5009 22.7311 23.0777 22.2346L22.7515 21.8556ZM20.9444 22.5V22H3.05556V22.5V23H20.9444V22.5ZM3.05556 22.5V22C2.4882 22 1.95643 21.8053 1.57471 21.4767L1.2485 21.8556L0.922296 22.2346C1.4991 22.7311 2.26736 23 3.05556 23V22.5ZM1.2485 21.8556L1.57471 21.4767C1.19533 21.1501 1 20.7246 1 20.3H0.5H0C0 21.0423 0.343161 21.736 0.922296 22.2346L1.2485 21.8556ZM0.5 20.3H1V8.2H0.5H0V20.3H0.5Z" fill="#686868"/>
</svg>
