<svg width="24" height="23" viewBox="0 0 24 23" fill="none" xmlns="http://www.w3.org/2000/svg">
<path d="M0.5 11.5C0.5 14.4174 1.7116 17.2153 3.86827 19.2782C6.02494 21.3411 8.95001 22.5 12 22.5C15.05 22.5 17.9751 21.3411 20.1317 19.2782C22.2884 17.2153 23.5 14.4174 23.5 11.5C23.5 8.58262 22.2884 5.78473 20.1317 3.72183C17.9751 1.65893 15.05 0.5 12 0.5C8.95001 0.5 6.02494 1.65893 3.86827 3.72183C1.7116 5.78473 0.5 8.58262 0.5 11.5Z" stroke="#686868" stroke-linecap="round" stroke-linejoin="round"/>
<path d="M17.1617 11.5C17.1617 11.7067 17.2476 11.9049 17.4003 12.051C17.5531 12.1972 17.7603 12.2793 17.9764 12.2793C18.1925 12.2793 18.3997 12.1972 18.5525 12.051C18.7053 11.9049 18.7911 11.7067 18.7911 11.5C18.7911 11.2933 18.7053 11.0951 18.5525 10.949C18.3997 10.8028 18.1925 10.7207 17.9764 10.7207C17.7603 10.7207 17.5531 10.8028 17.4003 10.949C17.2476 11.0951 17.1617 11.2933 17.1617 11.5ZM11.1854 11.5C11.1854 11.6023 11.2064 11.7037 11.2474 11.7982C11.2883 11.8928 11.3483 11.9787 11.424 12.051C11.4996 12.1234 11.5894 12.1808 11.6883 12.2199C11.7871 12.2591 11.8931 12.2793 12 12.2793C12.107 12.2793 12.213 12.2591 12.3118 12.2199C12.4106 12.1808 12.5005 12.1234 12.5761 12.051C12.6518 11.9787 12.7118 11.8928 12.7527 11.7982C12.7936 11.7037 12.8147 11.6023 12.8147 11.5C12.8147 11.2933 12.7289 11.0951 12.5761 10.949C12.4233 10.8028 12.2161 10.7207 12 10.7207C11.784 10.7207 11.5768 10.8028 11.424 10.949C11.2712 11.0951 11.1854 11.2933 11.1854 11.5ZM5.20898 11.5C5.20898 11.7067 5.29482 11.9049 5.4476 12.051C5.60038 12.1972 5.8076 12.2793 6.02367 12.2793C6.23974 12.2793 6.44695 12.1972 6.59974 12.051C6.75252 11.9049 6.83835 11.7067 6.83835 11.5C6.83835 11.2933 6.75252 11.0951 6.59974 10.949C6.44695 10.8028 6.23974 10.7207 6.02367 10.7207C5.8076 10.7207 5.60038 10.8028 5.4476 10.949C5.29482 11.0951 5.20898 11.2933 5.20898 11.5Z" stroke="#686868" stroke-linecap="round" stroke-linejoin="round"/>
</svg>
