<svg width="402" height="101" viewBox="0 0 402 101" fill="none" xmlns="http://www.w3.org/2000/svg">
<path d="M26.2323 72.1667L19.3708 79.0282C18.9842 79.4205 18.7674 79.9492 18.7674 80.5001C18.7674 81.0509 18.9842 81.5796 19.3708 81.972L26.2323 88.8334" stroke="#1A1A1A" stroke-width="1.5" stroke-linecap="round" stroke-linejoin="round"/>
<path d="M315.75 76.3333C315.75 74.6756 315.092 73.0859 313.919 71.9138C312.747 70.7417 311.158 70.0833 309.5 70.0833C307.842 70.0833 306.253 70.7417 305.081 71.9138C303.908 73.0859 303.25 74.6756 303.25 76.3333C303.25 83.6249 300.125 85.7083 300.125 85.7083H318.875C318.875 85.7083 315.75 83.6249 315.75 76.3333Z" stroke="black" stroke-linecap="round" stroke-linejoin="round"/>
<path d="M311.302 89.875C311.119 90.1907 310.856 90.4528 310.54 90.6349C310.224 90.8171 309.865 90.913 309.5 90.913C309.135 90.913 308.776 90.8171 308.46 90.6349C308.144 90.4528 307.881 90.1907 307.698 89.875" stroke="black" stroke-linecap="round" stroke-linejoin="round"/>
<g clip-path="url(#clip0_3010_5953)">
<path d="M336.375 73.4688V87.5312" stroke="black" stroke-linecap="round" stroke-linejoin="round"/>
<path d="M329.344 84.3272C329.344 84.1472 329.406 83.9727 329.52 83.8334C329.634 83.694 329.792 83.5983 329.969 83.5625C330.674 83.4183 331.309 83.0347 331.764 82.4767C332.22 81.9187 332.469 81.2204 332.469 80.5C332.469 79.7796 332.22 79.0813 331.764 78.5233C331.309 77.9653 330.674 77.5817 329.969 77.4375C329.792 77.4017 329.634 77.306 329.52 77.1666C329.406 77.0273 329.344 76.8528 329.344 76.6728V74.25C329.344 74.0428 329.426 73.8441 329.573 73.6976C329.719 73.5511 329.918 73.4688 330.125 73.4688H348.875C349.082 73.4688 349.281 73.5511 349.427 73.6976C349.574 73.8441 349.656 74.0428 349.656 74.25V76.6728C349.656 76.8528 349.594 77.0273 349.48 77.1666C349.366 77.306 349.208 77.4017 349.031 77.4375C348.326 77.5817 347.691 77.9653 347.236 78.5233C346.78 79.0814 346.531 79.7796 346.531 80.5C346.531 81.2204 346.78 81.9187 347.236 82.4767C347.691 83.0347 348.326 83.4183 349.031 83.5625C349.208 83.5983 349.366 83.694 349.48 83.8334C349.594 83.9727 349.656 84.1472 349.656 84.3272V86.75C349.656 86.9572 349.574 87.1559 349.427 87.3024C349.281 87.4489 349.082 87.5312 348.875 87.5312H330.125C329.918 87.5312 329.719 87.4489 329.573 87.3024C329.426 87.1559 329.344 86.9572 329.344 86.75V84.3272Z" stroke="black" stroke-linecap="round" stroke-linejoin="round"/>
</g>
<path d="M363.719 77.6145H375.281C375.792 77.6145 376.283 77.8175 376.644 78.1789C377.005 78.5403 377.208 79.0305 377.208 79.5416V86.2833C377.208 87.3051 376.801 88.2849 376.079 89.0072C375.356 89.7296 374.376 90.1353 373.354 90.1353H365.646C364.624 90.1353 363.644 89.7296 362.921 89.0072C362.199 88.2849 361.792 87.3051 361.792 86.2833V79.5416C361.792 79.0305 361.995 78.5403 362.356 78.1789C362.718 77.8175 363.208 77.6145 363.719 77.6145Z" stroke="#1A1A1A" stroke-linecap="round" stroke-linejoin="round"/>
<path d="M364.682 77.6145V75.6885C364.681 75.0551 364.804 74.4276 365.046 73.8421C365.287 73.2565 365.642 72.7244 366.09 72.2763C366.537 71.8281 367.069 71.4727 367.654 71.2304C368.239 70.9882 368.867 70.8638 369.5 70.8645C370.133 70.8648 370.76 70.9898 371.345 71.2324C371.93 71.475 372.461 71.8304 372.908 72.2784C373.356 72.7264 373.71 73.2581 373.952 73.8432C374.194 74.4283 374.318 75.0553 374.318 75.6885V77.6155" stroke="#1A1A1A" stroke-linecap="round" stroke-linejoin="round"/>
<defs>
<clipPath id="clip0_3010_5953">
<rect width="25" height="25" fill="white" transform="translate(327 68)"/>
</clipPath>
</defs>
</svg>
